<svg width="1512" height="904" viewBox="0 0 1512 904" fill="none" xmlns="http://www.w3.org/2000/svg">
<path d="M126.062 403.406L130.598 396.413L140.426 397.547L166.886 388.664L163.674 382.805L151.766 384.695L152.712 376.568L164.996 375.434L174.824 364.094L186.92 354.077H178.604L179.927 343.115L186.92 335.933L190.511 326.483L205.442 297.188L215.271 305.882L217.538 327.428L221.13 337.823L229.823 346.517L223.775 353.321L219.806 367.874L201.662 365.795L200.528 381.293L205.632 394.901L202.418 415.691L185.786 413.423L176.715 420.794L151.199 409.643L135.512 408.509L126.062 403.406Z" fill="#C5EEFF" stroke="black"/>
</svg>
