<svg width="1512" height="904" viewBox="0 0 1512 904" fill="none" xmlns="http://www.w3.org/2000/svg">
<path d="M431.865 256.552L429.219 278.098L385.749 300.967L370.629 281.311L357.21 276.208L353.241 283.012L333.207 279.043L334.152 267.892L340.011 261.277L325.458 247.102V236.896L322.623 228.013L316.575 238.03L314.307 229.903L305.991 223.288L300.699 236.896L292.383 235.762L294.651 224.8L287.469 214.594L286.146 209.113L280.098 193.048L283.878 186.055L289.359 194.938L298.431 201.553L304.101 211.003L314.307 213.838L326.214 207.79L334.908 187.378L327.915 175.849L331.506 169.045L340.956 173.581H349.839L366.66 193.048L382.725 197.962L391.608 196.45L407.295 164.698L413.532 159.406L415.8 169.045L405.027 190.591L409.752 196.45L415.044 206.278L424.494 203.065L431.865 210.436L434.322 224.8H441.693L447.552 218.752L450.198 199.285L454.167 192.292L460.026 196.45L461.349 208.546L460.026 220.075L451.521 226.123L443.016 235.762L440.559 250.315L431.865 256.552Z" fill="#E8FFED" stroke="black"/>
</svg>
