<svg width="1512" height="904" viewBox="0 0 1512 904" fill="none" xmlns="http://www.w3.org/2000/svg">
<path d="M574.938 166.966L577.016 153.547L586.844 156.004L599.129 154.681L612.17 152.791L620.675 154.681L626.535 159.595L635.795 163.186L643.923 168.1L647.513 175.471L656.207 168.856H668.303L690.228 173.581L703.458 183.976L708.371 192.481L722.357 194.182L726.326 186.811L734.264 190.402L740.69 186.811H753.164L765.072 190.402L767.528 199.852L775.089 201.742L780.191 213.46L776.033 231.037L762.803 228.769L747.117 233.305L748.251 241.054L740.69 245.401L736.721 234.628H731.051L718.01 254.284L703.458 249.181L698.921 233.305L694.385 241.054L685.502 236.14L681.911 226.879L670.76 221.965L665.658 226.879L655.262 215.728L651.293 221.965L644.868 215.728L636.74 219.886L630.125 211.948L628.046 202.687L618.407 197.017L615.383 184.921L608.579 180.196L597.24 179.251L588.545 173.581L582.308 166.966H574.938Z" fill="#E8FFED" stroke="black"/>
</svg>
