<svg width="1512" height="904" viewBox="0 0 1512 904" fill="none" xmlns="http://www.w3.org/2000/svg">
<path d="M805.52 249.559L809.3 255.04L817.805 252.394L832.358 253.339L856.928 260.143L891.704 263.545L887.546 237.652L876.773 225.556L874.127 209.869L862.598 192.481L856.172 180.763L867.89 169.234L863.354 158.272V137.293L872.993 146.554L882.632 140.884L877.529 95.9023H870.347L859.196 113.479L857.117 128.599L847.1 152.035L837.461 151.657L836.894 138.994L830.279 146.932L826.31 165.643L831.413 174.337L831.98 187.378L817.427 185.488L808.166 193.048L804.386 180.763L797.015 182.653L795.881 203.254L793.613 218.185L805.52 226.69V249.559Z" fill="#FFCEF1" stroke="black"/>
</svg>
