<svg width="1512" height="904" viewBox="0 0 1512 904" fill="none" xmlns="http://www.w3.org/2000/svg">
<path d="M604.613 301.913L599.51 338.012L669.44 374.867L693.443 371.276L715.178 352.943L738.236 338.201L751.655 316.088L766.208 321.002L773.579 307.772L771.5 300.212L783.596 292.652L782.273 282.068L769.988 275.831L761.294 286.604L740.693 280.556L725.951 283.769L718.58 278.099V289.061L731.81 297.755L722.549 311.363L709.697 308.906L704.027 295.676L693.065 298.889L680.402 290.384L670.385 298.889L658.856 291.518L664.526 278.099L653.564 267.893L639.011 278.855L624.458 277.343L616.898 262.979L604.613 264.491V275.642L612.74 282.446L604.613 301.913Z" fill="#FFCEF1" stroke="black"/>
</svg>
