<svg width="1512" height="904" viewBox="0 0 1512 904" fill="none" xmlns="http://www.w3.org/2000/svg">
<path d="M812.701 487.7L809.299 475.415L842.374 468.422L845.209 483.542H855.793L859.006 512.27L863.353 523.421L864.865 548.558L872.803 549.125L873.937 558.764L865.81 562.733V579.932L861.652 591.083L853.336 588.437L852.013 600.344L842.941 602.045L830.278 606.581L817.993 603.935L817.426 592.217L804.763 593.54L794.179 592.784L785.485 582.011L773.767 577.286L767.53 582.011L750.898 581.066L739.747 549.125L738.424 540.809L740.881 526.634L748.063 515.861L754.867 509.435L767.53 499.985L779.248 501.119L783.028 494.693L795.313 495.449L796.069 505.466L802.117 504.332L802.873 491.48L812.701 487.7Z" fill="#FFFFE2" stroke="black"/>
</svg>
