<svg width="1512" height="904" viewBox="0 0 1512 904" fill="none" xmlns="http://www.w3.org/2000/svg">
<path d="M286.126 713.373L286.219 713.446L286.335 713.42L303.345 709.64L303.745 709.551L303.482 709.236L297.948 702.594L303.48 696.14L303.54 696.07V695.977V681.046V680.998L303.522 680.952L299.971 672.169L304.425 662.333L359.517 636.296L432.628 611.8L441.543 629.817L435.973 639.286L346.629 694.631L346.549 694.68L346.521 694.77L343.913 703.34L335.343 706.134L335.131 706.204L335.175 706.422L337.788 719.298L330.557 724.119L330.501 724.156L330.471 724.216L323.144 739.058L314.761 742.156L308.621 728.759L308.339 728.144L308.153 728.794L305.559 737.874H297.62H297.53L297.461 737.931L288.836 745.056H280.232H280.032L279.988 745.252L276.115 762.776L269.253 756.276L269.232 756.256L269.207 756.241L262.53 752.346L262.903 734.265L272.277 725.454L272.316 725.417L272.337 725.367L279.394 708.096L286.126 713.373Z" fill="#FFEAD0" fill-opacity="0.9" stroke="#32A20A" stroke-width="0.5"/>
</svg>
