<svg width="1512" height="904" viewBox="0 0 1512 904" fill="none" xmlns="http://www.w3.org/2000/svg">
<path d="M920.619 479.005L918.351 462.751L949.914 451.978L960.876 449.521L964.089 465.019L972.027 469.555L978.264 467.098L983.178 477.871L993.195 479.572L999.243 486.376L1005.1 491.668L1011.34 490.534L1019.09 500.362L1029.1 501.685L1034.77 508.489L1044.79 507.733L1054.05 511.324L1057.83 520.018V533.815L1055.56 541.753L1024.76 546.856L1007.75 538.351L1003.97 546.856L1002.08 554.227L982.422 576.151L965.979 577.285L957.285 569.158L951.426 578.041L933.66 581.065L909.657 549.124L915.705 542.887L911.169 535.894L914.571 528.334L903.42 520.774L900.018 514.537L909.657 506.41L904.932 499.228L912.492 485.053L920.619 479.005Z" fill="#FFD6D6" stroke="black"/>
</svg>
