<svg width="1512" height="904" viewBox="0 0 1512 904" fill="none" xmlns="http://www.w3.org/2000/svg">
<path d="M1207.52 258.064L1208.66 268.837L1286.9 271.105L1282.37 262.222L1295.03 261.466L1293.33 253.528L1296.54 243.511L1303.72 240.676V232.36L1305.8 224.044L1313.36 222.721L1311.09 213.838L1293.33 203.443L1283.5 200.608L1280.66 213.838H1273.67L1265.92 221.398L1245.32 218.752L1240.6 183.031L1237.01 168.856L1240.6 160.162L1223.02 163.564L1208.66 162.619L1202.23 153.925L1198.64 169.423L1190.89 164.509L1187.11 149.389L1177.85 152.791L1181.25 175.66L1171.8 187L1175.39 198.34L1180.12 208.924L1188.81 216.106L1205.82 210.625L1213.38 249.37L1207.52 258.064Z" fill="#EEDEFF" stroke="black"/>
</svg>
