<svg width="1512" height="904" viewBox="0 0 1512 904" fill="none" xmlns="http://www.w3.org/2000/svg">
<path d="M1110.19 277.909L1098.85 281.878L1048.01 261.466L1039.5 246.913L1032.51 239.542L1022.68 242.944L1017.95 234.061L1014.93 224.422L998.299 217.996L1004.16 208.357L1014.93 213.082L1025.33 225.367L1036.48 230.47H1049.52L1055.94 222.721L1061.61 216.673L1059.35 205.333L1046.87 192.859L1049.52 182.842L1060.48 175.471L1071.06 177.928L1079.19 183.787L1089.02 180.196L1094.12 171.502L1084.1 161.107L1104.52 139.372L1114.16 158.083L1107.16 165.454L1110.94 181.33L1114.16 216.673L1126.44 230.47V242.944L1135.13 254.473L1120.01 274.885L1111.7 266.569L1110.19 277.909Z" fill="#EEDEFF" stroke="black"/>
</svg>
