<svg width="1512" height="904" viewBox="0 0 1512 904" fill="none" xmlns="http://www.w3.org/2000/svg">
<path d="M359.707 635.706L363.633 589.157L379.393 580.338L379.534 580.259L379.52 580.098L378.775 571.903L384.545 566.506L384.65 566.408L384.617 566.267L382.558 557.283L393.222 535.955H401.394L403.793 542.968L403.887 543.241L404.144 543.11L421.154 534.416L421.312 534.335L421.287 534.159L419.964 524.52L419.957 524.468L419.93 524.423L415.497 517.22L439.643 492.886L451.984 495.504L451.996 495.506L452.009 495.508L464.105 496.81L465.208 503.615L465.263 503.957L465.57 503.797L478.792 496.907L483.252 503.509L474.008 509.795L473.685 510.014L474.02 510.216L482.525 515.319L482.585 515.354H482.654H490.741L491.852 527.574L490.164 541.273L432.61 611.28L359.707 635.706Z" fill="#FFEAD0" fill-opacity="0.9" stroke="#32A20A" stroke-width="0.5"/>
</svg>
