<svg width="1512" height="904" viewBox="0 0 1512 904" fill="none" xmlns="http://www.w3.org/2000/svg">
<path d="M502.85 552.463L508.012 561.313L492.362 569.884L492.183 569.982L492.243 570.177L495.201 579.791L478.775 586.884L478.544 586.984L478.645 587.214L483.368 597.981L494.686 627.411L494.311 634.918L494.305 635.044L494.403 635.124L500.497 640.11L495.652 652.035L495.621 652.112L495.642 652.192L507.679 698.462L500.189 701.019H488.616L480.563 692.966L480.06 692.463L480.137 693.169L482.216 712.258L482.22 712.296L482.235 712.33L487.295 724.138L482.475 735.207L470.421 704.979L466.837 686.496L465.137 656.84L465.101 656.204L464.695 656.695L456.855 666.176L454.352 658.665L454.349 658.656L454.345 658.647L442.06 629.73L442.057 629.723L442.054 629.716L433.054 611.528L490.54 541.603L499.483 539.777L502.824 552.401L502.833 552.434L502.85 552.463Z" fill="#FFEAD0" fill-opacity="0.9" stroke="#32A20A" stroke-width="0.5"/>
</svg>
