<svg width="1512" height="904" viewBox="0 0 1512 904" fill="none" xmlns="http://www.w3.org/2000/svg">
<path d="M180.874 554.605L160.273 559.519L152.713 564.433L156.682 571.804L165.754 570.859L173.503 580.12L184.276 585.601L188.812 573.127L193.348 587.113L204.877 593.917L219.43 584.278L222.643 591.271H233.227L253.072 593.917V610.549L262.711 612.061L270.46 616.786L279.532 609.604L280.477 617.92L292.006 621.322L296.353 610.549L308.827 609.604L330.562 584.278L329.995 576.529L338.5 566.89L333.775 558.574L323.947 571.048L300.7 576.529L288.037 571.048L244.171 564.318L180.874 554.605Z" fill="#C5EEFF" stroke="black"/>
</svg>
