<svg width="1512" height="904" viewBox="0 0 1512 904" fill="none" xmlns="http://www.w3.org/2000/svg">
<path d="M484.596 271.293L490.833 279.042L487.242 289.437L496.692 291.138L499.905 284.334L504.441 290.193L499.905 301.344L506.709 306.825L508.032 316.842L518.994 313.251L528.444 321.756L515.403 351.24L506.709 358.611L488.565 367.683L484.596 378.267L482.328 390.174L473.634 398.679L463.995 390.174L458.136 396.978L454.356 395.277L452.466 420.225L444.528 418.335L441.693 432.321L442.827 441.393H432.81L435.645 455.757L436.401 463.128L426.951 458.97L421.47 464.451L406.161 483.729L387.639 486.942L383.292 478.626L365.904 479.949L360.801 488.454L350.973 490.344L353.43 479.193L360.045 471.633L349.461 471.066L344.547 483.729L332.829 482.595L322.056 492.612L327.726 504.33L325.269 510L315.441 523.23L319.032 533.436L326.781 534.948L335.286 540.429L324.513 558.384L313.74 561.597L311.472 558.573L307.881 542.886L296.352 551.958L288.036 571.047L300.699 576.528L323.946 571.047L333.774 558.573L338.499 566.889L329.994 576.528L330.561 584.277L333.394 581.873L333.079 577.567L342.165 567.268L334.179 553.212L322.238 568.367L300.979 573.38L291.988 569.488L298.801 553.848L306.014 548.173L308.69 559.863L312.595 565.069L326.487 560.926L339.354 539.481L327.922 532.114L321.292 530.82L318.801 523.739L327.884 511.511L331.026 504.261L325.722 493.3L333.884 485.711L346.522 486.934L351.472 474.178L353.727 474.299L350.666 477.796L347.063 494.151L362.684 491.147L367.679 482.822L381.549 481.767L385.995 490.272L407.8 486.489L423.713 466.451L427.622 462.542L439.912 467.95L438.616 455.312L436.46 444.393H446.226L444.731 432.436L446.852 421.972L455.192 423.958L457.025 399.767L458.948 400.633L464.287 394.432L473.74 402.773L485.099 391.66L487.496 379.08L490.961 369.839L508.374 361.133L517.869 353.083L532.068 320.981L519.711 309.859L510.533 312.866L509.526 305.242L503.525 300.407L507.871 289.723L499.282 278.628L494.961 287.778L491.222 287.105L494.211 278.453L488.088 270.846L484.596 271.293Z" fill="#40C6FF"/>
<path d="M468.531 272.994L465.071 272.75L460.468 279.533L456 276.82L444.984 284.005L442.952 275.097L432.61 275.097L429.219 278.097L440.559 278.097L443.016 288.87L456.057 280.365L461.35 283.578L468.531 272.994Z" fill="#40C6FF"/>
<path d="M385.749 300.966L381.546 300.423L376.922 303.996L361.323 298.146L358.029 292.657L341.46 283.897L336.414 285.078L324.345 283.851L309.402 298.794L317.536 303.416L310.419 309.862L302.244 319.999L287.068 313.554L285.047 324.873L274.272 322.884L253.144 341.98L244.355 357.924L245.387 375.058L252.982 391.092L243.267 396.991V410.562L241.043 418.72L239.982 428.473L244.047 437.319L254.807 441.53L265.079 438.627L267.989 436.223L276.517 443.369L266.698 440.954L238.318 447.57L236.285 435.085L238.271 426.923L228.553 418.348L218.533 426.737L209.957 432.912H182.538L173.396 429.571L161.268 423.219L138.043 418.837L135.302 429.34L128.295 435.413L134.239 443.933L128.812 450.839L127.939 462.194L133.275 477.694L147.496 469.794L157.211 470.719L165.372 480.92L170.502 489.299V511.849L164.05 518.825L157.326 531.276L170.107 538.003L175.098 545.489L177.113 552.417L159.072 556.72L148.761 563.422L154.993 574.995L164.477 574.007L171.595 582.514L185.936 589.811L188.649 582.35L190.844 589.118L204.968 597.453L218.166 588.712L220.719 594.27H233.027L250.071 596.542V613.114L261.657 614.931L270.683 620.435L277.16 615.306L277.72 620.233L293.768 624.969L298.437 613.398L306.335 612.8L308.827 609.603L296.352 610.548L292.005 621.321L280.476 617.919L279.531 609.603L270.459 616.785L262.71 612.06L253.071 610.548V593.916L233.226 591.27H222.642L219.429 584.277L204.876 593.916L193.347 587.112L188.811 573.126L184.275 585.6L173.502 580.119L165.753 570.858L156.681 571.803L152.712 564.432L160.272 559.518L180.873 554.604L177.849 544.209L172.179 535.704L161.406 530.034L166.509 520.584L173.502 513.024V488.454L167.832 479.193L158.76 467.853L146.853 466.719L134.946 473.334L130.977 461.805L131.733 451.977L137.97 444.039L132.3 435.912L137.97 430.998L140.238 422.304L160.272 426.084L172.179 432.321L182.007 435.912H210.924L220.374 429.108L228.501 422.304L234.927 427.974L233.226 434.967L235.872 451.221L266.679 444.039L278.208 446.874L281.988 444.039L268.002 432.321L263.655 435.912L254.961 438.369L246.267 434.967L243.054 427.974L243.999 419.28L246.267 410.964V398.679L256.851 392.253L248.346 374.298L247.401 358.611L255.528 343.869L275.184 326.103L287.469 328.371L289.359 317.787L303.156 323.646L312.606 311.928L322.623 302.856L314.307 298.131L325.458 286.98L336.609 288.114L341.051 287.074L355.887 294.918L359.289 300.588L377.433 307.392L385.749 300.966Z" fill="#40C6FF"/>
<path fill-rule="evenodd" clip-rule="evenodd" d="M121.777 404.499L129.095 393.217L140.107 394.488L162.532 386.959L162.059 386.097L148.331 388.276L150.014 373.802L163.52 372.555L172.721 361.94L178.595 357.075H175.222L177.072 341.747L184.338 334.284L187.766 325.263L204.53 292.372L218.133 304.406L220.487 326.771L223.74 336.188L233.946 346.394L226.486 354.786L222.024 371.145L204.427 369.129L203.569 380.854L208.717 394.581L204.934 419.059L186.67 416.569L177.189 424.273L150.471 412.596L134.655 411.453L121.777 404.499ZM151.2 409.641L176.715 420.792L185.787 413.421L202.419 415.689L205.632 394.899L200.529 381.291L201.663 365.793L219.807 367.872L223.776 353.319L229.824 346.515L221.13 337.821L217.539 327.426L215.271 305.88L205.443 297.186L190.512 326.481L186.921 335.931L179.928 343.113L178.605 354.075H186.921L174.825 364.092L164.997 375.432L152.712 376.566L151.767 384.693L163.674 382.803L166.887 388.662L140.427 397.545L130.599 396.411L126.063 403.404L135.513 408.507L151.2 409.641Z" fill="#40C6FF"/>
</svg>
