<svg width="1512" height="904" viewBox="0 0 1512 904" fill="none" xmlns="http://www.w3.org/2000/svg">
<path d="M304.291 709.395L287.281 713.175L280.288 707.694L273.106 725.271L263.656 734.154L263.278 752.487L270.082 756.456L277.264 763.26L281.233 745.305H289.927L298.621 738.123H306.748L309.394 728.862L315.631 742.47L324.325 739.257L331.696 724.326L339.067 719.412L336.421 706.371L345.115 703.536L347.761 694.842L351.352 708.828L365.527 716.199L369.496 726.216L377.056 731.13L380.269 738.123L396.523 740.769L393.121 756.834L395.2 768.93L407.674 786.318L415.801 793.5L420.715 787.83L427.519 806.919H429.031L430.921 794.823L429.598 777.435L436.969 759.102L448.12 744.549L449.254 733.398L445.663 711.663L452.656 697.866L445.663 660.255L437.158 639.465L442.828 629.826L455.113 658.743L457.759 666.681L465.886 656.853L467.587 686.526L471.178 705.048L483.463 735.855L488.566 724.137L483.463 712.23L481.384 693.141L489.511 701.268H501.229L508.978 698.622L496.882 652.128L501.796 640.032L495.559 634.929L495.937 627.369L484.597 597.885L479.872 587.112L496.504 579.93L493.48 570.102L509.356 561.408L504.064 552.336L500.662 539.484L491.401 541.374L493.102 527.577L491.968 515.103H483.652L475.147 510L484.597 503.574L479.872 496.581L466.453 503.574L465.319 496.581L453.034 495.258L440.56 492.612L416.179 517.182L420.715 524.553L422.038 534.192L405.028 542.886L402.571 535.704H394.066L383.293 557.25L385.372 566.322L379.513 571.803L380.269 580.119L364.393 589.002L352.297 584.277L346.438 591.27L340.012 586.545L330.563 584.277L333.395 581.872L341.301 583.769L345.947 587.185L351.381 580.699L364.165 585.692L377.105 578.452L376.392 570.614L382.062 565.31L380.128 556.871L392.212 532.704H404.715L406.746 538.639L418.776 532.49L417.829 525.587L412.387 516.744L439.582 489.338L453.507 492.292L467.914 493.843L468.749 498.994L480.859 492.684L488.757 504.373L480.714 509.842L484.483 512.103H494.708L496.119 527.625L494.889 537.6L502.837 535.978L506.86 551.175L513.5 562.559L497.067 571.558L500.162 581.618L483.831 588.67L487.372 596.743L498.965 626.885L498.631 633.566L505.408 639.111L500.036 652.335L512.582 700.561L501.727 704.268H488.268L485.289 701.289L486.397 711.46L491.834 724.147L483.341 743.649L468.287 705.897L464.603 686.899L463.328 664.654L456.624 672.762L452.305 659.805L442.395 636.479L440.497 639.705L448.556 659.404L455.791 698.316L448.783 712.143L452.279 733.304L451.018 745.699L439.599 760.601L432.642 777.905L433.939 794.942L431.599 809.919H425.403L419.615 793.68L416.084 797.754L405.434 788.342L392.36 770.118L390.067 756.775L392.936 743.225L378.21 740.827L374.693 733.172L367.059 728.21L363.15 718.344L348.779 710.872L347.506 705.912L339.893 708.394L342.408 720.79L334.03 726.376L326.486 741.657L314.062 746.248L310.049 737.491L309.011 741.123H299.7L291.006 748.305H283.642L279.049 769.084L268.271 758.873L260.242 754.189L260.683 732.832L270.576 723.532L279.013 702.883L288.015 709.939L298.835 707.534L294.693 702.564L301.291 694.866V681.628L297.437 672.095L302.067 661.872L299.266 651.044L301.834 643.829L296.566 644.707V630.167L307.32 618.486L306.336 612.8L308.827 609.604L310.528 619.431L299.566 631.338V641.166L306.37 640.032L302.401 651.183L305.236 662.145L300.7 672.162L304.291 681.045V695.976L298.621 702.591L304.291 709.395Z" fill="#FFD4A0"/>
</svg>
