<svg width="1512" height="904" viewBox="0 0 1512 904" fill="none" xmlns="http://www.w3.org/2000/svg">
<path fill-rule="evenodd" clip-rule="evenodd" d="M497.481 155.419L488.719 159.087L485.569 170.217L477.099 186.964L475.959 207.931L495.772 209.313L506.862 205.475L515.612 196.352L530.811 193.039L535.347 184.593L545.596 191.786L569.714 163.283L563.385 154.99V142.839L550.678 138.852L542.784 141.71V136.457L528.084 126.506L514.614 129.757L504.057 147.286L497.481 155.419ZM480.06 187.756L488.376 171.313L491.211 161.296L499.338 157.894L506.52 149.011L516.537 132.379L527.499 129.733L539.784 138.049V145.987L550.746 142.018L560.385 145.042V156.004L565.866 163.186L545.076 187.756L534.303 180.196L528.822 190.402L514.08 193.615L505.197 202.876L495.369 206.278L479.115 205.144L480.06 187.756Z" fill="#A0ED85"/>
<path d="M381.546 300.424L368.769 283.813L358.52 279.916L354.755 286.37L329.991 281.464L331.247 266.648L335.868 261.43L322.458 248.368V237.363L321.775 235.222L315.553 245.527L311.679 231.646L307.311 228.171L302.638 240.188L288.795 238.3L291.45 225.464L284.687 215.853L283.273 209.997L276.809 192.825L283.707 180.064L291.603 192.861L300.691 199.488L306.058 208.433L313.988 210.636L323.882 205.61L331.545 187.618L324.469 175.952L330.201 165.091L341.639 170.581H351.212L368.365 190.432L382.923 194.885L389.596 193.749L404.881 162.812L415.33 153.947L418.969 169.415L408.573 190.208L412.262 194.783L416.482 202.621L425.296 199.624L434.661 208.99L436.853 221.8H440.423L444.712 217.372L447.304 198.308L453.197 187.925L462.862 194.784L464.368 208.554L462.854 221.745L453.542 228.367L445.832 237.105L443.312 252.033L434.683 258.223L432.61 275.098L429.219 278.098L431.865 256.552L440.559 250.315L443.016 235.762L451.521 226.123L460.026 220.075L461.349 208.546L460.026 196.45L454.167 192.292L450.198 199.285L447.552 218.752L441.693 224.8H434.322L431.865 210.436L424.494 203.065L415.044 206.278L409.752 196.45L405.027 190.591L415.8 169.045L413.532 159.406L407.295 164.698L391.608 196.45L382.725 197.962L366.66 193.048L349.839 173.581H340.956L331.506 169.045L327.915 175.849L334.908 187.378L326.214 207.79L314.307 213.838L304.101 211.003L298.431 201.553L289.359 194.938L283.878 186.055L280.098 193.048L286.146 209.113L287.469 214.594L294.651 224.8L292.383 235.762L300.699 236.896L305.991 223.288L314.307 229.903L316.575 238.03L322.623 228.013L325.458 236.896V247.102L340.011 261.277L334.152 267.892L333.207 279.043L353.241 283.012L357.21 276.208L370.629 281.311L385.749 300.967L381.546 300.424Z" fill="#A0ED85"/>
<path fill-rule="evenodd" clip-rule="evenodd" d="M222.299 257.019L213.244 266.72L219.679 281.429L229.092 287.704L235.217 295.41L249.893 300.226L258.415 291.934L262.949 285.133L266.666 281.536L272.677 286.41L289.047 283.28L291.42 263.9L300.716 257.29L296.554 245.992H285.84L274.654 249.787L265.781 253.76L264.655 237.666L253.841 230.525L246.067 220.078L230.72 234.952L227.212 248.597L222.299 257.019ZM237.006 292.84L231.147 285.469L222.075 279.421L216.783 267.325L224.721 258.82L230.013 249.748L233.415 236.518L245.7 224.611L251.748 232.738L261.765 239.353L263.088 258.253L275.751 252.583L286.335 248.992H294.462L297.108 256.174L288.603 262.222L286.335 280.744L273.483 283.201L266.49 277.531L260.631 283.201L256.095 290.005L249.102 296.809L237.006 292.84Z" fill="#A0ED85"/>
<path d="M463.995 263.734L468.531 272.995L465.071 272.751L461.508 265.476L450.854 254.412L455.141 237.265L466.673 230.029L472.859 230.647L478.441 213.671L487.674 225.983L486.635 239.492L485.226 249.353L491.269 263.777L488.088 270.847L484.596 271.294L487.998 263.734L482.139 249.748L483.651 239.164L484.596 226.879L479.493 220.075L474.957 233.872L467.397 233.116L457.758 239.164L454.167 253.528L463.995 263.734Z" fill="#A0ED85"/>
<path fill-rule="evenodd" clip-rule="evenodd" d="M574.556 149.839L571.438 169.966H581.015L586.608 175.899L596.236 182.178L607.53 183.119L612.747 186.742L615.803 198.965L625.405 204.613L627.358 213.312L635.972 223.649L644.321 219.378L651.848 226.683L655.713 220.61L665.543 231.155L671.393 225.522L679.565 229.123L683.099 238.239L695.496 245.096L697.966 240.878L701 251.498L719.221 257.887L732.662 237.628H734.63L739.105 249.774L751.515 242.638L750.465 235.46L762.976 231.842L778.305 234.47L783.342 213.178L777.25 199.19L769.985 197.374L767.552 188.016L753.608 183.811H739.91L734.123 187.045L725.013 182.924L720.688 190.957L710.221 189.684L705.767 181.974L691.537 170.794L668.624 165.856H655.197L648.609 170.868L646.233 165.991L637.125 160.484L628.083 156.977L622.043 151.911L612.285 149.743L598.754 151.704L587.055 152.964L574.556 149.839ZM588.546 173.581L582.309 166.966H574.938L577.017 153.547L586.845 156.004L599.13 154.681L612.171 152.791L620.676 154.681L626.535 159.595L635.796 163.186L643.923 168.1L647.514 175.471L656.208 168.856H668.304L690.228 173.581L703.458 183.976L708.372 192.481L722.358 194.182L726.327 186.811L734.265 190.402L740.691 186.811H753.165L765.072 190.402L767.529 199.852L775.089 201.742L780.192 213.46L776.034 231.037L762.804 228.769L747.117 233.305L748.251 241.054L740.691 245.401L736.722 234.628H731.052L718.011 254.284L703.458 249.181L698.922 233.305L694.386 241.054L685.503 236.14L681.912 226.879L670.761 221.965L665.658 226.879L655.263 215.728L651.294 221.965L644.868 215.728L636.741 219.886L630.126 211.948L628.047 202.687L618.408 197.017L615.384 184.921L608.58 180.196L597.24 179.251L588.546 173.581Z" fill="#A0ED85"/>
</svg>
