<svg width="1512" height="904" viewBox="0 0 1512 904" fill="none" xmlns="http://www.w3.org/2000/svg">
<path d="M802.519 228.234V250.494L808.083 258.561L818.165 255.424L831.854 256.313L853.691 262.36L856.928 260.144L832.357 253.339L817.804 252.394L809.299 255.04L805.519 249.559V226.69L793.612 218.185L795.88 203.254L797.014 182.653L804.385 180.763L808.165 193.048L817.426 185.488L831.979 187.378L831.412 174.337L826.309 165.643L830.278 146.932L836.893 138.994L837.46 151.657L847.099 152.035L857.116 128.599L859.195 113.479L870.346 95.9023H877.528L882.631 140.884L872.992 146.554L863.353 137.293V158.272L867.889 169.234L856.171 180.763L862.597 192.481L874.126 209.869L876.772 225.556L887.545 237.652L891.703 263.545L894.879 264.396L890.368 236.311L879.587 224.206L876.978 208.742L865.167 190.929L859.893 181.31L871.434 169.955L866.353 157.676V144.336L872.553 150.293L885.832 142.482L880.207 92.9023H868.697L856.312 112.424L854.199 127.791L845.153 148.957L840.334 148.768L839.544 131.127L827.498 145.583L823.133 166.159L828.447 175.213L828.827 183.944L816.531 182.347L809.722 187.905L806.411 177.147L794.14 180.293L792.893 202.946L790.37 219.556L802.519 228.234Z" fill="#FF98E2"/>
<path fill-rule="evenodd" clip-rule="evenodd" d="M791.29 252.709L779.891 260.481L782.849 275.499L789.864 285.815L797.032 291.68L812.035 294.477L813.67 282.489L808.682 261.292L791.29 252.709ZM783.217 261.844L785.674 274.318L792.1 283.768L798.337 288.871L809.488 290.95L810.622 282.634L806.086 263.356L791.533 256.174L783.217 261.844Z" fill="#FF98E2"/>
<path fill-rule="evenodd" clip-rule="evenodd" d="M609.12 283.328L601.696 301.112L596.523 337.701L595.268 356.531L593.059 355.742V348.562L583.1 339.798L576.457 324.299L567.025 340.806V356.622L553.872 352.551L540.156 359.544L548.121 371.598L543.889 381.793L551.137 390.732L559.897 394.646L569.714 409.083L592.06 414.327L597.665 397.079L600.279 393.696L610.306 402.668V416.099L620.579 412.606L623.283 424.323L652.368 420.376L666.701 419.273L659.44 405.752L660.632 383.951L670.505 377.74L694.727 374.117L716.96 355.363L740.438 340.353L752.972 319.699L767.613 324.642L776.796 308.159L774.984 301.571L786.81 294.18L785.051 280.114L769.179 272.055L760.216 283.161L740.802 277.461L726.674 280.54L715.579 272.006V290.679L727.614 298.587L721.176 308.046L711.826 306.258L705.736 292.048L693.57 295.614L680.19 286.627L670.132 295.167L662.604 290.353L668.106 277.333L653.767 263.983L638.147 275.749L626.364 274.524L618.587 259.748L601.612 261.837V277.042L609.12 283.328ZM590.059 357.856L597.997 360.691L599.509 338.011L604.612 301.912L612.739 282.445L604.612 275.641V264.49L616.897 262.978L624.457 277.342L639.01 278.854L653.563 267.892L664.525 278.098L658.855 291.517L670.384 298.888L680.401 290.383L693.064 298.888L704.026 295.675L709.696 308.905L722.548 311.362L731.809 297.754L718.579 289.06V278.098L725.95 283.768L740.692 280.555L761.293 286.603L769.987 275.83L782.272 282.067L783.595 292.651L771.499 300.211L773.578 307.771L766.207 321.001L751.654 316.087L738.235 338.2L715.177 352.942L693.442 371.275L669.439 374.866L657.721 382.237L656.398 406.429L661.879 416.635L652.051 417.391L625.591 420.982L622.756 408.697L613.306 411.91V401.326L602.533 391.687L601.399 387.34L594.973 395.656L590.059 410.776L571.537 406.429L561.898 392.254L553.015 388.285L547.345 381.292L551.503 371.275L544.51 360.691L554.149 355.777L570.025 360.691V341.602L576.073 331.018L580.609 341.602L590.059 349.918V357.856Z" fill="#FF98E2"/>
<path fill-rule="evenodd" clip-rule="evenodd" d="M598.423 431.915L557.605 437.518L548.588 458.257L561.261 471.835L588.032 475.08L613.308 465.416L637.025 475.362L657.554 463.231L646.299 444.473L598.423 431.915ZM636.795 472.012L613.359 462.184L587.655 472.012L562.707 468.988L552.123 457.648L559.683 440.26L598.239 434.968L644.355 447.064L653.427 462.184L636.795 472.012Z" fill="#FF98E2"/>
</svg>
