<svg width="1512" height="904" viewBox="0 0 1512 904" fill="none" xmlns="http://www.w3.org/2000/svg">
<path fill-rule="evenodd" clip-rule="evenodd" d="M853.69 262.36L852.899 270.267L844.488 280.328L829.371 283.971L814.065 292.423L820.994 310.436L829.619 316.675L832.309 331.591L839.183 326.855L838.048 336.448L830.288 341.469L805.329 342.367L782.333 335.627L769.351 346.481L763.422 353.804L746.503 357.188L750.789 366.011L748.033 371.936L732.544 380.209L721.849 383.464L723.185 402.975L730.607 401.655L728.95 409.558L730.888 422.26L738.697 429.688L741.278 442.337L750.094 436.619L754.702 440.518V446.201L748.296 456.41L751.507 464.313L755.556 469.171L750.974 472.989L752.16 485.444L764.79 484.434L778.787 481.068L782.485 483.197V491.455H798.715L799.948 490.104L799.26 501.815L798.808 501.899L798.107 492.615L781.375 491.585L777.632 497.948L766.665 496.887L752.933 507.134L745.755 513.913L738.033 525.497L735.383 540.787L735.674 542.621L731.166 539.472L735.435 518.13L724.033 513.725L716.301 514.829L711.716 512.346L716.765 507.508L722.776 508.366L738.562 516.259L748.705 497.242L730.006 483.163L720.554 481.558L712.71 469.68L698.228 483.068L704.696 492.862L697.791 498.079L694.041 507.038L693.077 509.808L689.864 504.522L675.37 501.228L660.046 505.944L661.737 530.589L675.244 529.657L683.491 531.581L682.295 540.478L676.788 545.606L674.167 568.821L666.872 574.059L665.446 582.618L658.857 592.999L661.793 605.42L671.247 615.285L682.732 623.488L688.494 636.04H700.941L711.221 631.005L718.445 624.323L739.167 620.869L735.125 608.742L739.409 592.217L747.102 594.559L753.898 585.672V584.241L768.462 585.068L774.222 580.704L783.64 584.501L792.664 595.683L804.812 596.551L814.583 595.53L815.108 606.382L830.483 609.693L843.728 604.949L854.749 602.883L855.913 592.405L863.465 594.807L868.81 580.472V564.606L877.165 560.525L875.492 546.309L867.701 545.752L866.319 522.77L861.944 511.546L858.476 480.541H847.699L845.829 470.569L849.37 469.578L858.793 444.587V436.371L863.493 448.121L885.09 450.82H892.675L900.365 456.011L909.668 455.133L915.475 463.844L918.352 462.751L911.17 451.978L901.153 452.923L893.593 447.82H885.277L865.621 445.363L859.951 431.188L855.793 429.865V444.04L847.099 467.098L842.374 468.421L845.209 483.541H855.793L859.006 512.269L863.353 523.42L864.865 548.557L872.803 549.124L873.937 558.763L865.81 562.732V579.931L861.652 591.082L853.336 588.436L852.013 600.343L842.941 602.044L830.278 606.58L817.993 603.934L817.426 592.216L804.763 593.539L794.179 592.783L785.485 582.01L773.767 577.285L767.53 582.01L750.898 581.065V584.656L745.984 591.082L737.29 588.436L731.998 608.848L735.211 618.487L717.067 621.511L709.507 628.504L700.246 633.04H690.418L685.126 621.511L673.219 613.006L664.525 603.934L662.068 593.539L668.305 583.711L669.628 575.773L676.999 570.481L679.645 547.045L685.126 541.942L686.827 529.279L675.487 526.633L664.525 527.389L663.202 508.111L675.487 504.331L687.961 507.166L693.82 516.805L696.844 508.111L700.246 499.984L708.751 493.558L702.136 483.541L712.153 474.28L718.768 484.297L728.785 485.998L744.85 498.094L737.29 512.269L723.682 505.465L715.744 504.331L706.672 513.025L715.744 517.939L723.682 516.805L731.998 520.018L727.84 540.808L739.747 549.124L738.424 540.808L740.881 526.633L748.063 515.86L754.867 509.434L767.53 499.984L779.248 501.118L783.028 494.692L795.313 495.448L796.069 505.465L802.117 504.331L802.873 491.479L812.701 487.699L809.299 475.414L797.392 488.455H785.485V481.462L779.248 477.871L764.317 481.462L754.867 482.218L754.111 474.28L759.781 469.555L754.111 462.751L751.654 456.703L757.702 447.064V439.126L750.331 432.889L743.338 437.425L741.448 428.164L733.699 420.793L731.998 409.642L734.455 397.924L725.95 399.436L725.005 385.639L733.699 382.993L750.331 374.11L754.111 365.983L750.898 359.368L765.073 356.533L771.499 348.595L783.028 338.956L804.952 345.382L831.223 344.437L840.862 338.2L842.941 320.623L834.436 326.482L832.357 314.953L823.474 308.527L817.804 293.785L830.467 286.792L846.154 283.012L855.793 271.483L856.927 260.144L853.69 262.36ZM809.083 485.877L807.856 481.444L800.954 489.003L809.083 485.877Z" fill="#FEFFBB"/>
<path d="M891.703 263.545L881.875 275.641L887.545 279.61L889.813 284.524L881.875 293.785L887.545 305.125L899.83 311.74L895.294 325.726L904.555 334.231L911.17 343.303L920.431 346.705L918.919 356.533L911.737 357.667V365.983L910.603 379.402L912.304 390.175L921.187 392.254L927.802 388.285L935.551 397.924L936.874 408.697L947.836 412.666L949.915 427.597L953.317 433.456L946.702 441.961L949.914 451.978L951.934 448.452L950.042 442.553L956.928 433.7L952.805 426.6L950.558 410.461L939.627 406.504L938.424 396.711L928.501 384.367L920.686 389.056L914.952 387.714L913.623 379.293L914.737 366.11V360.231L921.551 359.155L923.769 344.736L913.058 340.801L906.803 332.223L898.742 324.82L903.455 310.285L889.803 302.934L885.449 294.225L893.343 285.015L889.929 277.617L886.235 275.032L894.878 264.396L891.703 263.545Z" fill="#FEFFBB"/>
</svg>
