<svg width="1512" height="904" viewBox="0 0 1512 904" fill="none" xmlns="http://www.w3.org/2000/svg">
<path d="M949.913 451.979L949.914 451.978L951.933 448.452L963.194 445.928L966.751 463.086L972.266 466.237L979.812 463.265L985.247 475.18L994.736 476.792L1001.38 484.261L1006.02 488.453L1012.58 487.26L1020.69 497.548L1030.66 498.865L1036.09 505.382L1045.24 504.691L1056.3 508.98L1060.83 519.395V534.236L1057.93 544.403L1024.29 549.976L1009.21 542.439L1006.81 547.846L1005.62 552.483L1014.3 556.2L1022.68 563.707L1023.83 573.068L1022.63 578.786L1030.88 580.638L1032.77 589.475L1039.89 595.658L1041.83 602.926L1050.59 603.315L1052.4 614.954L1049.96 622.462L1052.8 637.303L1062.43 643.832L1074.74 641.287L1078.86 653.219L1086.87 658.557L1091.73 675.244L1088.18 692.953L1076.63 687.515L1069.43 692.418L1062.79 699.403L1056.21 713.109L1046.47 698.873L1038.5 696.151L1031.54 682.23L1028.1 665.745L1009.01 651.19L1004.27 628.287L999.481 611.947L984.666 612.582L987.321 600.999L982.807 594.749L979.958 579.329L964.883 580.369L957.832 573.777L953.213 580.781L937.508 583.454L944.053 605.273L955.808 609.934L954.373 622.129L952.071 629.695L957.76 637.954L956.399 648.57L945.361 650.935L942.732 658.166L930.14 644.502L925.157 632.237L921.851 627.66L910.205 632.564L906.479 620.221L900.836 615.545L890.969 610.722V597.255L895.883 586.104V580.968L884.402 574.786L907.423 547.118L911.887 542.515L907.761 536.155L910.8 529.403L901.134 522.85L896.21 513.824L905.686 505.834L901.446 499.389L910.161 483.049L917.402 477.66L915.474 463.844L918.351 462.751L918.353 462.751L918.35 462.752L920.618 479.006L912.491 485.054L904.931 499.229L909.656 506.411L900.017 514.538L903.419 520.775L914.57 528.335L911.168 535.895L915.704 542.888L909.656 549.125L889.055 573.884L898.883 579.176V586.736L893.969 597.887V608.849L902.474 613.007L909.089 618.488L912.113 628.505L922.886 623.969L927.8 630.773L932.714 642.869L941.597 652.508L943.109 648.35L953.693 646.082L954.638 638.711L948.779 630.206L951.425 621.512L952.559 611.873L941.597 607.526L933.659 581.066L951.425 578.042L957.284 569.159L965.978 577.286L982.421 576.152L985.634 593.54L990.548 600.344L988.469 609.416L1001.7 608.849L1007.18 627.56L1011.72 649.484L1030.81 664.037L1034.4 681.236L1040.63 693.71L1048.38 696.356L1055.75 707.129L1060.29 697.679L1067.47 690.119L1076.35 684.071L1085.99 688.607L1088.64 675.377L1084.29 660.446L1076.35 655.154L1072.76 644.759L1061.8 647.027L1050.08 639.089L1046.87 622.268L1049.33 614.708L1048 606.203L1039.5 605.825L1037.23 597.32L1030.05 591.083L1028.35 583.145L1019.09 581.066L1020.79 572.939L1019.84 565.19L1012.66 558.764L1002.08 554.228L1003.97 546.857L1007.75 538.352L1024.76 546.857L1055.56 541.754L1057.83 533.816V520.019L1054.05 511.325L1044.79 507.734L1034.77 508.49L1029.1 501.686L1019.09 500.363L1011.34 490.535L1005.1 491.669L999.242 486.377L993.194 479.573L983.177 477.872L978.263 467.099L972.026 469.556L964.088 465.02L960.875 449.522L949.913 451.979Z" fill="#FF9696"/>
</svg>
