<svg width="1512" height="904" viewBox="0 0 1512 904" fill="none" xmlns="http://www.w3.org/2000/svg">
<path fill-rule="evenodd" clip-rule="evenodd" d="M996.985 353.494L1005.23 366.234L1015.47 365.695L1018.23 373.833L1026.81 388.897L1031.12 398.315L1044.33 391.127L1063.58 387.017L1084.29 379.506L1075.63 364.016L1072.52 346.357L1079.4 335.123L1079.75 333.133L1080.2 333.926L1091.55 337.305L1101.28 331.177L1110.1 336.923L1119.68 324.675L1118.22 333.029L1112.33 337.027L1115.13 350.786V363.597L1112.48 376.393L1125.92 397.563L1148.57 413.852L1168.17 416.171L1197.46 392.436L1188.37 382.016L1200.63 371.861L1190.99 362.221L1187.21 352.686L1189.8 340.841L1171.86 332.484L1164.52 319.505L1150.52 312.223L1148.71 325.085L1140.81 322.774L1135.66 315.053L1123.04 318.687L1144.07 307.544L1141.27 287.94L1134.37 269.281L1122.68 281.806L1120.35 288.534L1106.82 282.265L1112.92 280.131L1113.87 272.982L1120.35 279.466L1138.88 254.456L1129.44 241.939V229.327L1117.05 215.416L1113.91 180.843L1110.46 166.339L1117.8 158.602L1105.24 134.221L1079.96 161.133L1090.38 171.945L1086.98 177.747L1079.66 180.423L1072.33 175.141L1059.89 172.253L1046.91 180.982L1043.53 193.76L1056.58 206.811L1058.37 215.747L1053.69 220.735L1048.11 227.469H1037.13L1027.18 222.917L1016.77 210.613L1002.96 204.554L993.873 219.501L1012.5 226.699L1015.18 235.224L1021.24 246.618L1031.66 243.009L1037.09 248.725L1041.87 256.907L1039.62 256.368L1024.47 248.358L1015.98 259.616L1005.4 257.176L1000.02 273.071L1009.23 283.964L1016.78 277.926L1021.4 283.439L1026 294.849L1028.58 299.825L1026.26 299.427L1013.64 313.781L1011.51 325.269L1022.65 329.073L1028 327.371V330.153L1019.41 338.739L1003.78 343.178L996.985 353.494ZM1020.98 372.597L1017.58 362.58L1006.8 363.147L1000.57 353.508L1005.67 345.759L1020.98 341.412L1031 331.395V323.268L1022.68 325.914L1014.93 323.268L1016.44 315.141L1027.41 302.667L1034.02 303.801L1028.73 293.595L1024 281.877L1017.2 273.75L1009.64 279.798L1003.4 272.427L1007.37 260.709L1017.2 262.977L1025.33 252.204L1038.56 259.197L1048.01 261.465L1039.5 246.912L1032.51 239.541L1022.68 242.943L1017.96 234.06L1014.93 224.421L998.299 217.995L1004.16 208.356L1014.93 213.081L1025.33 225.366L1036.48 230.469H1049.52L1055.94 222.72L1061.61 216.672L1059.35 205.332L1046.87 192.858L1049.52 182.841L1060.48 175.47L1071.06 177.927L1079.19 183.786L1089.02 180.195L1094.12 171.501L1084.11 161.106L1104.52 139.371L1114.16 158.082L1107.16 165.453L1110.94 181.329L1114.16 216.672L1126.44 230.469V242.943L1135.14 254.472L1120.02 274.884L1111.7 266.568L1110.19 277.908L1098.85 281.877L1122.09 292.65L1125.31 283.389L1133.25 274.884L1138.35 288.681L1140.81 305.88L1118.69 317.598L1117.56 322.512L1109.43 332.907L1101.3 327.615L1091.1 334.041L1082.22 331.395L1078.25 324.402L1076.55 334.041L1069.36 345.759L1072.77 365.037L1079.95 377.889L1062.75 384.126L1043.28 388.284L1032.51 394.143L1029.48 387.528L1020.98 372.597ZM1115.67 338.388L1120.96 334.797L1123.23 321.756L1134.38 318.543L1138.92 325.347L1151.2 328.938L1152.9 316.842L1162.35 321.756L1169.72 334.797L1186.35 342.546L1184.09 352.941L1188.43 363.903L1196.18 371.652L1184.09 381.669L1193.16 392.064L1167.27 413.043L1149.69 410.964L1128.14 395.466L1115.67 375.81L1118.13 363.903V350.484L1115.67 338.388Z" fill="#CFA0FF"/>
<path fill-rule="evenodd" clip-rule="evenodd" d="M936.992 339.474L926.065 340.065L924.23 355.531L934.941 362.814L943.124 371.161L941.098 383.868L948.261 394.613L959.58 387.715L961.496 393.585L967.248 405.087L981.712 400.923H995.716L994.136 382.953L1010.27 378.516L1003 362.975L993.783 355.256L982.284 352.917L966.759 345.048L959.039 353.956L947.907 351.364L936.992 339.474ZM946.324 370.14L936.874 360.501L927.424 354.075L928.747 342.924L935.74 342.546L946.324 354.075L960.121 357.288L967.492 348.783L981.289 355.776L992.44 358.044L1000.57 364.848L1006.05 376.566L990.928 380.724L992.44 397.923H981.289L968.815 401.514L964.279 392.442L961.255 383.181L949.159 390.552L944.245 383.181L946.324 370.14Z" fill="#CFA0FF"/>
<path d="M1210.2 248.724L1204.42 257.292L1205.51 267.644L1183.51 287.753L1186.13 303.654L1177.31 310.453V331.904L1196.79 330.921L1204.26 357.088L1213.78 367.535L1222.62 364.715L1228.76 371.779L1235.67 382.054L1239.27 382.047L1231.15 369.951L1223.59 361.257L1214.7 364.092L1206.96 355.587L1199.02 327.804L1180.31 328.749V311.928L1189.38 304.935L1186.73 288.87L1208.66 268.836L1207.52 258.063L1213.38 249.369L1205.82 210.624L1188.81 216.105L1180.12 208.923L1175.39 198.339L1171.8 186.999L1181.25 175.659L1177.85 152.79L1187.11 149.388L1190.89 164.508L1198.64 169.422L1202.23 153.924L1208.66 162.618L1223.02 163.563L1240.6 160.161L1237.01 168.855L1240.6 183.03L1245.32 218.751L1265.92 221.397L1273.67 213.837H1280.67L1283.5 200.607L1293.33 203.442L1311.09 213.837L1313.36 222.72L1305.8 224.043L1303.72 232.359V240.675L1296.54 243.51L1293.33 253.527L1295.03 261.465L1282.37 262.221L1286.9 271.104H1293.9L1295.03 279.42L1298.81 287.547L1306.75 294.54L1332.26 292.65L1340.58 298.698L1325.84 327.804L1311.09 327.237V328.749L1324.7 334.23L1346.82 348.216H1358.34L1364.01 355.587L1361.37 361.257L1341.52 357.855L1325.08 352.941L1312.98 351.618L1302.78 349.539L1304.67 362.958L1290.3 380.346L1293.78 380.852L1307.82 363.849L1306.34 353.327L1312.52 354.585L1324.48 355.894L1340.84 360.781L1363.12 364.601L1367.5 355.203L1359.82 345.216H1347.68L1326.08 331.549L1324.06 330.738L1327.64 330.876L1344.41 297.775L1333.14 289.577L1307.78 291.455L1301.26 285.712L1297.94 278.566L1296.51 268.104H1288.74L1287.12 264.942L1298.69 264.252L1296.43 253.681L1298.96 245.779L1306.72 242.716V232.728L1308.24 226.662L1317.07 225.117L1313.69 211.881L1294.52 200.664L1281.24 196.833L1278.24 210.837H1272.45L1264.87 218.237L1247.99 216.07L1243.55 182.463L1240.16 169.082L1245.5 156.157L1222.83 160.544L1210.24 159.716L1200.78 146.91L1196.67 164.622L1193.51 162.617L1189.21 145.421L1174.52 150.816L1178.09 174.771L1168.45 186.34L1172.58 199.407L1177.66 210.788L1188.17 219.465L1203.52 214.516L1210.2 248.724Z" fill="#CFA0FF"/>
<path fill-rule="evenodd" clip-rule="evenodd" d="M1308.99 362.752L1302.88 373.196L1312.11 388.368L1325.83 397.024L1345.52 395.48L1357.1 399.148L1386.96 391.892L1392.69 365.63H1379.47L1369.54 362.037L1361.41 368.277L1345.25 362.481L1323.45 359.731L1308.99 362.752ZM1357.21 396.035L1345.87 392.444L1326.59 393.956L1314.31 386.207L1306.37 373.166L1310.9 365.417L1323.57 362.771L1344.55 365.417L1361.93 371.654L1370.06 365.417L1378.94 368.63H1388.96L1384.43 389.42L1357.21 396.035Z" fill="#CFA0FF"/>
</svg>
