<svg width="1512" height="904" viewBox="0 0 1512 904" fill="none" xmlns="http://www.w3.org/2000/svg">
<path fill-rule="evenodd" clip-rule="evenodd" d="M1316.41 484.487L1307.95 492.263L1295.92 507.356L1309.17 523.976L1317.17 520.946L1328.74 525.066L1332.67 533.65L1342.9 541.644L1347.11 555.472L1362.54 558.746L1377.47 548.87L1376.31 541.149L1386.7 533.027L1385.28 523.296L1390.5 514.664L1384.02 501.912V493.33L1378.37 485.64L1367.11 478.714L1350.93 481.088L1339.26 492.04L1316.41 484.487ZM1330.94 522.665L1317.14 517.751L1310.15 520.397L1299.75 507.356L1310.15 494.315L1317.14 487.889L1340.01 495.449L1352.3 483.92L1366.47 481.841L1376.3 487.889L1381.02 494.315V502.631L1387.07 514.538L1382.16 522.665L1383.48 531.737L1373.09 539.864L1374.22 547.424L1361.93 555.551L1349.46 552.905L1345.49 539.864L1335.1 531.737L1330.94 522.665Z" fill="#9EEEFF"/>
<path fill-rule="evenodd" clip-rule="evenodd" d="M1223.3 523.343L1227.73 517.253L1242.98 511.973L1249.1 493.399L1241.17 484.7H1233.16L1221.2 482.15L1207.17 486.276L1191.56 496.817L1186.41 507.472L1178.62 508.702L1176.66 521.288L1189.28 529.477L1200.4 534.275L1223.3 523.343ZM1188.43 510.191L1181.25 511.325L1179.93 519.83L1190.7 526.823L1200.34 530.981L1221.32 520.964L1225.85 514.727L1240.6 509.624L1245.7 494.126L1239.84 487.7H1232.85L1221.32 485.243L1208.47 489.023L1193.91 498.851L1188.43 510.191Z" fill="#9EEEFF"/>
<path d="M1295.03 391.499L1290.3 380.348L1290.3 380.348L1290.3 380.346L1293.78 380.853L1297.41 389.425L1308.9 396.281L1316.22 407.822L1312.79 420.69L1308.05 430.809L1289.32 439.427L1285.96 449.136L1274.17 455.63L1280.24 472.128L1255.37 469.365L1248.18 483.548L1238.11 476.919L1228.87 475.07L1211.05 478.525L1199.56 481.782L1190.97 494.48H1184.73L1180.68 496.293L1172.04 510.49L1161.24 507.405L1160.62 511.795L1151.29 519.217L1149.59 528.125L1133.57 540.487L1117.98 549.127L1101.4 540.519L1087.83 530.247L1066.96 510.436L1075.29 500.385L1084.5 501.596L1086.15 502.269L1083.14 478.486L1094.89 472.076L1102.6 477.51L1110.14 469.495L1122.19 464.42L1133.87 465.499L1144.05 455.888L1158.01 456.857L1170.82 448.973L1173.66 434.943L1170.23 416.36L1189.21 401.171L1228.02 393.522L1235.66 382.055L1239.27 382.047L1239.28 382.049L1239.27 382.049L1229.82 396.224L1190.51 403.973L1173.5 417.581L1176.71 434.969L1173.5 450.845L1158.76 459.917L1145.15 458.972L1134.95 468.611L1122.66 467.477L1111.89 472.013L1103 481.463L1094.69 475.604L1086.37 480.14L1089.77 506.978L1083.73 504.521L1076.54 503.576L1071.06 510.191L1089.77 527.957L1103 537.974L1117.94 545.723L1131.92 537.974L1146.85 526.445L1148.55 517.562L1157.81 510.191L1158.76 503.576L1170.67 506.978L1178.6 493.937L1184.09 491.48H1189.38L1197.69 479.195L1210.36 475.604L1228.88 472.013L1239.27 474.092L1247.02 479.195L1253.64 466.154L1275.75 468.611L1270.46 454.247L1283.5 447.065L1286.9 437.237L1305.8 428.543L1309.96 419.66L1312.98 408.32L1306.75 398.492L1295.03 391.499Z" fill="#9EEEFF"/>
</svg>
