<?xml version="1.0" encoding="UTF-8" standalone="no"?>
<!-- Created with Inkscape (http://www.inkscape.org/) -->

<svg
   version="1.1"
   id="svg1"
   width="3969"
   height="2089.9722"
   viewBox="0 0 3969 2089.9722"
   sodipodi:docname="map_original_relief.svg"
   inkscape:version="1.3.2 (091e20e, 2023-11-25)"
   xml:space="preserve"
   xmlns:inkscape="http://www.inkscape.org/namespaces/inkscape"
   xmlns:sodipodi="http://sodipodi.sourceforge.net/DTD/sodipodi-0.dtd"
   xmlns="http://www.w3.org/2000/svg"
   xmlns:svg="http://www.w3.org/2000/svg"><defs
     id="defs1"><linearGradient
       id="paint0_linear_130_3595"
       x1="292.5"
       y1="101"
       x2="1126"
       y2="665.5"
       gradientUnits="userSpaceOnUse"><stop
         stop-color="#EBE1E1"
         id="stop7" /><stop
         offset="1"
         stop-color="#291E1E"
         id="stop8" /></linearGradient></defs><sodipodi:namedview
     id="namedview1"
     pagecolor="#ffffff"
     bordercolor="#000000"
     borderopacity="0.25"
     inkscape:showpageshadow="2"
     inkscape:pageopacity="0.0"
     inkscape:pagecheckerboard="0"
     inkscape:deskcolor="#d1d1d1"
     showgrid="false"
     inkscape:zoom="0.91935458"
     inkscape:cx="2389.1761"
     inkscape:cy="1794.1935"
     inkscape:window-width="1472"
     inkscape:window-height="806"
     inkscape:window-x="0"
     inkscape:window-y="37"
     inkscape:window-maximized="0"
     inkscape:current-layer="g60"
     showguides="true" /><g
     inkscape:groupmode="layer"
     inkscape:label="Image"
     id="g1"><g
       style="fill:none"
       id="g60"
       transform="matrix(2.6858232,0,0,2.652218,202.07484,33.820813)"
       inkscape:label="Contour"><path
         fill-rule="evenodd"
         clip-rule="evenodd"
         d="m 715.519,85.3592 -30.432,7.8029 -0.051,0.9357 -10.572,-3.1883 h -24.733 l -0.025,0.0143 -19.675,-8.9005 -2.086,3.8734 -7.74,-6.0816 -31.833,-6.8606 h -17.954 l -4.45,-2.6905 -7.067,-2.7404 -7.674,-6.4361 -21.048,-4.6774 -13.588,1.9693 -7.412,-4.7418 h -12.99 L 471.306,45.8313 449.5,31.7284 l -35.356,8.5344 -15.428,25.6148 -1.11,1.373 -14.495,6.068 -5.856,20.6888 -15.943,-11.3149 -1.838,3.2379 -11.073,-47.0601 -48.423,41.0865 -6.387,12.9265 -13.138,-15.2046 H 264.661 L 235.299,63.5853 219.542,93.4422 199.025,60.1915 168.583,116.51 l -2.348,-3.155 -42.946,41.625 -4.47,17.383 -1.492,2.558 -19.1256,20.492 4.0136,9.175 -22.3467,43.845 -1.9559,5.147 -9.7323,9.995 -2.0859,17.284 -23.5474,2.173 -1.9174,16.49 -8.2319,-0.95 L 0,348.518 l 17.3385,9.363 -8.29247,7.186 9.94047,14.248 -1.5796,20.535 17.6627,51.306 22.9817,-12.767 -20.6484,38.237 5.9754,3.145 -13.3734,8.693 26.6312,49.458 13.1969,-1.375 1.4337,1.714 46.5103,23.663 0.393,-1.079 4.491,2.651 12.125,-8.031 h 5.104 v 14.932 l 29.137,4.57 17.357,10.584 v 9.671 l -2.001,-1.568 -19.755,48.347 -13.888,13.055 -1.002,48.628 19.067,11.122 43.204,40.93 9.512,-43.029 41.314,-15.268 6.178,-12.515 1.237,0.804 6.262,13.628 4.553,0.741 2.557,14.88 18.479,25.758 14.987,13.244 6.107,17.135 h 48.419 l 6.398,-40.949 -1.055,-13.876 3.225,-8.023 2.01,-2.623 16.916,42.419 38.066,-87.411 24.771,-8.458 -16.609,-63.841 9.505,-23.396 -12.434,-10.173 -6.767,-17.593 14.37,-6.205 -3.739,-12.151 21.461,-11.753 -18.797,-32.222 -7.421,-28.036 -2.198,-8.306 -1.323,-0.402 -1.719,-18.913 h -11.06 l -18.588,-27.511 -13.737,7.159 -1.028,-8.226 4.773,1.136 1.874,-24.733 28.439,-27.821 3.061,-16.07 1.252,-0.626 19.804,24.425 3.905,1.745 -21.395,49.208 31.507,33.758 43.216,5.238 21.412,-8.187 19.881,8.338 3.881,56.545 5.345,-0.368 -2.282,13.692 -9.755,15.372 7.252,30.684 16.303,17.011 7.685,5.489 9.995,21.774 h 36.061 l 19.469,-9.535 4.194,-3.88 43.964,-7.327 -9.176,-27.529 2.064,-2.699 3.611,0.205 7.668,9.501 9.806,0.7 0.286,5.924 0.328,0.07 42.088,9.065 5.912,-1.645 13.402,-4.801 14.689,-2.754 17.804,8.704 9.681,32.068 16.628,-7.001 43.337,47.025 12.702,-34.933 15.127,-3.242 1.795,-14.003 1.98,9.568 19.114,14.572 2.098,10.048 13.487,26.975 9.956,3.4 31.108,45.466 22.433,-46.735 25.17,11.843 11.62,-58.091 -9.47,-32.524 -8.63,-5.754 -8.91,-25.787 -13.119,2.714 -5.51,-35.42 -14.688,-0.653 -1.898,-1.649 -0.633,-2.951 22.538,-3.733 2.496,-8.736 5.174,3.914 31.5,16.349 30.08,-16.666 19.63,-15.164 8.35,5.42 24.51,10.57 40.17,-19.18 3.46,-4.764 19.88,-6.882 5.09,-15.452 30.73,38.55 11.7,-4.427 7.5,5.868 6.37,20.928 42.14,8.938 38.76,-25.643 -1.37,-9.174 10.33,-8.076 -2.29,-15.673 7.97,-13.184 -10.34,-20.37 v -10.98 l -14.04,-19.088 -24.12,-14.843 -34.31,5.032 -6.13,5.753 -15.13,-5.003 11.01,-5.064 9.95,-21.263 1.85,-6.949 2.23,-0.174 13.76,4.359 53.63,-13.036 16.5,-75.599 h -37.43 l -15.7,-20.412 h -8.75 l 14.55,-28.721 -37.92,-27.577 -11.28,0.836 4.03,-1.588 V 183.8 l 16.73,-2.928 -13.4,-52.484 -31.84,-18.629 -34.44,-9.9335 18.85,-45.6215 -65.71,12.7179 -36.3,-49.1087 -8.49,36.624 -34.65,12.7285 3.86,25.8845 -36.64,-71.1192 -53.002,56.4356 -4.191,-0.9728 -31.194,20.9756 -4.674,17.6936 -26.542,-11.641 -38.175,62.804 20.002,7.729 -5.209,1.803 11.04,5.835 -10.306,30.426 19.043,22.505 -0.123,0.14 -4.1,22.038 -0.033,0.05 -24.131,-12.23 -5.942,6.856 -5.926,-6.455 -17.176,0.929 5.039,-15.539 -12.037,-6.482 1.068,-1.246 -5.722,-12.398 4.049,-4.984 -7.681,-47.835 -10.859,-12.192 -2.268,-13.449 -8.603,-12.974 9.303,-9.154 -4.3,-10.392 15.593,-9.1726 L 827.77728,57.753952 821.225,0 h -50.536 l -15.644,24.6591 -35.751,42.9015 z m 373.991,103.0988 -9.98,13.483 0.65,1.771 13.87,-12.675 -0.69,-6.554 2.35,-3.488 -22.36,-18.469 v 4.504 z m -32.48,-79.985 9.08,-9.5765 0.3,2.0155 -8.79,10.558 -0.08,-0.859 z m 2.01,18.644 1.01,11.117 3.89,4.375 z m -86.124,286.899 -2.066,-16.292 42.73,-23.306 4.91,3.459 16.31,-6.867 6.25,0.577 4.69,-4.431 -22.99,-16.54 -8.27,-13.025 -26.568,9.635 -17.233,3.681 -35.243,19.167 -3.637,-7.956 h -27.837 l 0.642,3.098 6.035,-2.377 10.135,22.22 4.729,0.803 6.71,7.549 8.398,-1.527 11.38,14.433 9.55,1.261 3.274,3.929 1.365,-0.103 z m -518.423,-260.633 -8.201,1.787 -7.556,7.878 -7.492,2.593 -0.842,10.949 -0.478,3.343 5.891,14.061 19.847,25.636 -1.537,3.78 18.533,16.681 18.771,-32.849 V 172.06 l 34.545,-4.252 -6.71,-8.052 -0.815,-3.629 -9.27,-5.452 -1.924,-7.696 -3.206,-0.267 -0.475,-0.31 -1.524,9.834 -12.525,-16.413 -22.375,26.443 z m 163.262,224.534 -15.095,13.956 -7.338,-12.23 z m -4.932,-42.49 1.202,17.539 -8.808,-16.401 z m -326.318,116.088 -0.008,-0.014 -11.306,2.175 7.74,4.987 z"
         fill="#7c7974"
         stroke="url(#paint0_linear_130_3595)"
         stroke-opacity="0.4"
         stroke-width="2"
         stroke-dasharray="24, 8"
         mask="url(#path-1-inside-1_130_3595)"
         id="path2-3"
         style="stroke:#ebebeb;stroke-opacity:0.50597608"
         sodipodi:nodetypes="ccccccccccccccccccccccccccccccccccccccccccccccccccccccccccccccccccccccccccccccccccccccccccccccccccccccccccccccccccccccccccccccccccccccccccccccccccccccccccccccccccccccccccccccccccccccccccccccccccccccccccccccccccccccccccccccccccccccccccccccccccccccccccccccccccccccccccccccccccccccccccccccccccccccccccccccccccccccccccccccccccccccccccccccccccccc" /><path
         fill-rule="evenodd"
         clip-rule="evenodd"
         d="m 733.051,246.521 -5.634,-14.648 -17.134,-3.194 -6.439,-5.269 0.808,6.469 -11.55,7.219 1.54,5.601 -11.025,19.788 -14.73,-4.974 -11.634,19.172 -23.905,15.284 -22.74,19.18 -24.444,3.657 -7.998,5.031 -1.06,19.373 9.071,16.889 -18.91,1.455 -31.752,4.309 -2.571,-11.14 -11.109,3.777 v -16.324 l -6.57,-5.878 -0.288,0.372 -6.308,19.411 -26.231,-6.156 -9.999,-14.704 -8.634,-3.858 -8.851,-10.915 4.307,-10.376 -8.952,-13.549 17.858,-9.104 10.387,3.215 v -12.492 l 12.87,-22.524 8.783,20.492 7.387,6.501 0.472,-7.079 5.243,-37.088 6.71,-16.074 -6.878,-5.759 v -19.324 l 21.739,-2.676 7.998,15.196 8.969,0.932 16.703,-12.582 17.77,16.544 -5.331,12.615 3.464,2.215 10.098,-8.574 14.109,9.476 13.389,-3.924 6.517,15.205 5.793,1.108 3.569,-5.243 -10.82,-7.11 v -26.508 l 14.878,11.445 13.504,-2.943 18.209,5.346 9.235,-11.443 11.057,5.613 -2.903,-14.737 14.532,-9.908 10.419,5.142 -1.991,-2.888 v -21.64 l -12.396,-8.854 2.782,-18.316 1.361,-24.737 17.251,-4.423 2.833,9.208 4.318,-3.525 10.004,1.299 -0.189,-4.352 -5.529,-9.42 4.766,-22.4707 17.565,-21.0773 1.008,22.5281 7.99,-18.6925 2.147,-15.6188 L 781.597,24 h 15.908 l 6.155,54.2513 -16.976,9.9859 -2.706,-2.6002 v 5.5791 l 5.634,13.6169 -11.362,11.179 4.105,7.484 12.098,18.247 2.57,15.237 10.79,12.115 4.867,30.309 -7.437,9.154 1.685,1.18 4.579,9.921 -7.85,9.159 3.018,6.036 15.041,8.099 -4.894,15.091 6.843,6.285 5.888,8.075 7.89,2.898 0.474,-3.996 14.924,-0.806 11.251,12.255 8.424,1.962 8.075,-9.316 17.28,8.758 10.877,2.212 7.684,-11.669 15.959,-4.531 4.011,-4.011 -13.797,-4.711 2.773,-14.903 13.122,-14.932 -0.697,-1.343 -4.475,-11.098 -2.393,-2.858 -7.536,6.028 -12.245,-14.472 6.821,-20.139 11.336,2.616 4.778,-6.334 -7.16,-13.462 -2.32,-7.393 -20.656,-7.981 12.363,-20.34 16.904,7.414 10.427,12.323 8.725,3.993 h 8.881 l 4.73,-5.703 3.667,-3.912 -1.299,-6.492 -13.638,-13.638 4.116,-15.583 15.035,-10.109 14.328,3.326 6.512,4.695 4.776,-1.745 1.68,-2.865 -10.826,-11.2353 30.216,-32.172 15.53,30.1418 -7.7,8.1095 3.12,13.111 3.08,33.789 12.49,14.028 v 12.751 l 10.19,13.522 -7.04,9.502 8.6,23.246 3.15,22.045 -8.83,4.681 4.16,6.246 3.46,1.011 1.92,-13.641 18.63,9.688 7.3,12.915 0.22,0.105 v -21.284 l 8.57,-6.602 -2.59,-15.735 22.09,-20.185 -1.05,-9.924 5.69,-8.441 -5.77,-29.597 -13.68,4.407 -12.34,-10.194 -5.44,-12.191 -4.7,-14.822 9.84,-11.801 -3.73,-25.0585 20.2,-7.4212 3.94,15.7392 4.02,-17.3459 12.55,16.9846 10.78,0.7096 27.84,-5.3879 -7.11,17.2231 3.18,12.575 4.16,31.458 13.09,1.681 7.42,-7.237 h 4.56 l 3.17,-14.791 16.79,4.842 20.6,12.053 4.5,17.659 -10.12,1.771 -0.94,3.781 v 11.686 l -8.35,3.294 -1.84,5.754 2.83,13.245 -2.94,0.175 1.42,10.44 2.86,6.149 5.08,4.474 25.19,-1.866 14.28,10.381 -17.33,34.206 17.59,11.126 h 12.76 l 9.73,12.645 -1.81,3.874 10.76,3.893 h 16.47 l -6.94,31.822 -32.54,7.907 -11.83,-3.745 -20.1,1.577 -15.18,-9.578 -8.56,-14.058 -4.02,4.862 2.52,5.95 11.26,6.717 8.43,13.281 -3.85,14.42 -5.32,11.375 -18.57,8.541 -3.32,9.588 -10.52,5.795 6.88,18.667 -27.68,-3.075 -7.78,15.343 -2.7,-1.781 5.9,6.472 -7.15,21.698 -15.77,5.461 -4.32,5.94 -24.85,11.862 -12.63,-5.449 -14.48,-9.404 1.79,-11.509 -1.71,2.798 -9.67,-2.763 -0.3,2.13 -9.39,7.473 -1.71,8.933 -17.11,13.21 -17.22,9.544 -18.27,-9.48 -13.91,-10.531 -23.053,-21.89 11.22,-13.541 8.554,1.125 -2.72,-21.462 15.239,-8.314 7.1,5.001 6.17,-6.557 13.35,-5.622 11.07,1.022 10.14,-9.582 14.32,0.994 10.85,-6.678 2.46,-12.154 -2.91,-15.737 -20.22,-2.391 -23.76,-17.094 -14.41,-22.709 2.82,-13.698 v -12.194 l -2.16,-10.654 -8.66,-5.641 -9.25,5.823 -10.484,-3.122 -5.802,9.467 2.826,16.014 10.15,18.17 -24.275,8.805 -19.017,4.062 -15.699,8.537 -5.607,-12.266 -8.657,-15.198 -2.116,-6.229 -4.101,0.216 5.342,11.421 -17.169,4.721 1.649,18.753 h -16.901 l -16.487,4.746 -6.986,-13.971 -0.792,-2.424 -10.53,6.416 -9.447,-14.172 1.971,-12.368 -6.895,-7.034 -8.389,-5.704 -0.362,2.357 -6.44,1.017 v 3.403 l -1.094,12.944 0.952,6.031 2.535,0.593 9.034,-5.42 12.132,15.091 1.08,8.797 10.899,3.947 2.418,17.366 4.855,8.361 -7.16,9.206 0.549,1.714 11.566,-2.593 3.907,18.846 3.052,1.744 8.876,-3.497 5.965,13.077 8.953,1.52 7.24,8.145 3.404,3.075 6.889,-1.252 8.48,10.755 9.923,1.31 5.187,6.226 8.276,-0.625 12.891,4.999 5.288,12.162 v 15.902 l -3.552,12.432 -36.52,6.05 -13.105,-6.553 -1.004,2.258 -0.477,1.86 6.733,2.886 9.616,8.604 1.341,10.999 -0.684,3.272 7.222,1.621 2.089,9.749 7.058,6.129 1.602,6.01 9.02,0.401 2.306,14.824 -2.423,7.455 2.45,12.829 7.525,5.098 13.666,-2.828 4.662,13.494 8.076,5.384 5.38,18.473 -4.45,22.259 -13.508,-6.355 -5.493,3.74 -6.081,6.4 -8.655,18.032 -12.149,-17.756 -8.193,-2.798 -7.696,-15.392 -3.291,-15.76 -19.094,-14.557 -4.944,-23.898 -4.081,-13.931 -16.425,0.704 3.24,-14.134 -4.107,-5.686 -2.48,-13.421 -13.685,0.944 -5.381,-5.031 -3.36,5.094 -13.611,2.316 5.131,17.103 12.56,4.981 -1.74,14.792 -1.954,6.421 5.517,8.008 -1.784,13.914 -11.498,2.463 -3.765,10.353 -16.361,-17.754 -5.053,-12.437 -1.671,-2.314 -12.534,5.277 -4.439,-14.705 -4.656,-3.858 -11.249,-5.5 v -16.011 l 4.914,-11.15 v -2.675 l -13.161,-7.086 25.48,-30.622 2.854,-2.943 -3.709,-5.717 2.669,-5.931 -8.157,-5.531 -6.469,-11.86 9.31,-7.849 -3.748,-5.697 9.888,-18.54 6.341,-4.719 -1.582,-11.336 -4.412,-6.617 -8.577,0.809 -7.821,-5.28 h -6.843 l -23.57,-2.946 -0.859,-2.148 -8.793,23.323 -2.339,0.654 0.889,4.742 h 10.974 l 3.726,33.317 4.405,11.299 1.251,20.793 7.641,0.546 2.219,18.868 -8.586,4.193 v 14.513 l -6.552,17.57 -6.774,-2.156 -1.003,9.026 -13.001,2.438 -13.836,4.956 -18.516,-3.988 -0.482,-9.972 -6.832,0.714 -13.738,-0.982 -9.359,-11.597 -7.08,-2.854 -5.277,3.997 -13.021,-0.739 -8.149,10.655 -6.676,-2.032 -3.261,12.575 4.886,14.656 -23.342,3.89 -6.882,6.367 -11.316,5.542 h -15.108 l -6.238,-13.591 -11.058,-7.898 -10.225,-10.67 -3.422,-14.479 6.945,-10.944 1.531,-9.19 7.218,-5.182 2.596,-22.991 5.534,-5.152 0.681,-5.071 -5.104,-1.191 -16.092,1.11 -2.065,-30.098 18.412,-5.666 16.547,3.761 0.66,1.087 2.838,-6.78 5.279,-3.989 -6.318,-9.567 19.018,-17.582 9.092,13.769 8.88,1.508 21.373,16.093 -7.373,13.825 5.721,-5.403 14.817,-11.058 10.205,0.988 3.446,-5.859 v -3.909 l -1.118,-0.644 -13.048,3.138 -15.86,1.269 -1.624,-17.045 3.476,-2.896 -2.401,-2.881 -3.977,-9.789 6.769,-10.787 v -3.393 l -1.801,-1.523 -10.667,6.919 -3.284,-16.091 -7.87,-7.486 -2.178,-14.278 0.844,-4.026 -6.322,1.124 -1.734,-25.316 12.729,-3.875 14.328,-7.652 1.715,-3.688 -5.375,-11.067 19.707,-3.941 5.422,-6.699 14.46,-12.089 24.085,7.06 23.625,-0.85 5.852,-3.786 0.175,-1.481 -5.218,3.594 -3.31,-18.355 z m 0.056,-53.873 -6.87,2.137 5.106,21.701 -0.754,5.525 12.245,-6.762 14.538,-3.503 7.165,-8.569 0.442,-4.419 -19.059,-5.278 z m 493.523,99.099 4.39,0.48 -6.17,1.289 -0.31,-2.195 z m -75.12,122.189 2.82,1.861 h -6.27 l -10.74,-2.289 6.12,-1.186 z m -25.17,1.702 2.57,-0.499 -8.47,2.492 -6.94,4.686 2.54,-3.76 z m -26.38,16.035 h 2.45 l -3.47,7.182 -5.79,0.915 4.22,-6.938 z m 11.96,-101.065 28.84,-5.686 5.81,-8.715 -5.66,-8.424 -4.7,-5.407 -8.79,2.804 -11.31,-12.421 -7.01,-24.525 -10.83,0.547 9.6,4.473 -2.9,13.32 3.2,8.084 11.56,11.562 -12.43,10.295 9.12,10.446 z m -479.54,114.273 2.803,0.4 -3.739,0.534 -0.025,-0.013 z m 316.286,-260.739 -5.26,-2.78 1.974,-0.684 z m 81.984,29.504 -0.38,2.89 -0.77,0.27 3.65,1.693 0.61,-1.751 z"
         fill="#6c6965"
         id="path3-7"
         style="display:none" /><path
         fill-rule="evenodd"
         clip-rule="evenodd"
         d="m 192.294,632.142 -9.712,23.77 -10.344,9.723 -0.503,24.431 9.272,5.409 14.433,13.673 5.227,-23.648 h 6.012 l 8.694,-7.182 h 8.961 l 2.712,5.915 16.212,-5.991 7.72,-15.637 9.401,-6.267 -2.382,-11.741 1.942,-0.633 0.803,3.131 14.57,7.576 3.848,9.712 7.708,5.01 3.827,8.329 13.174,2.145 -2.328,10.996 2.511,14.609 13.682,19.073 13.215,11.678 2.125,-2.453 4.757,13.344 h 10.953 l 2.798,-17.903 -1.27,-16.681 6.537,-16.258 11.691,-15.258 1.389,-13.659 -3.399,-20.577 7.023,-13.857 -3.916,-21.065 0.41,1.231 5.259,-6.361 0.843,14.699 3.777,19.481 17.868,44.808 11.937,-27.411 -5.777,-13.478 -0.366,-3.362 h 13.222 l 14.011,-4.784 -13.004,-49.986 5.838,-14.37 -7.326,-5.994 0.289,-5.789 -11.849,-30.809 -2.338,-5.331 16.025,-6.92 -3.168,-10.295 17,-9.31 -8.01,-13.732 -4.654,-17.58 -6.615,1.35 0.752,-6.092 -1.693,-18.619 h -10.199 l 5.692,-3.871 -11.122,-16.46 -10.779,5.617 -0.532,-3.28 -16.564,-1.783 -15.398,-3.267 -30.055,30.288 6.362,10.339 0.566,4.123 -6.971,3.563 -1.597,-4.668 h -16.566 l -13.415,26.83 1.786,7.796 -5.477,5.124 0.668,7.352 -9.957,5.571 -13.482,-5.266 -5.004,5.972 -2.836,-2.086 -6.34,-1.522 -0.059,-0.804 9.678,-10.969 -9.671,-17.023 7.267,-12.113 -14.405,-9.283 -5.492,-1.072 -1.375,-3.907 8.327,-11.21 3.837,-8.855 -4.931,-10.192 5.508,-5.122 9.937,0.962 -1.802,8.18 21.508,-4.136 4.884,-8.141 10.297,-0.783 4.546,8.696 25.14,-4.361 16.527,-20.811 2.311,-2.311 15.176,6.677 -1.845,-17.988 -1.465,-7.42 h 9.51 l -1.861,-14.888 1.395,-6.886 8.749,2.083 1.774,-23.42 0.037,0.016 4.811,-5.587 9.263,8.173 14.068,-13.762 2.526,-13.263 2.954,-7.877 16.671,-8.335 10.307,-8.739 15.376,-34.763 -15.31,-13.779 -7.364,2.412 -0.686,-5.192 -5.186,-4.178 4.154,-10.211 -12.708,-16.414 -1.867,3.955 -5.147,-6.395 2.957,-6.572 -6.229,-14.869 1.304,-9.127 1.135,-14.752 -10.328,-13.771 15.707,1.096 12.372,-4.283 8.617,-8.982 15.663,-3.414 3.575,-6.657 9.717,6.819 22.296,-26.35 -0.539,3.484 h 11.818 l 4.94,5.24 10.576,6.897 11.247,0.937 3.605,2.504 3.088,12.352 9.565,5.626 1.825,8.128 10.645,12.775 8.575,-4.387 8.645,8.39 3.759,-5.907 9.256,9.93 6.609,-6.364 5.145,2.268 3.477,8.968 15.967,8.833 0.37,-0.633 1.509,5.281 21.947,7.696 12.696,-19.135 4.348,11.803 17.337,-9.969 -0.965,-6.598 9.285,-2.684 17.461,2.993 5.93,-25.066 -7.096,-16.295 -6.966,-1.742 -2.409,-9.263 -16.013,-4.829 h -14.942 l -5.137,2.871 -10.301,-4.66 -4.687,8.706 -6.892,-0.838 -3.987,-6.901 -15.244,-11.978 -23.919,-5.155 h -14.78 l -4.447,3.384 -1.142,-2.3445 -10.105,-6.1098 -8.82,-3.4198 -6.224,-5.2203 -11.03,-2.4511 -14.028,2.0331 -11.105,1.1959 -15.212,-3.8032 -1.965,12.68 -3.657,-4.7924 V 74.7468 l -15.826,-4.9649 -4.775,1.7291 v -2.5254 l -17.155,-11.6126 -16.017,3.866 -11.106,18.4401 -5.96,7.3714 -9.409,3.9386 -3.47,12.2609 -8.625,17.056 -1.338,24.603 3.359,0.234 -5.383,16.374 -4.791,-0.479 -13.456,8.443 -4.994,19.976 11.493,11.935 2.575,5.257 -1.982,2.922 -3.631,-2.204 -8.96,5.843 -1.599,-7.014 h -9.328 l 1.489,-12.129 8.564,-6.143 2.584,-15.308 6.902,-7.822 10.133,-7.206 1.708,-14.88 -1.693,-15.471 -13.532,-9.604 -7.848,13.827 -2.536,18.656 -2.447,2.526 -1.877,-10.976 -11.392,-11.392 -8.168,2.776 -3.131,-5.815 -2.637,-3.269 10.015,-20.029 -5.034,-21.3912 -14.728,12.4967 -14.875,30.1085 -4.429,0.754 -13.027,-3.984 -17.49,-20.242 H 256.91 l -13.458,-6.4597 -7.907,14.9827 7.161,11.806 -6.616,15.533 -7.85,3.987 -5.617,-1.56 -5.059,-8.433 -9.104,-6.638 -10.35,-16.775 -10.066,18.622 6.888,18.297 1.506,6.238 6.338,9.006 -3.05,14.74 19.459,2.654 4.045,-10.4 0.356,0.283 5.506,19.729 4.896,-8.109 v 4.618 l 12.249,11.931 -3.364,3.798 -1.328,15.672 -3.755,-0.382 -18.795,18.796 7.95,4.517 -4.172,3.778 -6.88,8.531 -16.576,-7.04 -2.155,12.065 -9.24,-1.706 -22.623,20.449 -9.463,17.164 1.121,18.604 6.671,14.084 -8.831,5.362 v 14.878 l -2.181,7.997 -0.447,4.108 -8.987,-7.929 -11.943,9.999 -7.688,5.535 H 97.6551 l -8.4468,-3.086 -3.4146,-1.789 6.4533,2.82 9.897,-8.041 19.922,2.716 4.363,-28.226 -5.194,-13.849 0.578,-7.89 17.041,1.953 4.962,-18.194 8.895,-10.007 -11.742,-11.742 -2.91,-8.424 -2.442,-23.197 -17.438,-15.426 -18.6264,36.544 -3.2619,8.584 -7.5444,7.749 -2.2024,18.248 -1.3839,1.146 -8.5628,9.88 -14.7483,1.362 -2.1627,18.599 -5.3278,1.788 L 42.1439,324.12 32,339.758 l 16.3596,8.835 15.9471,1.152 9.4282,4.121 -23.3461,-4.405 -3.2197,12.342 -8.3667,7.251 6.2218,8.918 -4.6029,5.858 -0.9928,12.907 6.7253,19.535 16.5728,-9.207 7.4883,0.713 7.235,9.044 4.5819,7.483 v 20.498 l -5.9037,6.382 -8.3705,15.501 14.8206,7.8 4.3009,6.452 0.9903,3.404 -15.4395,3.683 -13.1054,8.518 8.5304,15.842 9.9022,-1.031 6.4779,7.742 17.966,9.14 0.998,-2.743 16.44,9.702 11.82,-7.829 1.884,4.099 h 14.059 l 14.199,1.893 v 16.51 l 13.563,2.128 10.322,6.294 3.842,-3.042 0.169,1.484 19.253,5.681 -0.655,0.712 v 19.327 l 3.707,-0.617 -1.144,3.214 2.765,10.692 -4.724,10.433 4.121,10.194 v 11.518 l -7.541,8.797 2.59,3.108 -4.531,1.007 z m 28.147,-136.821 5.049,6.732 -9.65,2.275 -5.26,-2.276 5.286,-12.136 2.828,-2.225 z m 54.342,-270.814 -3.248,-1.717 2.894,-4.961 7.028,2.673 10.397,13.515 -0.875,0.676 -13.012,-4.88 z m -120.699,144.378 -0.114,0.467 1.409,8.657 7.269,-1.695 -6.28,-2.457 z m 64.553,182.789 -7.124,7.738 3.62,-8.97 3.248,-0.246 z"
         fill="#6c6965"
         id="path4-8"
         style="display:none" /><path
         d="m 1206.6,441.501 13.69,-17.177 9.95,-9.148 22.83,7.547 11.05,-10.367 18.23,-2.673 12.7,7.818 6.6,8.975 v 8.852 l 6.91,13.61 -5.53,9.145 1.52,10.401 -10.38,8.117 1.18,7.885 -17.61,11.652 -18.45,-3.912 -4.45,-14.629 -10.05,-7.857 -3.71,-8.089 -9.3,-3.312 -9.04,3.419 z"
         fill="#6c6965"
         id="path5-8"
         style="display:none" /><path
         d="m 131.823,217.616 -7.597,-17.364 10.19,-10.918 4.527,-7.761 3.617,-14.066 18.456,-17.888 9.528,12.803 11.623,7.676 0.928,13.244 5.021,-2.249 11.799,-4.003 h 13.342 l 5.703,15.479 -10.1,7.182 -2.48,20.251 -19.945,3.813 -5.013,-4.065 -1.541,1.492 -4.531,6.797 -10.077,9.804 -17.296,-5.675 -6.396,-8.047 z"
         fill="#6c6965"
         id="path6-3"
         style="display:none" /><path
         d="m 470.069,368.877 -10.497,24.144 14.795,15.852 28.625,3.469 24.84,-9.497 24.002,10.065 24.489,-14.471 -13.473,-22.454 -49.664,-13.027 z"
         fill="#6c6965"
         id="path7-8"
         style="display:none" /></g><g
       id="g61"
       inkscape:label="Continents"
       transform="translate(169.50007,90.268011)"><path
         style="fill:#483e37;stroke:#ff00ff;stroke-width:5.66929;stroke-dasharray:none"
         d=""
         id="path" /><path
         style="fill:#483e37;stroke:#1a1a1a;stroke-width:10;stroke-linejoin:round;stroke-dasharray:none"
         d="m 601,812 h -61 l -20,-42 -3,-39 23,-42 52,-46 32,7 6,-29 36,16 26,-32 26,-23 -23,-13 29,-29 30,3 29,-3 22,19 10,16 46,17 204,233 -4,68 -22,-6 -7,38 4,23 h -36 z"
         id="path13" /><path
         style="fill:#483e37;stroke:#1a1a1a;stroke-width:10;stroke-linejoin:round;stroke-dasharray:none"
         d="m 601,814 408,136 7,35 3,23 -26,-13 -16,16 -39,49 -49,10 -12,-23 -46,3 -13,23 -26,6 7,-32 19,-19 h -29 l -185,-78 -32,-26 -19,19 -23,10 -23,-13 -9,-19 3,-23 6,-23 7,-39 32,-19 26,6 z"
         id="path12" /><path
         style="fill:#483e37;stroke:#1a1a1a;stroke-width:10;stroke-linejoin:round;stroke-dasharray:none"
         d="m 873,603 201,230 17,-20 26,23 22,-23 7,-32 9,-26 49,-26 23,-19 35,-78 -25,-23 -30,10 -3,-26 -19,-16 13,-29 -13,-16 -7,19 -26,-3 10,-29 -13,-17 h -42 l -23,30 -13,-10 -35,23 -7,-30 -39,4 -133,42 26,16 z"
         id="path14" /><path
         style="fill:#483e37;stroke:#1a1a1a;stroke-width:10;stroke-linejoin:round;stroke-dasharray:none"
         d="m 679,1394 58,-62 v -26 l 23,-26 -13,-22 -26,32 -62,16 -32,-13 -279,-45 -58,10 -23,16 10,19 26,-3 16,23 32,16 13,-36 10,39 32,20 39,-26 7,19 h 26 l 55,7 v 45 l 26,3 19,13 26,-22 v 26 l 33,9 10,-32 z"
         id="path7" /><path
         style="fill:#483e37;stroke:#1a1a1a;stroke-width:10;stroke-linejoin:round;stroke-dasharray:none"
         d="m 510,1271 117,19 20,-48 32,-26 10,45 9,26 33,-26 16,-45 -19,-20 -20,-3 -10,-29 26,-33 7,-16 -16,-32 29,-26 32,3 13,-36 -175,-68 z"
         id="path8" /><path
         style="fill:#483e37;stroke:#1a1a1a;stroke-width:10;stroke-linejoin:round;stroke-dasharray:none"
         d="m 507,1271 -165,-26 -10,-29 -13,-20 -29,-13 16,-26 16,-19 -3,-23 -3,-36 175,-113 23,-3 22,-3 43,-13 38,16 z"
         id="path9" /><path
         style="fill:#483e37;stroke:#1a1a1a;stroke-width:10;stroke-linejoin:round;stroke-dasharray:none"
         d="m 319,1070 166,-110 -4,-29 4,-20 -17,-13 -19,16 -29,20 h -52 -23 l -26,-10 -32,-16 -52,-10 -6,23 -17,13 17,22 -17,20 -3,26 10,32 32,-19 33,3 22,29 z"
         id="path10" /><path
         style="fill:#483e37;stroke:#1a1a1a;stroke-width:10;stroke-linejoin:round;stroke-dasharray:none"
         d="m 332,914 23,-20 45,7 7,-56 -13,-35 3,-42 49,6 9,-37 17,-19 -23,-23 -10,-28 -6,-56 -26,-25 -13,26 -26,52 -10,26 -19,19 -4,29 h 23 l -32,26 -26,30 -33,3 -3,23 33,-7 9,16 -71,23 -26,-3 -13,19 26,13 42,3 z"
         id="path11" /><path
         style="fill:#483e37;stroke:#1a1a1a;stroke-width:10;stroke-linejoin:round;stroke-dasharray:none"
         d="m 741,1326 -59,68 4,26 -30,32 v 26 l 20,-6 -13,32 6,26 149,-68 10,-123 -32,-13 -16,19 -17,-13 z"
         id="path4" /><path
         style="fill:#483e37;stroke:#1a1a1a;stroke-width:10;stroke-linejoin:round;stroke-dasharray:none"
         d="m 818,1465 10,-126 23,-13 19,-10 -3,-23 16,-13 -6,-25 29,-57 h 23 l 6,19 26,-13 19,-9 -3,-26 -13,-20 65,-65 32,7 33,3 3,19 36,-19 13,19 -26,17 23,13 h 22 l 3,32 -6,45 -152,179 z"
         id="path5" /><path
         style="fill:#483e37;stroke:#1a1a1a;stroke-width:10;stroke-linejoin:round;stroke-dasharray:none"
         d="m 1162,1214 26,-6 10,35 13,23 -42,23 9,26 -45,19 13,29 13,39 16,39 v 20 l 16,13 -13,32 7,23 26,100 -23,7 h -29 l -23,-23 7,52 13,32 -13,33 -33,-85 -9,-48 -4,-81 -22,29 -10,-29 -23,-55 -26,-68 z"
         id="path6" /><path
         style="fill:#483e37;stroke:#1a1a1a;stroke-width:10;stroke-linejoin:round;stroke-dasharray:none"
         d="m 1007,1396 23,58 -17,29 -230,136 -6,23 -23,7 7,35 -20,13 -19,39 -23,10 -16,-39 -7,26 h -22 l -23,19 h -23 l -10,49 -19,-19 -19,-10 v -49 l 26,-23 19,-48 19,16 45,-10 -16,-19 16,-17 v -38 l -9,-26 19,-30 136,-64 z"
         id="path3" /><path
         style="fill:#483e37;stroke:#1a1a1a;stroke-width:10;stroke-linecap:round;stroke-linejoin:round;stroke-dasharray:none"
         d="m 1023,1478 19,49 10,58 9,42 -19,36 7,55 -133,23 -46,-7 -9,-19 -20,-13 -10,-26 -39,-20 v -38 z"
         id="path2" /><path
         style="fill:#483e37;stroke:#1a1a1a;stroke-width:10;stroke-linejoin:round;stroke-dasharray:none"
         d="m 912,1744 140,-23 -3,29 -30,39 -19,49 3,45 -6,39 -20,-58 -13,16 -22,-19 -33,-46 -6,-32 z"
         id="path1" /><path
         style="fill:#483e37;stroke:#1a1a1a;stroke-width:10;stroke-linejoin:round;stroke-dasharray:none"
         d="m 1454,803 -7,-68 -22,-7 v -22 l -26,-20 -10,-32 -16,29 v 55 l -46,-16 -25,13 22,29 -13,26 16,19 23,10 26,38 32,7 16,3 13,-39 z"
         id="path25" /><path
         style="fill:#483e37;stroke:#1a1a1a;stroke-width:10;stroke-linejoin:round;stroke-dasharray:none"
         d="m 1447,736 3,-62 182,98 -29,19 -3,65 16,29 h -26 l -72,10 -6,-33 -26,10 v -29 l -29,-26 z"
         id="path24" /><path
         style="fill:#483e37;stroke:#1a1a1a;stroke-width:10;stroke-linecap:round;stroke-linejoin:round;stroke-dasharray:none"
         d="m 1460,916 -81,26 -19,26 -7,35 26,13 49,-16 h 42 l 29,-39 84,52 20,-16 -42,-42 -68,-36 z"
         id="path26" /><path
         style="fill:#483e37;stroke:#1a1a1a;stroke-width:10;stroke-linejoin:round;stroke-dasharray:none"
         d="m 1635,773 62,-10 29,-23 29,-25 62,-39 35,-59 39,13 20,-35 -7,-20 33,-19 -4,-29 -32,-17 -23,29 -55,-16 -39,10 -19,-16 v 29 l 35,23 -25,36 -33,-7 -16,-36 -29,10 -33,-23 -26,23 -32,-19 16,-36 -29,-29 -39,29 -39,-3 -19,-39 -36,3 3,33 23,16 -23,55 -9,55 -7,42 z"
         id="path23" /><path
         style="fill:#483e37;stroke:#1a1a1a;stroke-width:10;stroke-linejoin:round;stroke-dasharray:none"
         d="m 1975,545 30,6 3,-23 -10,-51 -39,-20 -22,16 6,33 16,26 z"
         id="path22" /><path
         style="fill:#483e37;stroke:#1a1a1a;stroke-width:10;stroke-linejoin:round;stroke-dasharray:none"
         d="m 2001,462 26,-13 39,3 65,16 84,-16 -3,-42 -29,-32 -7,-42 -32,-49 -16,-29 32,-29 -13,-30 v -58 l 26,29 26,-16 -13,-120 h -20 l -29,49 -6,39 -26,61 h -26 v -39 l -19,26 -10,49 13,23 3,35 -39,-6 -26,22 -9,-35 -20,6 -3,55 -6,39 32,23 v 32 29 z"
         id="path20" /><path
         style="fill:#483e37;stroke:#1a1a1a;stroke-width:10;stroke-linejoin:round;stroke-dasharray:none"
         d="m 2131,468 87,-16 4,26 -26,33 16,9 6,13 -22,26 13,23 -162,10 -20,-33 33,-19 42,-10 26,-30 z"
         id="path21" /><path
         style="fill:#483e37;stroke:#1a1a1a;stroke-width:10;stroke-linejoin:round;stroke-dasharray:none"
         d="m 491,556 32,10 17,-17 13,-19 16,-16 19,16 33,-6 6,-49 23,-16 -7,-20 h -22 l -29,10 -33,16 -3,-52 -26,-16 -16,-23 -33,33 -9,35 -17,26 -19,20 16,32 23,16 z"
         id="path15" /><path
         style="fill:#483e37;stroke:#1a1a1a;stroke-width:10;stroke-linejoin:round;stroke-dasharray:none"
         d="m 659,408 -22,-3 6,-29 -19,-29 -7,-23 -13,-32 10,-20 16,26 23,16 16,26 26,7 32,-16 23,-55 -19,-30 9,-19 26,13 h 23 l 23,26 22,26 42,13 23,-4 42,-84 17,-16 6,26 -29,58 13,16 13,26 26,-9 19,19 7,39 h 19 l 16,-16 7,-52 9,-19 17,12 3,33 -3,29 -23,16 -23,26 -6,39 -23,16 -6,55 -140,46 -16,-36 -35,-13 -10,29 -32,-9 -23,-13 3,-30 17,-16 -39,-39 v -25 l -7,-26 -16,29 -7,-23 -22,-19 z"
         id="path16" /><path
         style="fill:#483e37;stroke:#1a1a1a;stroke-width:10;stroke-linejoin:round;stroke-dasharray:none"
         d="m 1104,504 42,-6 9,-20 -16,-36 4,-25 3,-36 -13,-20 -13,39 -20,-3 -26,16 -9,39 26,26 z"
         id="path17" /><path
         style="fill:#483e37;stroke:#1a1a1a;stroke-width:10;stroke-linejoin:round;stroke-dasharray:none"
         d="m 1130,324 45,3 26,-9 23,-26 39,-7 13,-29 29,23 48,-52 17,-16 -23,-17 v -29 l -26,-9 -29,13 v -23 l -33,-23 -29,7 -26,45 -19,23 -23,9 -6,27 -23,45 z"
         id="path18" /><path
         style="fill:#483e37;stroke:#1a1a1a;stroke-width:10;stroke-linejoin:round;stroke-dasharray:none"
         d="m 1382,223 h 23 l 16,16 23,17 h 29 l 20,13 6,32 26,16 6,26 17,20 22,-13 17,19 9,-19 29,32 13,-16 30,13 9,26 23,13 13,-23 10,45 39,13 19,-29 16,-23 h 16 l 10,30 20,-13 -4,-20 20,-6 22,-7 36,7 10,-46 -13,-32 -20,-3 -6,-26 -32,-10 h -33 l -16,10 -23,-10 -9,20 -36,-4 -13,-22 -20,-17 -16,-13 -29,-6 -29,-6 h -32 l -23,19 -10,-19 -19,-13 -26,-10 -16,-13 -23,-6 -36,6 -32,3 -36,-9 z"
         id="path19" /><path
         style="fill:#483e37;stroke:#1a1a1a;stroke-width:10;stroke-linejoin:round;stroke-dasharray:none"
         d="m 2044,598 171,-13 -75,337 -168,-88 h -42 l -26,-3 -17,-29 39,-29 h -39 l -54,55 -49,10 -3,-39 23,-3 45,-26 10,-20 -10,-19 39,-7 16,-19 33,-29 58,19 68,-3 26,-16 6,-49 -26,20 -3,-33 z"
         id="path31" /><path
         style="fill:#483e37;stroke:#1a1a1a;stroke-width:10;stroke-linejoin:round;stroke-dasharray:none"
         d="m 2212,590 33,16 -13,36 25,23 17,25 29,10 -3,23 -26,3 3,23 -3,35 3,30 23,6 19,-13 20,26 3,29 29,10 6,39 10,16 -19,23 9,22 -84,33 -19,-29 -26,3 -20,-13 h -22 l -26,-3 -26,-3 -16,-39 z"
         id="path32" /><path
         style="fill:#483e37;stroke:#1a1a1a;stroke-width:10;stroke-linejoin:round;stroke-dasharray:none"
         d="m 2128,919 3,36 -13,29 -13,32 -104,23 -29,36 h -29 v -20 l -19,-10 -39,10 -23,3 -3,-22 16,-13 -16,-16 -7,-17 17,-26 v -22 l -20,-17 -19,13 -4,-25 -22,-20 -4,-29 4,-23 35,-6 30,-13 19,29 26,-13 39,13 19,-10 z"
         id="path30" /><path
         style="fill:#483e37;stroke:#1a1a1a;stroke-width:10;stroke-linejoin:round;stroke-dasharray:none"
         d="m 2092,1019 7,43 29,-4 6,52 4,26 9,29 4,68 h 22 l 3,26 -22,10 v 45 l -10,30 -23,-7 -3,33 -23,3 -35,13 -33,-7 v -32 l -32,3 h -29 l -23,-29 -32,-13 -17,13 -42,-3 -29,-81 -6,-26 6,-36 20,-29 16,-16 35,-26 30,3 13,-23 32,7 v 29 l 16,-3 3,-36 26,-10 -9,-35 z"
         id="path29" /><path
         style="fill:#483e37;stroke:#1a1a1a;stroke-width:10;stroke-linejoin:round;stroke-dasharray:none"
         d="m 1852,1326 -13,19 -26,-9 -13,55 10,26 -48,9 -20,17 -26,12 h -26 l -13,-29 -32,-22 -23,-26 -6,-26 16,-26 3,-20 20,-16 6,-61 20,-17 h 107 l 35,26 z"
         id="path28" /><path
         style="fill:#483e37;stroke:#1a1a1a;stroke-width:10;stroke-linejoin:round;stroke-dasharray:none"
         d="m 1677,1212 114,-3 9,-55 -22,-6 -20,3 -26,-13 26,-23 20,3 38,17 20,-36 -16,-13 -29,-20 -26,-3 -17,-29 -26,26 17,26 -23,19 -10,26 -6,20 -16,-29 -33,-7 -32,10 3,52 29,-4 30,7 z"
         id="path27" /><path
         style="fill:#483e37;stroke:#1a1a1a;stroke-width:10;stroke-linejoin:round;stroke-dasharray:none"
         d="m 2293,1007 87,-30 26,-9 7,42 22,13 17,-7 13,29 26,4 16,19 16,13 16,-3 20,26 26,3 16,19 26,-3 26,10 9,23 v 35 l -6,23 -36,6 -45,7 -45,-23 -10,23 -10,29 -52,49 -38,3 -23,-23 -16,26 -46,7 -58,-78 10,-23 -13,-19 9,-20 -29,-19 -9,-16 25,-23 -13,-19 20,-36 23,-16 z"
         id="path33" /><path
         style="fill:#483e37;stroke:#1a1a1a;stroke-width:10;stroke-linejoin:round;stroke-dasharray:none"
         d="m 2270,1233 65,91 10,33 10,32 29,10 -3,26 -7,22 16,23 -3,20 -29,6 -3,13 -23,-26 -13,-32 -13,-20 -29,13 -7,-26 -19,-16 -23,-10 v -29 l 13,-29 v -20 l -26,-16 26,-32 z"
         id="path34" /><path
         style="fill:#483e37;stroke:#1a1a1a;stroke-width:10;stroke-linejoin:round;stroke-dasharray:none"
         d="m 2462,1297 9,55 13,16 -6,26 36,-3 12,42 10,39 3,19 104,-19 -10,-46 7,-19 -3,-23 h -23 l -6,-23 -20,-16 -3,-22 -26,-4 6,-22 -3,-23 -19,-16 -23,-10 z"
         id="path35" /><path
         style="fill:#483e37;stroke:#1a1a1a;stroke-width:10;stroke-linejoin:round;stroke-dasharray:none"
         d="m 2536,1496 107,-23 29,20 30,-7 9,29 23,13 10,39 -7,36 -26,-13 -22,16 -20,20 -13,26 -19,-30 -20,-6 -16,-32 -10,-46 z"
         id="path36" /><path
         style="fill:#483e37;stroke:#1a1a1a;stroke-width:10;stroke-linejoin:round;stroke-dasharray:none"
         d="m 2695,1131 52,46 42,29 32,19 39,-22 39,-30 3,-22 26,-20 v -19 l 33,10 22,-36 -55,-88 -35,-3 -26,26 -33,-3 -29,10 -22,26 -23,-17 -23,13 7,46 6,32 -19,-13 -20,-3 z"
         id="path37" /><path
         style="fill:#483e37;stroke:#1a1a1a;stroke-width:10;stroke-linejoin:round;stroke-dasharray:none"
         d="m 2987,1156 26,19 26,10 29,-13 26,-13 13,-16 39,-13 16,-42 -16,-17 h -20 l -32,-6 -33,10 -39,26 -13,29 -22,3 z"
         id="path38" /><path
         style="fill:#483e37;stroke:#1a1a1a;stroke-width:10;stroke-linejoin:round;stroke-dasharray:none"
         d="m 2995,1081 h 16 l 20,-32 36,-10 48,-10 29,7 20,13 16,-36 62,10 -17,-36 -149,-149 -55,10 -23,3 -35,29 13,52 -7,42 -39,23 z"
         id="path39" /><path
         style="fill:#483e37;stroke:#1a1a1a;stroke-width:10;stroke-linejoin:round;stroke-dasharray:none"
         d="m 3301,1123 29,36 20,-10 35,13 10,26 29,20 10,35 32,7 33,-20 -3,-22 29,-20 -7,-26 16,-19 -16,-33 v -22 l -16,-17 -23,-16 -39,7 -32,29 -29,-10 -32,-10 -20,20 z"
         id="path40" /><path
         style="fill:#483e37;stroke:#1a1a1a;stroke-width:10;stroke-linejoin:round;stroke-dasharray:none"
         d="m 3227,982 32,-19 6,-26 26,-10 26,-13 13,-23 7,-32 -16,-26 -30,-16 -13,-29 -139,9 -23,33 -42,10 z"
         id="path41" /><path
         style="fill:#483e37;stroke:#1a1a1a;stroke-width:10;stroke-linejoin:round;stroke-dasharray:none"
         d="m 3139,789 139,-3 23,-29 13,-13 -3,-16 -3,-23 29,7 32,3 46,13 48,16 10,-23 -16,-19 h -29 l -59,-36 -45,-19 -282,32 16,42 19,23 23,-7 20,23 z"
         id="path43" /><path
         style="fill:#483e37;stroke:#1a1a1a;stroke-width:10;stroke-linejoin:round;stroke-dasharray:none"
         d="m 3314,744 20,-26 38,26 46,3 h 26 l 26,13 16,-19 26,13 26,3 -13,55 -42,10 -30,6 -29,-9 -52,3 -32,-20 -19,-29 z"
         id="path42" /><path
         style="fill:#483e37;stroke:#1a1a1a;stroke-width:10;stroke-linejoin:round;stroke-dasharray:none"
         d="m 3048,674 279,-29 45,4 13,-26 16,-30 10,-22 -23,-16 -29,3 -39,3 -22,-19 -10,-23 -3,-23 -29,7 -205,-10 -26,26 -22,26 6,42 -23,19 1,46 48,-4 z"
         id="path44" /><path
         style="fill:#483e37;stroke:#1a1a1a;stroke-width:10;stroke-linejoin:round;stroke-dasharray:none"
         d="m 3061,489 207,10 -13,-26 h 36 l -7,-22 10,-26 19,-7 v -23 l 4,-22 22,-3 -6,-23 -49,-29 -26,-7 -6,36 h -20 l -19,19 -55,-6 -13,-97 -10,-36 13,-23 -49,10 -38,-3 -17,-26 -9,45 -20,-13 -10,-42 -25,10 9,61 -25,30 10,29 13,29 22,19 46,-16 19,104 -16,23 z"
         id="path45" /><path
         style="fill:#483e37;stroke:#1a1a1a;stroke-width:10;stroke-linejoin:round;stroke-dasharray:none"
         d="m 2951,875 32,-26 39,-32 -29,-26 36,-26 -23,-23 -10,-29 7,-26 -45,-22 -20,-33 -26,-16 -3,36 -32,-10 -13,-20 -30,10 -6,36 -13,9 6,36 v 36 l -6,26 19,32 17,23 55,39 z"
         id="path46" /><path
         style="fill:#483e37;stroke:#1a1a1a;stroke-width:10;stroke-linejoin:round;stroke-dasharray:none"
         d="m 2802,665 22,-16 -3,-26 62,-33 -7,-45 -13,-39 -22,23 -7,26 -55,-23 -136,-46 -32,-22 -33,-16 -23,29 -26,-7 -12,33 19,19 19,-19 17,22 13,33 19,29 55,13 55,32 13,26 23,7 26,-17 z"
         id="path47" /><path
         style="fill:#483e37;stroke:#1a1a1a;stroke-width:10;stroke-linejoin:round;stroke-dasharray:none"
         d="m 2773,524 -127,-39 -13,-17 -19,-35 -19,-20 -26,10 -13,-26 -7,-23 -45,-16 16,-26 29,13 29,33 26,13 h 36 l 19,-23 13,-13 -6,-32 -33,-33 7,-26 29,-19 29,6 20,16 26,-9 16,-23 -29,-29 55,-59 26,52 -20,20 10,42 3,52 7,42 32,36 v 32 l 23,29 -13,26 -20,36 -29,-29 -3,32 z"
         id="path48" /><path
         style="fill:#483e37;stroke:#1a1a1a;stroke-width:10;stroke-linejoin:round;stroke-dasharray:none"
         d="m 2582,580 81,26 51,26 -3,33 -19,32 10,49 19,35 -45,16 -52,10 -29,16 -10,-22 -20,-33 -9,-29 -36,3 -16,-13 19,-35 42,-10 26,-26 v -23 l -22,7 -20,-7 3,-22 z"
         id="path49" /><path
         style="fill:#483e37;stroke:#1a1a1a;stroke-width:10;stroke-linejoin:round;stroke-dasharray:none"
         d="m 2514,749 -20,-19 -35,-7 -36,-19 -19,22 -39,-9 -26,-30 h -20 l -3,30 26,16 26,26 -7,35 13,20 33,-23 9,29 10,23 32,-10 h 33 l -7,-45 42,-10 z"
         id="path50" /><path
         style="fill:#483e37;stroke:#1a1a1a;stroke-width:10;stroke-linecap:round;stroke-linejoin:round;stroke-dasharray:20, 20;stroke-dashoffset:0"
         d="m 1218.246,1435.7899 343.7193,-56.5614"
         id="path51" /><path
         style="fill:#483e37;stroke:#1a1a1a;stroke-width:10;stroke-linecap:round;stroke-linejoin:round;stroke-dasharray:20, 20;stroke-dashoffset:0"
         d="m 1205.1933,1079.0178 104.4211,-56.5614"
         id="path52" /><path
         style="fill:#483e37;stroke:#1a1a1a;stroke-width:10;stroke-linecap:round;stroke-linejoin:round;stroke-dasharray:20, 20;stroke-dashoffset:0"
         d="m 1609.825,1018.1055 65.2632,69.6141"
         id="path53" /><path
         style="fill:#483e37;stroke:#1a1a1a;stroke-width:10;stroke-linecap:round;stroke-linejoin:round;stroke-dasharray:20, 20;stroke-dashoffset:0"
         d="m 1576.7245,904.50147 -35.3802,25.38142"
         id="path55" /><path
         style="fill:#483e37;stroke:#1a1a1a;stroke-width:10;stroke-linecap:round;stroke-linejoin:round;stroke-dasharray:20, 20;stroke-dashoffset:0"
         d="m 1393.6706,873.73612 13.8444,41.53323"
         id="path56" /><path
         style="fill:#483e37;stroke:#1a1a1a;stroke-width:10;stroke-linecap:round;stroke-linejoin:round;stroke-dasharray:20, 20;stroke-dashoffset:0"
         d="m 3202.6736,1033.716 86.143,55.3776"
         id="path57" /><path
         style="fill:#483e37;stroke:#1a1a1a;stroke-width:10;stroke-linecap:round;stroke-linejoin:round;stroke-dasharray:20, 20;stroke-dashoffset:0"
         d="M 3547.2456,781.44005 H 3670.307"
         id="path58" /><path
         style="fill:#483e37;stroke:#1a1a1a;stroke-width:10;stroke-linecap:round;stroke-linejoin:round;stroke-dasharray:20, 20;stroke-dashoffset:0"
         d="M 290.42113,769.01776 H 53.298261"
         id="path60" /></g></g></svg>
