<svg width="1344" height="772" viewBox="0 0 1344 772" fill="none" xmlns="http://www.w3.org/2000/svg">
<mask id="path-1-inside-1_130_3595" fill="white">
<path fill-rule="evenodd" clip-rule="evenodd" d="M715.519 85.3592L685.087 93.1621L685.036 94.0978L674.464 90.9095H649.731L649.706 90.9238L630.031 82.0233L627.945 85.8967L620.205 79.8151L588.372 72.9545H570.418L565.968 70.264L558.901 67.5236L551.227 61.0875L530.179 56.4101L516.591 58.3794L509.179 53.6376H496.189L471.306 45.8313L449.5 31.7284L414.144 40.2628L398.716 65.8776L397.606 67.2506L383.111 73.3186L377.255 94.0074L361.312 82.6925L359.474 85.9304L348.401 38.8703L299.978 79.9568L293.591 92.8833L280.453 77.6787H264.661L235.299 63.5853L219.542 93.4422L199.025 60.1915L168.583 116.51L166.235 113.355L123.289 154.98L118.819 172.363L117.327 174.921L98.2014 195.413L102.215 204.588L79.8683 248.433L77.9124 253.58L68.1801 263.575L66.0942 280.859L42.5468 283.032L40.6294 299.522L32.3975 298.572L0 348.518L17.3385 357.881L9.04603 365.067L18.9865 379.315L17.4069 399.85L35.0696 451.156L58.0513 438.389L37.4029 476.626L43.3783 479.771L30.0049 488.464L56.6361 537.922L69.833 536.547L71.2667 538.261L117.777 561.924L118.17 560.845L122.661 563.496L134.786 555.465H139.89V570.397L169.027 574.967L186.384 585.551V595.222L184.383 593.654L164.628 642.001L150.74 655.056L149.738 703.684L168.805 714.806L212.009 755.736L221.521 712.707L262.835 697.439L269.013 684.924L270.25 685.728L276.512 699.356L281.065 700.097L283.622 714.977L302.101 740.735L317.088 753.979L323.195 771.114H371.614L378.012 730.165L376.957 716.289L380.182 708.266L382.192 705.643L399.108 748.062L437.174 660.651L461.945 652.193L445.336 588.352L454.841 564.956L442.407 554.783L435.64 537.19L450.01 530.985L446.271 518.834L467.732 507.081L448.935 474.859L441.514 446.823L439.316 438.517L437.993 438.115L436.274 419.202H425.214L406.626 391.691L392.889 398.85L391.861 390.624L396.634 391.76L398.508 367.027L426.947 339.206L430.008 323.136L431.26 322.51L451.064 346.935L454.969 348.68L433.574 397.888L465.081 431.646L508.297 436.884L529.709 428.697L549.59 437.035L553.471 493.58L558.816 493.212L556.534 506.904L546.779 522.276L554.031 552.96L570.334 569.971L578.019 575.46L588.014 597.234H624.075L643.544 587.699L647.738 583.819L691.702 576.492L682.526 548.963L684.59 546.264L688.201 546.469L695.869 555.97L705.675 556.67L705.961 562.594L706.289 562.664L748.377 571.729L754.289 570.084L767.691 565.283L782.38 562.529L800.184 571.233L809.865 603.301L826.493 596.3L869.83 643.325L882.532 608.392L897.659 605.15L899.454 591.147L901.434 600.715L920.548 615.287L922.646 625.335L936.133 652.31L946.089 655.71L977.197 701.176L999.63 654.441L1024.8 666.284L1036.42 608.193L1026.95 575.669L1018.32 569.915L1009.41 544.128L996.291 546.842L990.781 511.422L976.093 510.769L974.195 509.12L973.562 506.169L996.1 502.436L998.596 493.7L1003.77 497.614L1035.27 513.963L1065.35 497.297L1084.98 482.133L1093.33 487.553L1117.84 498.123L1158.01 478.943L1161.47 474.179L1181.35 467.297L1186.44 451.845L1217.17 490.395L1228.87 485.968L1236.37 491.836L1242.74 512.764L1284.88 521.702L1323.64 496.059L1322.27 486.885L1332.6 478.809L1330.31 463.136L1338.28 449.952L1327.94 429.582V418.602L1313.9 399.514L1289.78 384.671L1255.47 389.703L1249.34 395.456L1234.21 390.453L1245.22 385.389L1255.17 364.126L1257.02 357.177L1259.25 357.003L1273.01 361.362L1326.64 348.326L1343.14 272.727H1305.71L1290.01 252.315H1281.26L1295.81 223.594L1257.89 196.017L1246.61 196.853L1250.64 195.265V183.8L1267.37 180.872L1253.97 128.388L1222.13 109.759L1187.69 99.8255L1206.54 54.204L1140.83 66.9219L1104.53 17.8132L1096.04 54.4372L1061.39 67.1657L1065.25 93.0502L1028.61 21.931L975.608 78.3666L971.417 77.3938L940.223 98.3694L935.549 116.063L909.007 104.422L870.832 167.226L890.834 174.955L885.625 176.758L896.665 182.593L886.359 213.019L905.402 235.524L905.279 235.664L901.179 257.702L901.146 257.752L877.015 245.522L871.073 252.378L865.147 245.923L847.971 246.852L853.01 231.313L840.973 224.831L842.041 223.585L836.319 211.187L840.368 206.203L832.687 158.368L821.828 146.176L819.56 132.727L810.957 119.753L820.26 110.599L815.96 100.207L831.553 91.0344L821.225 0H770.689L755.045 24.6591L719.294 67.5606L715.519 85.3592ZM1089.51 188.458L1079.53 201.941L1080.18 203.712L1094.05 191.037L1093.36 184.483L1095.71 180.995L1073.35 162.526V167.03L1089.51 188.458ZM1057.03 108.473L1066.11 98.8965L1066.41 100.912L1057.62 111.47L1057.54 110.611L1057.03 108.473ZM1059.04 127.117L1060.05 138.234L1063.94 142.609L1059.04 127.117ZM972.916 414.016L970.85 397.724L1013.58 374.418L1018.49 377.877L1034.8 371.01L1041.05 371.587L1045.74 367.156L1022.75 350.616L1014.48 337.591L987.912 347.226L970.679 350.907L935.436 370.074L931.799 362.118H903.962L904.604 365.216L910.639 362.839L920.774 385.059L925.503 385.862L932.213 393.411L940.611 391.884L951.991 406.317L961.541 407.578L964.815 411.507L966.18 411.404L972.916 414.016ZM454.493 153.383L446.292 155.17L438.736 163.048L431.244 165.641L430.402 176.59L429.924 179.933L435.815 193.994L455.662 219.63L454.125 223.41L472.658 240.091L491.429 207.242V172.06L525.974 167.808L519.264 159.756L518.449 156.127L509.179 150.675L507.255 142.979L504.049 142.712L503.574 142.402L502.05 152.236L489.525 135.823L467.15 162.266L454.493 153.383ZM617.755 377.917L602.66 391.873L595.322 379.643L617.755 377.917ZM612.823 335.427L614.025 352.966L605.217 336.565L612.823 335.427ZM286.505 451.515L286.497 451.501L275.191 453.676L282.931 458.663L286.505 451.515Z"/>
</mask>
<path fill-rule="evenodd" clip-rule="evenodd" d="M715.519 85.3592L685.087 93.1621L685.036 94.0978L674.464 90.9095H649.731L649.706 90.9238L630.031 82.0233L627.945 85.8967L620.205 79.8151L588.372 72.9545H570.418L565.968 70.264L558.901 67.5236L551.227 61.0875L530.179 56.4101L516.591 58.3794L509.179 53.6376H496.189L471.306 45.8313L449.5 31.7284L414.144 40.2628L398.716 65.8776L397.606 67.2506L383.111 73.3186L377.255 94.0074L361.312 82.6925L359.474 85.9304L348.401 38.8703L299.978 79.9568L293.591 92.8833L280.453 77.6787H264.661L235.299 63.5853L219.542 93.4422L199.025 60.1915L168.583 116.51L166.235 113.355L123.289 154.98L118.819 172.363L117.327 174.921L98.2014 195.413L102.215 204.588L79.8683 248.433L77.9124 253.58L68.1801 263.575L66.0942 280.859L42.5468 283.032L40.6294 299.522L32.3975 298.572L0 348.518L17.3385 357.881L9.04603 365.067L18.9865 379.315L17.4069 399.85L35.0696 451.156L58.0513 438.389L37.4029 476.626L43.3783 479.771L30.0049 488.464L56.6361 537.922L69.833 536.547L71.2667 538.261L117.777 561.924L118.17 560.845L122.661 563.496L134.786 555.465H139.89V570.397L169.027 574.967L186.384 585.551V595.222L184.383 593.654L164.628 642.001L150.74 655.056L149.738 703.684L168.805 714.806L212.009 755.736L221.521 712.707L262.835 697.439L269.013 684.924L270.25 685.728L276.512 699.356L281.065 700.097L283.622 714.977L302.101 740.735L317.088 753.979L323.195 771.114H371.614L378.012 730.165L376.957 716.289L380.182 708.266L382.192 705.643L399.108 748.062L437.174 660.651L461.945 652.193L445.336 588.352L454.841 564.956L442.407 554.783L435.64 537.19L450.01 530.985L446.271 518.834L467.732 507.081L448.935 474.859L441.514 446.823L439.316 438.517L437.993 438.115L436.274 419.202H425.214L406.626 391.691L392.889 398.85L391.861 390.624L396.634 391.76L398.508 367.027L426.947 339.206L430.008 323.136L431.26 322.51L451.064 346.935L454.969 348.68L433.574 397.888L465.081 431.646L508.297 436.884L529.709 428.697L549.59 437.035L553.471 493.58L558.816 493.212L556.534 506.904L546.779 522.276L554.031 552.96L570.334 569.971L578.019 575.46L588.014 597.234H624.075L643.544 587.699L647.738 583.819L691.702 576.492L682.526 548.963L684.59 546.264L688.201 546.469L695.869 555.97L705.675 556.67L705.961 562.594L706.289 562.664L748.377 571.729L754.289 570.084L767.691 565.283L782.38 562.529L800.184 571.233L809.865 603.301L826.493 596.3L869.83 643.325L882.532 608.392L897.659 605.15L899.454 591.147L901.434 600.715L920.548 615.287L922.646 625.335L936.133 652.31L946.089 655.71L977.197 701.176L999.63 654.441L1024.8 666.284L1036.42 608.193L1026.95 575.669L1018.32 569.915L1009.41 544.128L996.291 546.842L990.781 511.422L976.093 510.769L974.195 509.12L973.562 506.169L996.1 502.436L998.596 493.7L1003.77 497.614L1035.27 513.963L1065.35 497.297L1084.98 482.133L1093.33 487.553L1117.84 498.123L1158.01 478.943L1161.47 474.179L1181.35 467.297L1186.44 451.845L1217.17 490.395L1228.87 485.968L1236.37 491.836L1242.74 512.764L1284.88 521.702L1323.64 496.059L1322.27 486.885L1332.6 478.809L1330.31 463.136L1338.28 449.952L1327.94 429.582V418.602L1313.9 399.514L1289.78 384.671L1255.47 389.703L1249.34 395.456L1234.21 390.453L1245.22 385.389L1255.17 364.126L1257.02 357.177L1259.25 357.003L1273.01 361.362L1326.64 348.326L1343.14 272.727H1305.71L1290.01 252.315H1281.26L1295.81 223.594L1257.89 196.017L1246.61 196.853L1250.64 195.265V183.8L1267.37 180.872L1253.97 128.388L1222.13 109.759L1187.69 99.8255L1206.54 54.204L1140.83 66.9219L1104.53 17.8132L1096.04 54.4372L1061.39 67.1657L1065.25 93.0502L1028.61 21.931L975.608 78.3666L971.417 77.3938L940.223 98.3694L935.549 116.063L909.007 104.422L870.832 167.226L890.834 174.955L885.625 176.758L896.665 182.593L886.359 213.019L905.402 235.524L905.279 235.664L901.179 257.702L901.146 257.752L877.015 245.522L871.073 252.378L865.147 245.923L847.971 246.852L853.01 231.313L840.973 224.831L842.041 223.585L836.319 211.187L840.368 206.203L832.687 158.368L821.828 146.176L819.56 132.727L810.957 119.753L820.26 110.599L815.96 100.207L831.553 91.0344L821.225 0H770.689L755.045 24.6591L719.294 67.5606L715.519 85.3592ZM1089.51 188.458L1079.53 201.941L1080.18 203.712L1094.05 191.037L1093.36 184.483L1095.71 180.995L1073.35 162.526V167.03L1089.51 188.458ZM1057.03 108.473L1066.11 98.8965L1066.41 100.912L1057.62 111.47L1057.54 110.611L1057.03 108.473ZM1059.04 127.117L1060.05 138.234L1063.94 142.609L1059.04 127.117ZM972.916 414.016L970.85 397.724L1013.58 374.418L1018.49 377.877L1034.8 371.01L1041.05 371.587L1045.74 367.156L1022.75 350.616L1014.48 337.591L987.912 347.226L970.679 350.907L935.436 370.074L931.799 362.118H903.962L904.604 365.216L910.639 362.839L920.774 385.059L925.503 385.862L932.213 393.411L940.611 391.884L951.991 406.317L961.541 407.578L964.815 411.507L966.18 411.404L972.916 414.016ZM454.493 153.383L446.292 155.17L438.736 163.048L431.244 165.641L430.402 176.59L429.924 179.933L435.815 193.994L455.662 219.63L454.125 223.41L472.658 240.091L491.429 207.242V172.06L525.974 167.808L519.264 159.756L518.449 156.127L509.179 150.675L507.255 142.979L504.049 142.712L503.574 142.402L502.05 152.236L489.525 135.823L467.15 162.266L454.493 153.383ZM617.755 377.917L602.66 391.873L595.322 379.643L617.755 377.917ZM612.823 335.427L614.025 352.966L605.217 336.565L612.823 335.427ZM286.505 451.515L286.497 451.501L275.191 453.676L282.931 458.663L286.505 451.515Z" fill="#7C7974" stroke="url(#paint0_linear_130_3595)" stroke-opacity="0.4" stroke-width="2" stroke-dasharray="24 8" mask="url(#path-1-inside-1_130_3595)"/>
<path fill-rule="evenodd" clip-rule="evenodd" d="M733.051 246.521L727.417 231.873L710.283 228.679L703.844 223.41L704.652 229.879L693.102 237.098L694.642 242.699L683.617 262.487L668.887 257.513L657.253 276.685L633.348 291.969L610.608 311.149L586.164 314.806L578.166 319.837L577.106 339.21L586.177 356.099L567.267 357.554L535.515 361.863L532.944 350.723L521.835 354.5V338.176L515.265 332.298L514.977 332.67L508.669 352.081L482.438 345.925L472.439 331.221L463.805 327.363L454.954 316.448L459.261 306.072L450.309 292.523L468.167 283.419L478.554 286.634V274.142L491.424 251.618L500.207 272.11L507.594 278.611L508.066 271.532L513.309 234.444L520.019 218.37L513.141 212.611V193.287L534.88 190.611L542.878 205.807L551.847 206.739L568.55 194.157L586.32 210.701L580.989 223.316L584.453 225.531L594.551 216.957L608.66 226.433L622.049 222.509L628.566 237.714L634.359 238.822L637.928 233.579L627.108 226.469V199.961L641.986 211.406L655.49 208.463L673.699 213.809L682.934 202.366L693.991 207.979L691.088 193.242L705.62 183.334L716.039 188.476L714.048 185.588V163.948L701.652 155.094L704.434 136.778L705.795 112.041L723.046 107.618L725.879 116.826L730.197 113.301L740.201 114.6L740.012 110.248L734.483 100.828L739.249 78.3573L756.814 57.28L757.822 79.8081L765.812 61.1156L767.959 45.4968L781.597 24H797.505L803.66 78.2513L786.684 88.2372L783.978 85.637V91.2161L789.612 104.833L778.25 116.012L782.355 123.496L794.453 141.743L797.023 156.98L807.813 169.095L812.68 199.404L805.243 208.558L806.928 209.738L811.507 219.659L803.657 228.818L806.675 234.854L821.716 242.953L816.822 258.044L823.665 264.329L829.553 272.404L837.443 275.302L837.917 271.306L852.841 270.5L864.092 282.755L872.516 284.717L880.591 275.401L897.871 284.159L908.748 286.371L916.432 274.702L932.391 270.171L936.402 266.16L922.605 261.449L925.378 246.546L938.5 231.614L937.803 230.271L933.328 219.173L930.935 216.315L923.399 222.343L911.154 207.871L917.975 187.732L929.311 190.348L934.089 184.014L926.929 170.552L924.609 163.159L903.953 155.178L916.316 134.838L933.22 142.252L943.647 154.575L952.372 158.568H961.253L965.983 152.865L969.65 148.953L968.351 142.461L954.713 128.823L958.829 113.24L973.864 103.131L988.192 106.457L994.704 111.152L999.48 109.407L1001.16 106.542L990.334 95.3067L1020.55 63.1347L1036.08 93.2765L1028.38 101.386L1031.5 114.497L1034.58 148.286L1047.07 162.314V175.065L1057.26 188.587L1050.22 198.089L1058.82 221.335L1061.97 243.38L1053.14 248.061L1057.3 254.307L1060.76 255.318L1062.68 241.677L1081.31 251.365L1088.61 264.28L1088.83 264.385V243.101L1097.4 236.499L1094.81 220.764L1116.9 200.579L1115.85 190.655L1121.54 182.214L1115.77 152.617L1102.09 157.024L1089.75 146.83L1084.31 134.639L1079.61 119.817L1089.45 108.016L1085.72 82.9575L1105.92 75.5363L1109.86 91.2755L1113.88 73.9296L1126.43 90.9142L1137.21 91.6238L1165.05 86.2359L1157.94 103.459L1161.12 116.034L1165.28 147.492L1178.37 149.173L1185.79 141.936H1190.35L1193.52 127.145L1210.31 131.987L1230.91 144.04L1235.41 161.699L1225.29 163.47L1224.35 167.251V178.937L1216 182.231L1214.16 187.985L1216.99 201.23L1214.05 201.405L1215.47 211.845L1218.33 217.994L1223.41 222.468L1248.6 220.602L1262.88 230.983L1245.55 265.189L1263.14 276.315H1275.9L1285.63 288.96L1283.82 292.834L1294.58 296.727H1311.05L1304.11 328.549L1271.57 336.456L1259.74 332.711L1239.64 334.288L1224.46 324.71L1215.9 310.652L1211.88 315.514L1214.4 321.464L1225.66 328.181L1234.09 341.462L1230.24 355.882L1224.92 367.257L1206.35 375.798L1203.03 385.386L1192.51 391.181L1199.39 409.848L1171.71 406.773L1163.93 422.116L1161.23 420.335L1167.13 426.807L1159.98 448.505L1144.21 453.966L1139.89 459.906L1115.04 471.768L1102.41 466.319L1087.93 456.915L1089.72 445.406L1088.01 448.204L1078.34 445.441L1078.04 447.571L1068.65 455.044L1066.94 463.977L1049.83 477.187L1032.61 486.731L1014.34 477.251L1000.43 466.72L977.377 444.83L988.597 431.289L997.151 432.414L994.431 410.952L1009.67 402.638L1016.77 407.639L1022.94 401.082L1036.29 395.46L1047.36 396.482L1057.5 386.9L1071.82 387.894L1082.67 381.216L1085.13 369.062L1082.22 353.325L1062 350.934L1038.24 333.84L1023.83 311.131L1026.65 297.433V285.239L1024.49 274.585L1015.83 268.944L1006.58 274.767L996.096 271.645L990.294 281.112L993.12 297.126L1003.27 315.296L978.995 324.101L959.978 328.163L944.279 336.7L938.672 324.434L930.015 309.236L927.899 303.007L923.798 303.223L929.14 314.644L911.971 319.365L913.62 338.118H896.719L880.232 342.864L873.246 328.893L872.454 326.469L861.924 332.885L852.477 318.713L854.448 306.345L847.553 299.311L839.164 293.607L838.802 295.964L832.362 296.981V300.384L831.268 313.328L832.22 319.359L834.755 319.952L843.789 314.532L855.921 329.623L857.001 338.42L867.9 342.367L870.318 359.733L875.173 368.094L868.013 377.3L868.562 379.014L880.128 376.421L884.035 395.267L887.087 397.011L895.963 393.514L901.928 406.591L910.881 408.111L918.121 416.256L921.525 419.331L928.414 418.079L936.894 428.834L946.817 430.144L952.004 436.37L960.28 435.745L973.171 440.744L978.459 452.906V468.808L974.907 481.24L938.387 487.29L925.282 480.737L924.278 482.995L923.801 484.855L930.534 487.741L940.15 496.345L941.491 507.344L940.807 510.616L948.029 512.237L950.118 521.986L957.176 528.115L958.778 534.125L967.798 534.526L970.104 549.35L967.681 556.805L970.131 569.634L977.656 574.732L991.322 571.904L995.984 585.398L1004.06 590.782L1009.44 609.255L1004.99 631.514L991.482 625.159L985.989 628.899L979.908 635.299L971.253 653.331L959.104 635.575L950.911 632.777L943.215 617.385L939.924 601.625L920.83 587.068L915.886 563.17L911.805 549.239L895.38 549.943L898.62 535.809L894.513 530.123L892.033 516.702L878.348 517.646L872.967 512.615L869.607 517.709L855.996 520.025L861.127 537.128L873.687 542.109L871.947 556.901L869.993 563.322L875.51 571.33L873.726 585.244L862.228 587.707L858.463 598.06L842.102 580.306L837.049 567.869L835.378 565.555L822.844 570.832L818.405 556.127L813.749 552.269L802.5 546.769V530.758L807.414 519.608V516.933L794.253 509.847L819.733 479.225L822.587 476.282L818.878 470.565L821.547 464.634L813.39 459.103L806.921 447.243L816.231 439.394L812.483 433.697L822.371 415.157L828.712 410.438L827.13 399.102L822.718 392.485L814.141 393.294L806.32 388.014H799.477L775.907 385.068L775.048 382.92L766.255 406.243L763.916 406.897L764.805 411.639H775.779L779.505 444.956L783.91 456.255L785.161 477.048L792.802 477.594L795.021 496.462L786.435 500.655V515.168L779.883 532.738L773.109 530.582L772.106 539.608L759.105 542.046L745.269 547.002L726.753 543.014L726.271 533.042L719.439 533.756L705.701 532.774L696.342 521.177L689.262 518.323L683.985 522.32L670.964 521.581L662.815 532.236L656.139 530.204L652.878 542.779L657.764 557.435L634.422 561.325L627.54 567.692L616.224 573.234H601.116L594.878 559.643L583.82 551.745L573.595 541.075L570.173 526.596L577.118 515.652L578.649 506.462L585.867 501.28L588.463 478.289L593.997 473.137L594.678 468.066L589.574 466.875L573.482 467.985L571.417 437.887L589.829 432.221L606.376 435.982L607.036 437.069L609.874 430.289L615.153 426.3L608.835 416.733L627.853 399.151L636.945 412.92L645.825 414.428L667.198 430.521L659.825 444.346L665.546 438.943L680.363 427.885L690.568 428.873L694.014 423.014V419.105L692.896 418.461L679.848 421.599L663.988 422.868L662.364 405.823L665.84 402.927L663.439 400.046L659.462 390.257L666.231 379.47V376.077L664.43 374.554L653.763 381.473L650.479 365.382L642.609 357.896L640.431 343.618L641.275 339.592L634.953 340.716L633.219 315.4L645.948 311.525L660.276 303.873L661.991 300.185L656.616 289.118L676.323 285.177L681.745 278.478L696.205 266.389L720.29 273.449L743.915 272.599L749.767 268.813L749.942 267.332L744.724 270.926L741.414 252.571L733.051 246.521ZM733.107 192.648L726.237 194.785L731.343 216.486L730.589 222.011L742.834 215.249L757.372 211.746L764.537 203.177L764.979 198.758L745.92 193.48L733.107 192.648ZM1226.63 291.747L1231.02 292.227L1224.85 293.516L1224.54 291.321L1226.63 291.747ZM1151.51 413.936L1154.33 415.797H1148.06L1137.32 413.508L1143.44 412.322L1151.51 413.936ZM1126.34 415.638L1128.91 415.139L1120.44 417.631L1113.5 422.317L1116.04 418.557L1126.34 415.638ZM1099.96 431.673H1102.41L1098.94 438.855L1093.15 439.77L1097.37 432.832L1099.96 431.673ZM1111.92 330.608L1140.76 324.922L1146.57 316.207L1140.91 307.783L1136.21 302.376L1127.42 305.18L1116.11 292.759L1109.1 268.234L1098.27 268.781L1107.87 273.254L1104.97 286.574L1108.17 294.658L1119.73 306.22L1107.3 316.515L1116.42 326.961L1111.92 330.608ZM632.38 444.881L635.183 445.281L631.444 445.815L631.419 445.802L632.38 444.881ZM948.666 184.142L943.406 181.362L945.38 180.678L948.666 184.142ZM1030.65 213.646L1030.27 216.536L1029.5 216.806L1033.15 218.499L1033.76 216.748L1030.65 213.646Z" fill="#6C6965"/>
<path fill-rule="evenodd" clip-rule="evenodd" d="M192.294 632.142L182.582 655.912L172.238 665.635L171.735 690.066L181.007 695.475L195.44 709.148L200.667 685.5H206.679L215.373 678.318H224.334L227.046 684.233L243.258 678.242L250.978 662.605L260.379 656.338L257.997 644.597L259.939 643.964L260.742 647.095L275.312 654.671L279.16 664.383L286.868 669.393L290.695 677.722L303.869 679.867L301.541 690.863L304.052 705.472L317.734 724.545L330.949 736.223L333.074 733.77L337.831 747.114H348.784L351.582 729.211L350.312 712.53L356.849 696.272L368.54 681.014L369.929 667.355L366.53 646.778L373.553 632.921L369.637 611.856L370.047 613.087L375.306 606.726L376.149 621.425L379.926 640.906L397.794 685.714L409.731 658.303L403.954 644.825L403.588 641.463H416.81L430.821 636.679L417.817 586.693L423.655 572.323L416.329 566.329L416.618 560.54L404.769 529.731L402.431 524.4L418.456 517.48L415.288 507.185L432.288 497.875L424.278 484.143L419.624 466.563L413.009 467.913L413.761 461.821L412.068 443.202H401.869L407.561 439.331L396.439 422.871L385.66 428.488L385.128 425.208L368.564 423.425L353.166 420.158L323.111 450.446L329.473 460.785L330.039 464.908L323.068 468.471L321.471 463.803H304.905L291.49 490.633L293.276 498.429L287.799 503.553L288.467 510.905L278.51 516.476L265.028 511.21L260.024 517.182L257.188 515.096L250.848 513.574L250.789 512.77L260.467 501.801L250.796 484.778L258.063 472.665L243.658 463.382L238.166 462.31L236.791 458.403L245.118 447.193L248.955 438.338L244.024 428.146L249.532 423.024L259.469 423.986L257.667 432.166L279.175 428.03L284.059 419.889L294.356 419.106L298.902 427.802L324.042 423.441L340.569 402.63L342.88 400.319L358.056 406.996L356.211 389.008L354.746 381.588H364.256L362.395 366.7L363.79 359.814L372.539 361.897L374.313 338.477L374.35 338.493L379.161 332.906L388.424 341.079L402.492 327.317L405.018 314.054L407.972 306.177L424.643 297.842L434.95 289.103L450.326 254.34L435.016 240.561L427.652 242.973L426.966 237.781L421.78 233.603L425.934 223.392L413.226 206.978L411.359 210.933L406.212 204.538L409.169 197.966L402.94 183.097L404.244 173.97L405.379 159.218L395.051 145.447L410.758 146.543L423.13 142.26L431.747 133.278L447.41 129.864L450.985 123.207L460.702 130.026L482.998 103.676L482.459 107.16H494.277L499.217 112.4L509.793 119.297L521.04 120.234L524.645 122.738L527.733 135.09L537.298 140.716L539.123 148.844L549.768 161.619L558.343 157.232L566.988 165.622L570.747 159.715L580.003 169.645L586.612 163.281L591.757 165.549L595.234 174.517L611.201 183.35L611.571 182.717L613.08 187.998L635.027 195.694L647.723 176.559L652.071 188.362L669.408 178.393L668.443 171.795L677.728 169.111L695.189 172.104L701.119 147.038L694.023 130.743L687.057 129.001L684.648 119.738L668.635 114.909H653.693L648.556 117.78L638.255 113.12L633.568 121.826L626.676 120.988L622.689 114.087L607.445 102.109L583.526 96.954H568.746L564.299 100.338L563.157 97.9935L553.052 91.8837L544.232 88.4639L538.008 83.2436L526.978 80.7925L512.95 82.8256L501.845 84.0215L486.633 80.2183L484.668 92.8983L481.011 88.1059V74.7468L465.185 69.7819L460.41 71.511V68.9856L443.255 57.373L427.238 61.239L416.132 79.6791L410.172 87.0505L400.763 90.9891L397.293 103.25L388.668 120.306L387.33 144.909L390.689 145.143L385.306 161.517L380.515 161.038L367.059 169.481L362.065 189.457L373.558 201.392L376.133 206.649L374.151 209.571L370.52 207.367L361.56 213.21L359.961 206.196H350.633L352.122 194.067L360.686 187.924L363.27 172.616L370.172 164.794L380.305 157.588L382.013 142.708L380.32 127.237L366.788 117.633L358.94 131.46L356.404 150.116L353.957 152.642L352.08 141.666L340.688 130.274L332.52 133.05L329.389 127.235L326.752 123.966L336.767 103.937L331.733 82.5458L317.005 95.0425L302.13 125.151L297.701 125.905L284.674 121.921L267.184 101.679H256.91L243.452 95.2193L235.545 110.202L242.706 122.008L236.09 137.541L228.24 141.528L222.623 139.968L217.564 131.535L208.46 124.897L198.11 108.122L188.044 126.744L194.932 145.041L196.438 151.279L202.776 160.285L199.726 175.025L219.185 177.679L223.23 167.279L223.586 167.562L229.092 187.291L233.988 179.182V183.8L246.237 195.731L242.873 199.529L241.545 215.201L237.79 214.819L218.995 233.615L226.945 238.132L222.773 241.91L215.893 250.441L199.317 243.401L197.162 255.466L187.922 253.76L165.299 274.209L155.836 291.373L156.957 309.977L163.628 324.061L154.797 329.423V344.301L152.616 352.298L152.169 356.406L143.182 348.477L131.239 358.476L123.551 364.011H97.6551L89.2083 360.925L85.7937 359.136L92.247 361.956L102.144 353.915L122.066 356.631L126.429 328.405L121.235 314.556L121.813 306.666L138.854 308.619L143.816 290.425L152.711 280.418L140.969 268.676L138.059 260.252L135.617 237.055L118.179 221.629L99.5526 258.173L96.2907 266.757L88.7463 274.506L86.5439 292.754L85.16 293.9L76.5972 303.78L61.8489 305.142L59.6862 323.741L54.3584 325.529L42.1439 324.12L32 339.758L48.3596 348.593L64.3067 349.745L73.7349 353.866L50.3888 349.461L47.1691 361.803L38.8024 369.054L45.0242 377.972L40.4213 383.83L39.4285 396.737L46.1538 416.272L62.7266 407.065L70.2149 407.778L77.4499 416.822L82.0318 424.305V444.803L76.1281 451.185L67.7576 466.686L82.5782 474.486L86.8791 480.938L87.8694 484.342L72.4299 488.025L59.3245 496.543L67.8549 512.385L77.7571 511.354L84.235 519.096L102.201 528.236L103.199 525.493L119.639 535.195L131.459 527.366L133.343 531.465H147.402L161.601 533.358V549.868L175.164 551.996L185.486 558.29L189.328 555.248L189.497 556.732L208.75 562.413L208.095 563.125V582.452L211.802 581.835L210.658 585.049L213.423 595.741L208.699 606.174L212.82 616.368V627.886L205.279 636.683L207.869 639.791L203.338 640.798L192.294 632.142ZM220.441 495.321L225.49 502.053L215.84 504.328L210.58 502.052L215.866 489.916L218.694 487.691L220.441 495.321ZM274.783 224.507L271.535 222.79L274.429 217.829L281.457 220.502L291.854 234.017L290.979 234.693L277.967 229.813L274.783 224.507ZM154.084 368.885L153.97 369.352L155.379 378.009L162.648 376.314L156.368 373.857L154.084 368.885ZM218.637 551.674L211.513 559.412L215.133 550.442L218.381 550.196L218.637 551.674Z" fill="#6C6965"/>
<path d="M1206.6 441.501L1220.29 424.324L1230.24 415.176L1253.07 422.723L1264.12 412.356L1282.35 409.683L1295.05 417.501L1301.65 426.476V435.328L1308.56 448.938L1303.03 458.083L1304.55 468.484L1294.17 476.601L1295.35 484.486L1277.74 496.138L1259.29 492.226L1254.84 477.597L1244.79 469.74L1241.08 461.651L1231.78 458.339L1222.74 461.758L1206.6 441.501Z" fill="#6C6965"/>
<path d="M131.823 217.616L124.226 200.252L134.416 189.334L138.943 181.573L142.56 167.507L161.016 149.619L170.544 162.422L182.167 170.098L183.095 183.342L188.116 181.093L199.915 177.09H213.257L218.96 192.569L208.86 199.751L206.38 220.002L186.435 223.815L181.422 219.75L179.881 221.242L175.35 228.039L165.273 237.843L147.977 232.168L141.581 224.121L131.823 217.616Z" fill="#6C6965"/>
<path d="M470.069 368.877L459.572 393.021L474.367 408.873L502.992 412.342L527.832 402.845L551.834 412.91L576.323 398.439L562.85 375.985L513.186 362.958L470.069 368.877Z" fill="#6C6965"/>
<defs>
<linearGradient id="paint0_linear_130_3595" x1="292.5" y1="101" x2="1126" y2="665.5" gradientUnits="userSpaceOnUse">
<stop stop-color="#EBE1E1"/>
<stop offset="1" stop-color="#291E1E"/>
</linearGradient>
</defs>
</svg>
