<?xml version="1.0" encoding="UTF-8" standalone="no"?>
<!-- Created with Inkscape (http://www.inkscape.org/) -->

<svg
   version="1.1"
   id="svg1"
   width="4892"
   height="2576"
   viewBox="0 0 4892 2576"
   sodipodi:docname="map_svg.svg"
   inkscape:version="1.3.2 (091e20e, 2023-11-25)"
   xmlns:inkscape="http://www.inkscape.org/namespaces/inkscape"
   xmlns:sodipodi="http://sodipodi.sourceforge.net/DTD/sodipodi-0.dtd"
   xmlns="http://www.w3.org/2000/svg"
   xmlns:svg="http://www.w3.org/2000/svg">
  <defs
     id="defs1" />
  <sodipodi:namedview
     id="namedview1"
     pagecolor="#ffffff"
     bordercolor="#000000"
     borderopacity="0.25"
     inkscape:showpageshadow="2"
     inkscape:pageopacity="0.0"
     inkscape:pagecheckerboard="0"
     inkscape:deskcolor="#d1d1d1"
     showgrid="false"
     inkscape:zoom="0.32504093"
     inkscape:cx="1398.2854"
     inkscape:cy="1295.2215"
     inkscape:window-width="1472"
     inkscape:window-height="811"
     inkscape:window-x="0"
     inkscape:window-y="37"
     inkscape:window-maximized="0"
     inkscape:current-layer="g1" />
  <g
     inkscape:groupmode="layer"
     inkscape:label="Image"
     id="g1">
    <path
       style="fill:none;stroke-width:5.66929134;stroke-dasharray:none;stroke:#ff00ff"
       d=""
       id="path" />
    <path
       style="fill:none;stroke-width:10;stroke-dasharray:none;stroke:#1a1a1a;stroke-linejoin:round"
       d="M 601,812,540,812,520,770,517,731,540,689,592,643,624,650,630,621,666,637,692,605,718,582,695,569,724,540,754,543,783,540,805,559,815,575,861,592,1065,825,1061,893,1039,887,1032,925,1036,948,1000,948Z"
       id="path13" />
    <path
       style="fill:none;stroke-width:10;stroke-dasharray:none;stroke:#1a1a1a;stroke-linejoin:round"
       d="M601,814,1009,950,1016,985,1019,1008,993,995,977,1011,938,1060,889,1070,877,1047,831,1050,818,1073,792,1079,799,1047,818,1028,789,1028,604,950,572,924,553,943,530,953,507,940,498,921,501,898,507,875,514,836,546,817,572,823Z"
       id="path12" />
    <path
       style="fill:none;stroke-width:10;stroke-dasharray:none;stroke:#1a1a1a;stroke-linejoin:round"
       d="M873,603,1074,833,1091,813,1117,836,1139,813,1146,781,1155,755,1204,729,1227,710,1262,632,1237,609,1207,619,1204,593,1185,577,1198,548,1185,532,1178,551,1152,548,1162,519,1149,502,1107,502,1084,532,1071,522,1036,545,1029,515,990,519,857,561,883,577Z"
       id="path14" />
    <path
       style="fill:none;stroke-width:10;stroke-dasharray:none;stroke:#1a1a1a;stroke-linejoin:round"
       d="M679,1394,737,1332,737,1306,760,1280,747,1258,721,1290,659,1306,627,1293,348,1248,290,1258,267,1274,277,1293,303,1290,319,1313,351,1329,364,1293,374,1332,406,1352,445,1326,452,1345,478,1345,533,1352,533,1397,559,1400,578,1413,604,1391,604,1417,637,1426,647,1394Z"
       id="path7" />
    <path
       style="fill:none;stroke-width:10;stroke-dasharray:none;stroke:#1a1a1a;stroke-linejoin:round"
       d="M510,1271,627,1290,647,1242,679,1216,689,1261,698,1287,731,1261,747,1216,728,1196,708,1193,698,1164,724,1131,731,1115,715,1083,744,1057,776,1060,789,1024,614,956Z"
       id="path8" />
    <path
       style="fill:none;stroke-width:10;stroke-dasharray:none;stroke:#1a1a1a;stroke-linejoin:round"
       d="M507,1271,342,1245,332,1216,319,1196,290,1183,306,1157,322,1138,319,1115,316,1079,491,966,514,963,536,960,579,947,617,963Z"
       id="path9" />
    <path
       style="fill:none;stroke-width:10;stroke-dasharray:none;stroke:#1a1a1a;stroke-linejoin:round"
       d="M319,1070,485,960,481,931,485,911,468,898,449,914,420,934,368,934,345,934,319,924,287,908,235,898,229,921,212,934,229,956,212,976,209,1002,219,1034,251,1015,284,1018,306,1047Z"
       id="path10" />
    <path
       style="fill:none;stroke-width:10;stroke-dasharray:none;stroke:#1a1a1a;stroke-linejoin:round"
       d="M332,914,355,894,400,901,407,845,394,810,397,768,446,774,455,737,472,718,449,695,439,667,433,611,407,586,394,612,368,664,358,690,339,709,335,738,358,738,326,764,300,794,267,797,264,820,297,813,306,829,235,852,209,849,196,868,222,881,264,884Z"
       id="path11" />
    <path
       style="fill:none;stroke-width:10;stroke-dasharray:none;stroke:#1a1a1a;stroke-linejoin:round"
       d="M741,1326,682,1394,686,1420,656,1452,656,1478,676,1472,663,1504,669,1530,818,1462,828,1339,796,1326,780,1345,763,1332Z"
       id="path4" />
    <path
       style="fill:none;stroke-width:10;stroke-dasharray:none;stroke:#1a1a1a;stroke-linejoin:round"
       d="M818,1465,828,1339,851,1326,870,1316,867,1293,883,1280,877,1255,906,1198,929,1198,935,1217,961,1204,980,1195,977,1169,964,1149,1029,1084,1061,1091,1094,1094,1097,1113,1133,1094,1146,1113,1120,1130,1143,1143,1165,1143,1168,1175,1162,1220,1010,1399Z"
       id="path5" />
    <path
       style="fill:none;stroke-width:10;stroke-dasharray:none;stroke:#1a1a1a;stroke-linejoin:round"
       d="M1162,1214,1188,1208,1198,1243,1211,1266,1169,1289,1178,1315,1133,1334,1146,1363,1159,1402,1175,1441,1175,1461,1191,1474,1178,1506,1185,1529,1211,1629,1188,1636,1159,1636,1136,1613,1143,1665,1156,1697,1143,1730,1110,1645,1101,1597,1097,1516,1075,1545,1065,1516,1042,1461,1016,1393Z"
       id="path6" />
    <path
       style="fill:none;stroke-width:10;stroke-dasharray:none;stroke:#1a1a1a;stroke-linejoin:round"
       d="M1007,1396,1030,1454,1013,1483,783,1619,777,1642,754,1649,761,1684,741,1697,722,1736,699,1746,683,1707,676,1733,654,1733,631,1752,608,1752,598,1801,579,1782,560,1772,560,1723,586,1700,605,1652,624,1668,669,1658,653,1639,669,1622,669,1584,660,1558,679,1528,815,1464Z"
       id="path3" />
    <path
       style="fill:none;stroke-width:5.66929134;stroke-dasharray:none;stroke:#ff00ff"
       d="M1023,1478,1042,1527,1052,1585,1061,1627,1042,1663,1049,1718,916,1741,870,1734,861,1715,841,1702,831,1676,792,1656,792,1618Z"
       id="path2" />
    <path
       style="fill:none;stroke-width:10;stroke-dasharray:none;stroke:#1a1a1a;stroke-linejoin:round"
       d="M912,1744,1052,1721,1049,1750,1019,1789,1000,1838,1003,1883,997,1922,977,1864,964,1880,942,1861,909,1815,903,1783Z"
       id="path1" />
    <path
       style="fill:none;stroke-width:10;stroke-dasharray:none;stroke:#1a1a1a;stroke-linejoin:round"
       d="M1454,803,1447,735,1425,728,1425,706,1399,686,1389,654,1373,683,1373,738,1327,722,1302,735,1324,764,1311,790,1327,809,1350,819,1376,857,1408,864,1424,867,1437,828Z"
       id="path25" />
    <path
       style="fill:none;stroke-width:10;stroke-dasharray:none;stroke:#1a1a1a;stroke-linejoin:round"
       d="M1447,736,1450,674,1632,772,1603,791,1600,856,1616,885,1590,885,1518,895,1512,862,1486,872,1486,843,1457,817Z"
       id="path24" />
    <path
       style="fill:none;stroke-width:5.66929134;stroke-dasharray:none;stroke:#ff00ff"
       d="1460,916,1379,942,1360,968,1353,1003,1379,1016,1428,1000,1470,1000,1499,961,1583,1013,1603,997,1561,955,1493,919Z"
       id="path26" />
    <path
       style="fill:none;stroke-width:10;stroke-dasharray:none;stroke:#1a1a1a;stroke-linejoin:round"
       d="M1635,773,1697,763,1726,740,1755,715,1817,676,1852,617,1891,630,1911,595,1904,575,1937,556,1933,527,1901,510,1878,539,1823,523,1784,533,1765,517,1765,546,1800,569,1775,605,1742,598,1726,562,1697,572,1664,549,1638,572,1606,553,1622,517,1593,488,1554,517,1515,514,1496,475,1460,478,1463,511,1486,527,1463,582,1454,637,1447,679Z"
       id="path23" />
    <path
       style="fill:none;stroke-width:10;stroke-dasharray:none;stroke:#1a1a1a;stroke-linejoin:round"
       d="M1975,545,2005,551,2008,528,1998,477,1959,457,1937,473,1943,506,1959,532Z"
       id="path22" />
    <path
       style="fill:none;stroke-width:10;stroke-dasharray:none;stroke:#1a1a1a;stroke-linejoin:round"
       d="M2001,462,2027,449,2066,452,2131,468,2215,452,2212,410,2183,378,2176,336,2144,287,2128,258,2160,229,2147,199,2147,141,2173,170,2199,154,2186,34,2166,34,2137,83,2131,122,2105,183,2079,183,2079,144,2060,170,2050,219,2063,242,2066,277,2027,271,2001,293,1992,258,1972,264,1969,319,1963,358,1995,381,1995,413,1995,442Z"
       id="path20" />
    <path
       style="fill:none;stroke-width:10;stroke-dasharray:none;stroke:#1a1a1a;stroke-linejoin:round"
       d="M2131,468,2218,452,2222,478,2196,511,2212,520,2218,533,2196,559,2209,582,2047,592,2027,559,2060,540,2102,530,2128,500Z"
       id="path21" />
    <path
       style="fill:none;stroke-width:10;stroke-dasharray:none;stroke:#1a1a1a;stroke-linejoin:round"
       d="M491,556,523,566,540,549,553,530,569,514,588,530,621,524,627,475,650,459,643,439,621,439,592,449,559,465,556,413,530,397,514,374,481,407,472,442,455,468,436,488,452,520,475,536Z"
       id="path15" />
    <path
       style="fill:none;stroke-width:10;stroke-dasharray:none;stroke:#1a1a1a;stroke-linejoin:round"
       d="M659,408,637,405,643,376,624,347,617,324,604,292,614,272,630,298,653,314,669,340,695,347,727,331,750,276,731,246,740,227,766,240,789,240,812,266,834,292,876,305,899,301,941,217,958,201,964,227,935,285,948,301,961,327,987,318,1006,337,1013,376,1032,376,1048,360,1055,308,1064,289,1081,301,1084,334,1081,363,1058,379,1035,405,1029,444,1006,460,1000,515,860,561,844,525,809,512,799,541,767,532,744,519,747,489,764,473,725,434,725,409,718,383,702,412,695,389,673,370Z"
       id="path16" />
    <path
       style="fill:none;stroke-width:10;stroke-dasharray:none;stroke:#1a1a1a;stroke-linejoin:round"
       d="M1104,504,1146,498,1155,478,1139,442,1143,417,1146,381,1133,361,1120,400,1100,397,1074,413,1065,452,1091,478Z"
       id="path17" />
    <path
       style="fill:none;stroke-width:10;stroke-dasharray:none;stroke:#1a1a1a;stroke-linejoin:round"
       d="M1130,324,1175,327,1201,318,1224,292,1263,285,1276,256,1305,279,1353,227,1370,211,1347,194,1347,165,1321,156,1292,169,1292,146,1259,123,1230,130,1204,175,1185,198,1162,207,1156,234,1133,279Z"
       id="path18" />
    <path
       style="fill:none;stroke-width:10;stroke-dasharray:none;stroke:#1a1a1a;stroke-linejoin:round"
       d="M1382,223,1405,223,1421,239,1444,256,1473,256,1493,269,1499,301,1525,317,1531,343,1548,363,1570,350,1587,369,1596,350,1625,382,1638,366,1668,379,1677,405,1700,418,1713,395,1723,440,1762,453,1781,424,1797,401,1813,401,1823,431,1843,418,1839,398,1859,392,1881,385,1917,392,1927,346,1914,314,1894,311,1888,285,1856,275,1823,275,1807,285,1784,275,1775,295,1739,291,1726,269,1706,252,1690,239,1661,233,1632,227,1600,227,1577,246,1567,227,1548,214,1522,204,1506,191,1483,185,1447,191,1415,194,1379,185Z"
       id="path19" />
    <path
       style="fill:none;stroke-width:10;stroke-dasharray:none;stroke:#1a1a1a;stroke-linejoin:round"
       d="M2044,598,2215,585,2140,922,1972,834,1930,834,1904,831,1887,802,1926,773,1887,773,1833,828,1784,838,1781,799,1804,796,1849,770,1859,750,1849,731,1888,724,1904,705,1937,676,1995,695,2063,692,2089,676,2095,627,2069,647,2066,614Z"
       id="path31" />
    <path
       style="fill:none;stroke-width:10;stroke-dasharray:none;stroke:#1a1a1a;stroke-linejoin:round"
       d="M2212,590,2245,606,2232,642,2257,665,2274,690,2303,700,2300,723,2274,726,2277,749,2274,784,2277,814,2300,820,2319,807,2339,833,2342,862,2371,872,2377,911,2387,927,2368,950,2377,972,2293,1005,2274,976,2248,979,2228,966,2206,966,2180,963,2154,960,2138,921Z"
       id="path32" />
    <path
       style="fill:none;stroke-width:10;stroke-dasharray:none;stroke:#1a1a1a;stroke-linejoin:round"
       d="M2128,919,2131,955,2118,984,2105,1016,2001,1039,1972,1075,1943,1075,1943,1055,1924,1045,1885,1055,1862,1058,1859,1036,1875,1023,1859,1007,1852,990,1869,964,1869,942,1849,925,1830,938,1826,913,1804,893,1800,864,1804,841,1839,835,1869,822,1888,851,1914,838,1953,851,1972,841Z"
       id="path30" />
    <path
       style="fill:none;stroke-width:10;stroke-dasharray:none;stroke:#1a1a1a;stroke-linejoin:round"
       d="M2092,1019,2099,1062,2128,1058,2134,1110,2138,1136,2147,1165,2151,1233,2173,1233,2176,1259,2154,1269,2154,1314,2144,1344,2121,1337,2118,1370,2095,1373,2060,1386,2027,1379,2027,1347,1995,1350,1966,1350,1943,1321,1911,1308,1894,1321,1852,1318,1823,1237,1817,1211,1823,1175,1843,1146,1859,1130,1894,1104,1924,1107,1937,1084,1969,1091,1969,1120,1985,1117,1988,1081,2014,1071,2005,1036Z"
       id="path29" />
    <path
       style="fill:none;stroke-width:10;stroke-dasharray:none;stroke:#1a1a1a;stroke-linejoin:round"
       d="M1852,1326,1839,1345,1813,1336,1800,1391,1810,1417,1762,1426,1742,1443,1716,1455,1690,1455,1677,1426,1645,1404,1622,1378,1616,1352,1632,1326,1635,1306,1655,1290,1661,1229,1681,1212,1788,1212,1823,1238Z"
       id="path28" />
    <path
       style="fill:none;stroke-width:10;stroke-dasharray:none;stroke:#1a1a1a;stroke-linejoin:round"
       d="M1677,1212,1791,1209,1800,1154,1778,1148,1758,1151,1732,1138,1758,1115,1778,1118,1816,1135,1836,1099,1820,1086,1791,1066,1765,1063,1748,1034,1722,1060,1739,1086,1716,1105,1706,1131,1700,1151,1684,1122,1651,1115,1619,1125,1622,1177,1651,1173,1681,1180Z"
       id="path27" />
    <path
       style="fill:none;stroke-width:10;stroke-dasharray:none;stroke:#1a1a1a;stroke-linejoin:round"
       d="M2293,1007,2380,977,2406,968,2413,1010,2435,1023,2452,1016,2465,1045,2491,1049,2507,1068,2523,1081,2539,1078,2559,1104,2585,1107,2601,1126,2627,1123,2653,1133,2662,1156,2662,1191,2656,1214,2620,1220,2575,1227,2530,1204,2520,1227,2510,1256,2458,1305,2420,1308,2397,1285,2381,1311,2335,1318,2277,1240,2287,1217,2274,1198,2283,1178,2254,1159,2245,1143,2270,1120,2257,1101,2277,1065,2300,1049Z"
       id="path33" />
    <path
       style="fill:none;stroke-width:10;stroke-dasharray:none;stroke:#1a1a1a;stroke-linejoin:round"
       d="M2270,1233,2335,1324,2345,1357,2355,1389,2384,1399,2381,1425,2374,1447,2390,1470,2387,1490,2358,1496,2355,1509,2332,1483,2319,1451,2306,1431,2277,1444,2270,1418,2251,1402,2228,1392,2228,1363,2241,1334,2241,1314,2215,1298,2241,1266Z"
       id="path34" />
    <path
       style="fill:none;stroke-width:10;stroke-dasharray:none;stroke:#1a1a1a;stroke-linejoin:round"
       d="M2462,1297,2471,1352,2484,1368,2478,1394,2514,1391,2526,1433,2536,1472,2539,1491,2643,1472,2633,1426,2640,1407,2637,1384,2614,1384,2608,1361,2588,1345,2585,1323,2559,1319,2565,1297,2562,1274,2543,1258,2520,1248Z"
       id="path35" />
    <path
       style="fill:none;stroke-width:10;stroke-dasharray:none;stroke:#1a1a1a;stroke-linejoin:round"
       d="M2536,1496,2643,1473,2672,1493,2702,1486,2711,1515,2734,1528,2744,1567,2737,1603,2711,1590,2689,1606,2669,1626,2656,1652,2637,1622,2617,1616,2601,1584,2591,1538Z"
       id="path36" />
    <path
       style="fill:none;stroke-width:10;stroke-dasharray:none;stroke:#1a1a1a;stroke-linejoin:round"
       d="M2695,1131,2747,1177,2789,1206,2821,1225,2860,1203,2899,1173,2902,1151,2928,1131,2928,1112,2961,1122,2983,1086,2928,998,2893,995,2867,1021,2834,1018,2805,1028,2783,1054,2760,1037,2737,1050,2744,1096,2750,1128,2731,1115,2711,1112Z"
       id="path37" />
    <path
       style="fill:none;stroke-width:10;stroke-dasharray:none;stroke:#1a1a1a;stroke-linejoin:round"
       d="M2987,1156,3013,1175,3039,1185,3068,1172,3094,1159,3107,1143,3146,1130,3162,1088,3146,1071,3126,1071,3094,1065,3061,1075,3022,1101,3009,1130,2987,1133Z"
       id="path38" />
    <path
       style="fill:none;stroke-width:10;stroke-dasharray:none;stroke:#1a1a1a;stroke-linejoin:round"
       d="M2995,1081,3011,1081,3031,1049,3067,1039,3115,1029,3144,1036,3164,1049,3180,1013,3242,1023,3225,987,3076,838,3021,848,2998,851,2963,880,2976,932,2969,974,2930,997,2995,1081Z"
       id="path39" />
    <path
       style="fill:none;stroke-width:10;stroke-dasharray:none;stroke:#1a1a1a;stroke-linejoin:round"
       d="M3301,1123,3330,1159,3350,1149,3385,1162,3395,1188,3424,1208,3434,1243,3466,1250,3499,1230,3496,1208,3525,1188,3518,1162,3534,1143,3518,1110,3518,1088,3502,1071,3479,1055,3440,1062,3408,1091,3379,1081,3347,1071,3327,1091Z"
       id="path40" />
    <path
       style="fill:none;stroke-width:10;stroke-dasharray:none;stroke:#1a1a1a;stroke-linejoin:round"
       d="M3227,982,3259,963,3265,937,3291,927,3317,914,3330,891,3337,859,3321,833,3291,817,3278,788,3139,797,3116,830,3074,840Z"
       id="path41" />
    <path
       style="fill:none;stroke-width:10;stroke-dasharray:none;stroke:#1a1a1a;stroke-linejoin:round"
       d="M3139,789,3278,786,3301,757,3314,744,3311,728,3308,705,3337,712,3369,715,3415,728,3463,744,3473,721,3457,702,3428,702,3369,666,3324,647,3042,679,3058,721,3077,744,3100,737,3120,760Z"
       id="path43" />
    <path
       style="fill:none;stroke-width:10;stroke-dasharray:none;stroke:#1a1a1a;stroke-linejoin:round"
       d="M3314,744,3334,718,3372,744,3418,747,3444,747,3470,760,3486,741,3512,754,3538,757,3525,812,3483,822,3453,828,3424,819,3372,822,3340,802,3321,773Z"
       id="path42" />
    <path
       style="fill:none;stroke-width:10;stroke-dasharray:none;stroke:#1a1a1a;stroke-linejoin:round"
       d="M3048,674,3327,645,3372,649,3385,623,3401,593,3411,571,3388,555,3359,558,3320,561,3298,542,3288,519,3285,496,3256,503,3051,493,3025,519,3003,545,3009,587,2986,606,2987,652,3035,648Z"
       id="path44" />
    <path
       style="fill:none;stroke-width:10;stroke-dasharray:none;stroke:#1a1a1a;stroke-linejoin:round"
       d="M3061,489,3268,499,3255,473,3291,473,3284,451,3294,425,3313,418,3313,395,3317,373,3339,370,3333,347,3284,318,3258,311,3252,347,3232,347,3213,366,3158,360,3145,263,3135,227,3148,204,3099,214,3061,211,3044,185,3035,230,3015,217,3005,175,2980,185,2989,246,2964,276,2974,305,2987,334,3009,353,3055,337,3074,441,3058,464Z"
       id="path45" />
    <path
       style="fill:none;stroke-width:10;stroke-dasharray:none;stroke:#1a1a1a;stroke-linejoin:round"
       d="M2951,875,2983,849,3022,817,2993,791,3029,765,3006,742,2996,713,3003,687,2958,665,2938,632,2912,616,2909,652,2877,642,2864,622,2834,632,2828,668,2815,677,2821,713,2821,749,2815,775,2834,807,2851,830,2906,869Z"
       id="path46" />
    <path
       style="fill:none;stroke-width:10;stroke-dasharray:none;stroke:#1a1a1a;stroke-linejoin:round"
       d="M2802,665,2824,649,2821,623,2883,590,2876,545,2863,506,2841,529,2834,555,2779,532,2643,486,2611,464,2578,448,2555,477,2529,470,2517,503,2536,522,2555,503,2572,525,2585,558,2604,587,2659,600,2714,632,2727,658,2750,665,2776,648Z"
       id="path47" />
    <path
       style="fill:none;stroke-width:10;stroke-dasharray:none;stroke:#1a1a1a;stroke-linejoin:round"
       d="M2773,524,2646,485,2633,468,2614,433,2595,413,2569,423,2556,397,2549,374,2504,358,2520,332,2549,345,2578,378,2604,391,2640,391,2659,368,2672,355,2666,323,2633,290,2640,264,2669,245,2698,251,2718,267,2744,258,2760,235,2731,206,2786,147,2812,199,2792,219,2802,261,2805,313,2812,355,2844,391,2844,423,2867,452,2854,478,2834,514,2805,485,2802,517Z"
       id="path48" />
    <path
       style="fill:none;stroke-width:10;stroke-dasharray:none;stroke:#1a1a1a;stroke-linejoin:round"
       d="M2582,580,2663,606,2714,632,2711,665,2692,697,2702,746,2721,781,2676,797,2624,807,2595,823,2585,801,2565,768,2556,739,2520,742,2504,729,2523,694,2565,684,2591,658,2591,635,2569,642,2549,635,2552,613Z"
       id="path49" />
    <path
       style="fill:none;stroke-width:10;stroke-dasharray:none;stroke:#1a1a1a;stroke-linejoin:round"
       d="M2514,749,2494,730,2459,723,2423,704,2404,726,2365,717,2339,687,2319,687,2316,717,2342,733,2368,759,2361,794,2374,814,2407,791,2416,820,2426,843,2458,833,2491,833,2484,788,2526,778Z"
       id="path50" />
  </g>
</svg>
