<svg width="1520" height="912" viewBox="0 0 1520 912" fill="none" xmlns="http://www.w3.org/2000/svg">
<g clip-path="url(#clip0_1_2)">
<g filter="url(#filter0_d_1_2)">
<path d="M660.58 474.372L661.387 474.962L661.977 474.155L664.339 470.926L664.929 470.119L664.122 469.529L660.772 467.079L659.965 466.488L659.374 467.295L657.013 470.524L656.423 471.331L657.23 471.922L660.58 474.372ZM668.955 480.497L669.762 481.087L670.352 480.28L672.714 477.051L673.304 476.244L672.497 475.654L665.797 470.754L664.99 470.163L664.399 470.97L662.038 474.199L661.448 475.006L662.255 475.597L668.955 480.497ZM677.33 486.622L678.137 487.212L678.727 486.405L681.089 483.176L681.679 482.369L680.872 481.779L674.172 476.879L673.365 476.288L672.774 477.095L670.413 480.324L669.823 481.131L670.63 481.722L677.33 486.622ZM685.705 492.747L686.512 493.337L687.102 492.53L689.464 489.301L690.054 488.494L689.247 487.904L682.547 483.004L681.74 482.413L681.149 483.22L678.788 486.449L678.198 487.256L679.005 487.847L685.705 492.747ZM690.73 496.422L691.537 497.012L692.127 496.205L694.489 492.976L695.079 492.169L694.272 491.579L690.922 489.129L690.115 488.538L689.524 489.345L687.163 492.574L686.573 493.381L687.38 493.972L690.73 496.422Z" fill="#222222" stroke="#6C6965" stroke-width="2"/>
<path d="M1264.03 481.752L1264.89 482.246L1265.39 481.378L1267.37 477.901L1267.86 477.032L1266.99 476.538L1263.39 474.484L1262.52 473.989L1262.02 474.858L1260.04 478.334L1259.55 479.203L1260.42 479.698L1264.03 481.752ZM1273.04 486.886L1273.91 487.38L1274.41 486.512L1276.39 483.035L1276.88 482.166L1276.01 481.672L1268.8 477.565L1267.93 477.069L1267.43 477.938L1265.45 481.414L1264.96 482.283L1265.83 482.779L1273.04 486.886ZM1282.06 492.02L1282.93 492.514L1283.42 491.646L1285.4 488.169L1285.9 487.3L1285.03 486.806L1277.81 482.699L1276.95 482.203L1276.45 483.072L1274.47 486.548L1273.98 487.417L1274.85 487.913L1282.06 492.02ZM1291.08 497.154L1291.94 497.648L1292.44 496.78L1294.42 493.303L1294.91 492.434L1294.04 491.94L1286.83 487.833L1285.96 487.337L1285.47 488.206L1283.49 491.682L1282.99 492.551L1283.86 493.047L1291.08 497.154ZM1296.49 500.234L1297.35 500.729L1297.85 499.86L1299.83 496.384L1300.32 495.515L1299.45 495.02L1295.85 492.967L1294.98 492.471L1294.48 493.34L1292.5 496.816L1292.01 497.685L1292.88 498.181L1296.49 500.234Z" fill="#222222" stroke="#6C6965" stroke-width="2"/>
<path d="M690.659 284.764L691.093 283.863L690.193 283.43L686.589 281.693L685.688 281.259L685.254 282.16L683.453 285.899L683.018 286.8L683.919 287.234L687.523 288.97L688.423 289.404L688.858 288.503L690.659 284.764ZM695.163 275.417L695.597 274.516L694.696 274.082L691.092 272.345L690.191 271.912L689.757 272.812L686.155 280.29L685.72 281.191L686.621 281.626L690.225 283.362L691.125 283.795L691.56 282.895L695.163 275.417ZM699.666 266.069L700.1 265.168L699.199 264.735L695.595 262.998L694.695 262.564L694.261 263.465L690.658 270.943L690.223 271.844L691.124 272.278L694.728 274.014L695.629 274.448L696.064 273.547L699.666 266.069ZM704.17 256.722L704.603 255.821L703.703 255.387L700.099 253.65L699.198 253.217L698.764 254.117L695.162 261.595L694.727 262.496L695.628 262.931L699.232 264.667L700.132 265.1L700.567 264.2L704.17 256.722ZM706.872 251.113L707.305 250.212L706.405 249.779L702.801 248.042L701.9 247.608L701.466 248.509L699.665 252.248L699.23 253.149L700.131 253.583L703.735 255.319L704.636 255.753L705.07 254.852L706.872 251.113Z" fill="#222222" stroke="#6C6965" stroke-width="2"/>
<path d="M729.032 360.139L729.765 360.82L730.445 360.087L733.166 357.154L733.846 356.421L733.113 355.741L729.814 352.68L729.081 352L728.401 352.733L725.68 355.665L725 356.398L725.733 357.078L729.032 360.139ZM737.278 367.792L738.011 368.472L738.691 367.739L741.412 364.807L742.092 364.074L741.359 363.394L734.762 357.272L734.029 356.592L733.349 357.325L730.628 360.257L729.948 360.99L730.681 361.67L737.278 367.792ZM742.226 372.383L742.959 373.064L743.639 372.331L746.36 369.398L747.04 368.665L746.307 367.985L743.008 364.924L742.275 364.244L741.595 364.977L738.874 367.909L738.194 368.642L738.927 369.322L742.226 372.383Z" fill="#222222" stroke="#6C6965" stroke-width="2"/>
<path d="M279.182 219.961L278.489 220.681L279.209 221.375L282.089 224.15L282.81 224.844L283.503 224.124L286.626 220.883L287.319 220.163L286.599 219.469L283.719 216.694L282.998 216L282.305 216.72L279.182 219.961ZM271.377 228.063L270.683 228.783L271.403 229.477L274.284 232.252L275.004 232.946L275.698 232.225L281.942 225.744L282.636 225.024L281.916 224.33L279.035 221.555L278.315 220.861L277.621 221.581L271.377 228.063ZM266.694 232.924L266 233.644L266.72 234.338L269.601 237.113L270.321 237.807L271.015 237.087L274.137 233.846L274.831 233.126L274.111 232.432L271.23 229.657L270.51 228.963L269.816 229.683L266.694 232.924Z" fill="#222222" stroke="#6C6965" stroke-width="2"/>
<path d="M614.628 422.585L614.146 423.461L615.023 423.943L618.528 425.871L619.404 426.353L619.886 425.477L622.086 421.477L622.568 420.6L621.691 420.118L618.187 418.191L617.31 417.709L616.828 418.585L614.628 422.585ZM611.328 428.585L610.846 429.461L611.723 429.943L615.228 431.871L616.104 432.353L616.586 431.477L618.786 427.477L619.268 426.6L618.391 426.118L614.887 424.191L614.01 423.709L613.528 424.585L611.328 428.585Z" fill="#222222" stroke="#6C6965" stroke-width="2"/>
<path d="M938.065 377.638L937.239 378.202L937.803 379.028L940.058 382.332L940.622 383.158L941.448 382.595L945.218 380.021L946.045 379.457L945.48 378.631L943.226 375.328L942.661 374.501L941.836 375.065L938.065 377.638ZM932.409 381.498L931.583 382.062L932.147 382.888L934.402 386.192L934.966 387.018L935.792 386.455L939.562 383.882L940.389 383.317L939.824 382.491L937.57 379.188L937.006 378.361L936.18 378.925L932.409 381.498Z" fill="#222222" stroke="#6C6965" stroke-width="2"/>
<path d="M1076.15 528.125L1075.19 528.394L1075.46 529.358L1076.53 533.211L1076.8 534.174L1077.77 533.906L1082.16 532.679L1083.13 532.41L1082.86 531.447L1081.78 527.595L1081.51 526.631L1080.55 526.899L1076.15 528.125ZM1069.56 529.964L1068.6 530.233L1068.86 531.197L1069.94 535.05L1070.21 536.013L1071.17 535.745L1075.57 534.519L1076.53 534.25L1076.26 533.286L1075.19 529.434L1074.92 528.47L1073.96 528.738L1069.56 529.964Z" fill="#222222" stroke="#6C6965" stroke-width="2"/>
<path d="M1170.46 516.083L1169.47 515.89L1169.28 516.872L1168.51 520.797L1168.31 521.778L1169.3 521.971L1173.77 522.853L1174.76 523.046L1174.95 522.065L1175.72 518.141L1175.92 517.159L1174.93 516.966L1170.46 516.083ZM1163.74 514.76L1162.76 514.567L1162.56 515.549L1161.79 519.474L1161.6 520.455L1162.58 520.648L1167.06 521.53L1168.04 521.723L1168.23 520.741L1169 516.818L1169.2 515.836L1168.22 515.642L1163.74 514.76Z" fill="#222222" stroke="#6C6965" stroke-width="2"/>
<path d="M1228.02 478.81L1228.2 479.793L1229.19 479.608L1233.12 478.87L1234.1 478.685L1233.92 477.703L1233.07 473.216L1232.89 472.232L1231.91 472.417L1227.98 473.156L1226.99 473.341L1227.18 474.323L1228.02 478.81ZM1229.28 485.54L1229.47 486.523L1230.45 486.338L1234.38 485.6L1235.36 485.415L1235.18 484.433L1234.34 479.946L1234.15 478.962L1233.17 479.147L1229.24 479.886L1228.26 480.071L1228.44 481.053L1229.28 485.54Z" fill="#222222" stroke="#6C6965" stroke-width="2"/>
<path d="M1196.36 338.274L1195.55 338.857L1196.13 339.67L1198.46 342.922L1199.04 343.734L1199.85 343.152L1203.56 340.493L1204.38 339.91L1203.79 339.096L1201.46 335.846L1200.88 335.033L1200.07 335.615L1196.36 338.274ZM1190.79 342.263L1189.98 342.846L1190.56 343.659L1192.89 346.91L1193.47 347.723L1194.29 347.141L1198 344.482L1198.81 343.898L1198.23 343.085L1195.9 339.835L1195.32 339.022L1194.5 339.604L1190.79 342.263Z" fill="#222222" stroke="#6C6965" stroke-width="2"/>
<path d="M786.171 233.918L787.029 234.433L787.543 233.576L789.602 230.146L790.117 229.289L789.259 228.774L785.401 226.457L784.544 225.943L784.03 226.8L781.971 230.23L781.455 231.087L782.313 231.601L786.171 233.918ZM795.817 239.709L796.674 240.223L797.189 239.366L799.247 235.936L799.762 235.079L798.905 234.565L791.189 229.932L790.331 229.417L789.817 230.275L787.758 233.704L787.243 234.561L788.1 235.077L795.817 239.709ZM801.604 243.183L802.461 243.698L802.976 242.84L805.035 239.411L805.55 238.554L804.692 238.038L800.834 235.722L799.977 235.208L799.462 236.065L797.403 239.495L796.889 240.352L797.746 240.867L801.604 243.183Z" fill="#222222" stroke="#6C6965" stroke-width="2"/>
<path d="M220.639 289.302L219.946 290.023L220.667 290.716L223.55 293.489L224.27 294.182L224.964 293.462L228.128 290.171L228.821 289.451L228.101 288.758L225.217 285.985L224.497 285.291L223.804 286.012L220.639 289.302ZM215.893 294.238L215.2 294.959L215.92 295.652L218.803 298.425L219.524 299.118L220.217 298.398L223.381 295.107L224.075 294.386L223.354 293.693L220.471 290.92L219.75 290.227L219.057 290.948L215.893 294.238Z" fill="#222222" stroke="#6C6965" stroke-width="2"/>
<path d="M1005.98 390.98L1006.98 391.009L1007.02 390.011L1007.16 386.014L1007.19 385.016L1006.19 384.98L1002.09 384.835L1001.09 384.798L1001.05 385.802L1000.92 389.794L1000.88 390.799L1001.88 390.835L1005.98 390.98ZM1016.23 391.343L1017.24 391.372L1017.27 390.374L1017.41 386.377L1017.45 385.379L1016.45 385.343L1008.25 385.052L1007.25 385.016L1007.2 386.02L1007.07 390.012L1007.03 391.017L1008.03 391.053L1016.23 391.343ZM1022.38 391.561L1023.39 391.59L1023.42 390.592L1023.56 386.595L1023.6 385.597L1022.6 385.561L1018.5 385.416L1017.5 385.379L1017.46 386.383L1017.32 390.375L1017.28 391.38L1018.28 391.416L1022.38 391.561Z" fill="#222222" stroke="#6C6965" stroke-width="2"/>
<path d="M1511.6 374.5H1510.6V375.5V379.5V380.5H1511.6H1516H1517V379.5V375.5V374.5H1516H1511.6ZM1500.6 374.5H1499.6V375.5V379.5V380.5H1500.6H1509.4H1510.4V379.5V375.5V374.5H1509.4H1500.6ZM1489.6 374.5H1488.6V375.5V379.5V380.5H1489.6H1498.4H1499.4V379.5V375.5V374.5H1498.4H1489.6ZM1478.6 374.5H1477.6V375.5V379.5V380.5H1478.6H1487.4H1488.4V379.5V375.5V374.5H1487.4H1478.6ZM1467.6 374.5H1466.6V375.5V379.5V380.5H1467.6H1476.4H1477.4V379.5V375.5V374.5H1476.4H1467.6ZM1456.6 374.5H1455.6V375.5V379.5V380.5H1456.6H1465.4H1466.4V379.5V375.5V374.5H1465.4H1456.6ZM1445.6 374.5H1444.6V375.5V379.5V380.5H1445.6H1454.4H1455.4V379.5V375.5V374.5H1454.4H1445.6ZM1434.6 374.5H1433.6V375.5V379.5V380.5H1434.6H1443.4H1444.4V379.5V375.5V374.5H1443.4H1434.6ZM1423.6 374.5H1422.6V375.5V379.5V380.5H1423.6H1432.4H1433.4V379.5V375.5V374.5H1432.4H1423.6ZM1412.6 374.5H1411.6V375.5V379.5V380.5H1412.6H1421.4H1422.4V379.5V375.5V374.5H1421.4H1412.6ZM1401.6 374.5H1400.6V375.5V379.5V380.5H1401.6H1410.4H1411.4V379.5V375.5V374.5H1410.4H1401.6ZM1395 374.5H1394V375.5V379.5V380.5H1395H1399.4H1400.4V379.5V375.5V374.5H1399.4H1395Z" fill="#222222" stroke="#6C6965" stroke-width="2"/>
<path d="M149.714 374.5H148.714V375.5V379.5V380.5H149.714H154H155V379.5V375.5V374.5H154H149.714ZM139 374.5H138V375.5V379.5V380.5H139H147.571H148.571V379.5V375.5V374.5H147.571H139ZM128.286 374.5H127.286V375.5V379.5V380.5H128.286H136.857H137.857V379.5V375.5V374.5H136.857H128.286ZM117.571 374.5H116.571V375.5V379.5V380.5H117.571H126.143H127.143V379.5V375.5V374.5H126.143H117.571ZM106.857 374.5H105.857V375.5V379.5V380.5H106.857H115.429H116.429V379.5V375.5V374.5H115.429H106.857ZM96.1429 374.5H95.1429V375.5V379.5V380.5H96.1429H104.714H105.714V379.5V375.5V374.5H104.714H96.1429ZM85.4286 374.5H84.4286V375.5V379.5V380.5H85.4286H94H95V379.5V375.5V374.5H94H85.4286ZM74.7143 374.5H73.7143V375.5V379.5V380.5H74.7143H83.2857H84.2857V379.5V375.5V374.5H83.2857H74.7143ZM64 374.5H63V375.5V379.5V380.5H64H72.5714H73.5714V379.5V375.5V374.5H72.5714H64ZM53.2857 374.5H52.2857V375.5V379.5V380.5H53.2857H61.8571H62.8571V379.5V375.5V374.5H61.8571H53.2857ZM42.5714 374.5H41.5714V375.5V379.5V380.5H42.5714H51.1429H52.1429V379.5V375.5V374.5H51.1429H42.5714ZM31.8571 374.5H30.8571V375.5V379.5V380.5H31.8571H40.4286H41.4286V379.5V375.5V374.5H40.4286H31.8571ZM21.1429 374.5H20.1429V375.5V379.5V380.5H21.1429H29.7143H30.7143V379.5V375.5V374.5H29.7143H21.1429ZM10.4286 374.5H9.42857V375.5V379.5V380.5H10.4286H19H20V379.5V375.5V374.5H19H10.4286ZM4 374.5H3V375.5V379.5V380.5H4H8.28572H9.28572V379.5V375.5V374.5H8.28572H4Z" fill="#222222" stroke="#6C6965" stroke-width="2"/>
<path d="M650.331 591.949L649.347 592.128L649.527 593.112L650.245 597.047L650.424 598.031L651.408 597.851L655.624 597.082L656.608 596.903L656.429 595.919L655.711 591.984L655.531 591L654.547 591.179L650.331 591.949ZM639.791 593.872L638.807 594.051L638.987 595.035L639.705 598.97L639.884 599.954L640.868 599.775L649.3 598.236L650.284 598.057L650.104 597.073L649.386 593.138L649.207 592.154L648.223 592.333L639.791 593.872ZM629.251 595.795L628.267 595.975L628.447 596.958L629.165 600.893L629.344 601.877L630.328 601.698L638.76 600.159L639.744 599.98L639.564 598.996L638.846 595.061L638.667 594.077L637.683 594.257L629.251 595.795ZM618.71 597.718L617.726 597.898L617.906 598.882L618.624 602.817L618.803 603.8L619.787 603.621L628.22 602.082L629.204 601.903L629.024 600.919L628.306 596.984L628.127 596L627.143 596.18L618.71 597.718ZM608.17 599.642L607.186 599.821L607.366 600.805L608.084 604.74L608.263 605.724L609.247 605.544L617.68 604.005L618.664 603.826L618.484 602.842L617.766 598.907L617.587 597.923L616.603 598.103L608.17 599.642ZM597.63 601.565L596.646 601.744L596.826 602.728L597.544 606.663L597.723 607.647L598.707 607.467L607.139 605.929L608.123 605.749L607.943 604.766L607.225 600.831L607.046 599.847L606.062 600.026L597.63 601.565ZM587.09 603.488L586.106 603.667L586.286 604.651L587.004 608.586L587.183 609.57L588.167 609.391L596.599 607.852L597.583 607.672L597.403 606.689L596.685 602.754L596.506 601.77L595.522 601.949L587.09 603.488ZM576.55 605.411L575.566 605.591L575.745 606.574L576.463 610.509L576.643 611.493L577.627 611.314L586.059 609.775L587.042 609.596L586.863 608.612L586.145 604.677L585.965 603.693L584.982 603.873L576.55 605.411ZM566.009 607.334L565.025 607.514L565.205 608.498L565.923 612.433L566.102 613.416L567.086 613.237L575.518 611.698L576.502 611.519L576.323 610.535L575.605 606.6L575.425 605.616L574.441 605.796L566.009 607.334ZM555.469 609.258L554.485 609.437L554.665 610.421L555.383 614.356L555.562 615.34L556.546 615.16L564.978 613.622L565.962 613.442L565.782 612.458L565.064 608.523L564.885 607.54L563.901 607.719L555.469 609.258ZM544.929 611.181L543.945 611.36L544.124 612.344L544.842 616.279L545.022 617.263L546.006 617.083L554.438 615.545L555.422 615.365L555.242 614.382L554.524 610.446L554.345 609.463L553.361 609.642L544.929 611.181ZM534.388 613.104L533.405 613.283L533.584 614.267L534.302 618.202L534.482 619.186L535.465 619.007L543.898 617.468L544.881 617.288L544.702 616.305L543.984 612.37L543.804 611.386L542.821 611.565L534.388 613.104ZM523.848 615.027L522.864 615.207L523.044 616.19L523.762 620.125L523.941 621.109L524.925 620.93L533.357 619.391L534.341 619.212L534.162 618.228L533.444 614.293L533.264 613.309L532.28 613.489L523.848 615.027ZM513.308 616.95L512.324 617.13L512.504 618.114L513.222 622.049L513.401 623.032L514.385 622.853L522.817 621.314L523.801 621.135L523.621 620.151L522.903 616.216L522.724 615.232L521.74 615.412L513.308 616.95ZM506.984 618.104L506 618.284L506.179 619.268L506.897 623.203L507.077 624.186L508.061 624.007L512.277 623.238L513.261 623.058L513.081 622.074L512.363 618.139L512.184 617.156L511.2 617.335L506.984 618.104Z" fill="#222222" stroke="#6C6965" stroke-width="2"/>
<path d="M546.762 469.949L545.973 470.564L546.588 471.352L549.046 474.507L549.661 475.296L550.45 474.682L557.211 469.413L558 468.798L557.385 468.009L554.927 464.854L554.312 464.065L553.523 464.68L546.762 469.949ZM538.311 476.534L537.522 477.149L538.136 477.938L540.595 481.093L541.21 481.882L541.999 481.267L548.76 475.998L549.549 475.384L548.934 474.595L546.476 471.44L545.861 470.651L545.072 471.265L538.311 476.534ZM529.859 483.12L529.071 483.735L529.685 484.523L532.144 487.678L532.759 488.467L533.547 487.853L540.308 482.584L541.097 481.97L540.482 481.181L538.024 478.026L537.409 477.237L536.62 477.852L529.859 483.12ZM521.408 489.706L520.619 490.32L521.234 491.109L523.693 494.264L524.307 495.053L525.096 494.438L531.857 489.17L532.646 488.555L532.031 487.766L529.573 484.611L528.958 483.822L528.169 484.437L521.408 489.706ZM512.957 496.291L512.168 496.906L512.783 497.695L515.241 500.85L515.856 501.639L516.645 501.024L523.406 495.755L524.195 495.141L523.58 494.352L521.121 491.197L520.507 490.408L519.718 491.023L512.957 496.291ZM504.505 502.877L503.717 503.491L504.331 504.28L506.79 507.435L507.405 508.224L508.193 507.61L514.954 502.341L515.743 501.726L515.129 500.938L512.67 497.782L512.055 496.994L511.266 497.608L504.505 502.877ZM496.054 509.462L495.265 510.077L495.88 510.866L498.339 514.021L498.953 514.81L499.742 514.195L506.503 508.927L507.292 508.312L506.677 507.523L504.219 504.368L503.604 503.579L502.815 504.194L496.054 509.462Z" fill="#222222" stroke="#6C6965" stroke-width="2"/>
<path d="M191.116 423.688L191.137 424.688L192.136 424.667L196.136 424.584L197.135 424.563L197.115 423.563L197.02 418.999L196.999 418L195.999 418.02L192 418.103L191 418.124L191.021 419.124L191.116 423.688ZM191.258 430.534L191.279 431.534L192.279 431.513L196.278 431.43L197.278 431.409L197.257 430.41L197.162 425.846L197.141 424.846L196.142 424.866L192.142 424.95L191.143 424.97L191.163 425.97L191.258 430.534Z" fill="#222222" stroke="#6C6965" stroke-width="2"/>
<path d="M470.557 190.126L469.599 190.41L469.883 191.369L471.019 195.204L471.303 196.163L472.262 195.879L476.639 194.581L477.598 194.297L477.314 193.339L476.177 189.503L475.893 188.545L474.934 188.829L470.557 190.126ZM463.992 192.073L463.033 192.357L463.317 193.315L464.454 197.151L464.738 198.109L465.697 197.825L470.074 196.528L471.032 196.244L470.748 195.285L469.611 191.45L469.327 190.491L468.369 190.775L463.992 192.073Z" fill="#222222" stroke="#6C6965" stroke-width="2"/>
<path d="M472.053 221.182L471.14 220.776L470.734 221.689L469.11 225.345L468.704 226.259L469.617 226.665L473.789 228.518L474.703 228.924L475.109 228.01L476.733 224.354L477.139 223.441L476.226 223.035L472.053 221.182ZM465.795 218.402L464.882 217.996L464.476 218.91L462.852 222.565L462.446 223.479L463.359 223.885L467.531 225.738L468.445 226.144L468.851 225.231L470.475 221.575L470.881 220.661L469.967 220.255L465.795 218.402Z" fill="#222222" stroke="#6C6965" stroke-width="2"/>
</g>
</g>
<defs>
<filter id="filter0_d_1_2" x="-2" y="187.302" width="1524" height="446.048" filterUnits="userSpaceOnUse" color-interpolation-filters="sRGB">
<feFlood flood-opacity="0" result="BackgroundImageFix"/>
<feColorMatrix in="SourceAlpha" type="matrix" values="0 0 0 0 0 0 0 0 0 0 0 0 0 0 0 0 0 0 127 0" result="hardAlpha"/>
<feOffset dy="4"/>
<feGaussianBlur stdDeviation="2"/>
<feComposite in2="hardAlpha" operator="out"/>
<feColorMatrix type="matrix" values="0 0 0 0 0 0 0 0 0 0 0 0 0 0 0 0 0 0 0.25 0"/>
<feBlend mode="normal" in2="BackgroundImageFix" result="effect1_dropShadow_1_2"/>
<feBlend mode="normal" in="SourceGraphic" in2="effect1_dropShadow_1_2" result="shape"/>
</filter>
<clipPath id="clip0_1_2">
<rect width="1520" height="912" fill="white"/>
</clipPath>
</defs>
</svg>
