<svg width="1512" height="904" viewBox="0 0 1512 904" fill="none" xmlns="http://www.w3.org/2000/svg">
<path d="M813.517 256.559L817.297 262.04L825.802 259.394L840.355 260.339L864.925 267.143L863.792 278.484L854.153 290.013L838.466 293.793L825.803 300.786L831.473 315.528L840.356 321.954L842.435 333.483L850.94 327.624L848.861 345.201L839.222 351.438L812.951 352.383L791.027 345.957L779.498 355.596L773.072 363.534L758.897 366.369L762.11 372.984L758.33 381.111L741.698 389.994L733.004 392.64L733.949 406.437L742.454 404.925L739.997 416.643L741.698 427.794L749.447 435.165L751.337 444.426L758.33 439.89L765.701 446.127V454.065L759.653 463.704L762.11 469.752L767.78 476.556L762.11 481.281L762.866 489.219L772.316 488.463L787.247 484.872L793.484 488.463V495.456H805.391L817.298 482.415L820.7 494.7L810.872 498.48L810.116 511.332L804.068 512.466L803.312 502.449L791.027 501.693L787.247 508.119L775.529 506.985L762.866 516.435L756.062 522.861L748.88 533.634L746.423 547.809L747.746 556.125L735.839 547.809L739.997 527.019L731.681 523.806L723.743 524.94L714.671 520.026L723.743 511.332L731.681 512.466L745.289 519.27L752.849 505.095L736.784 492.999L726.767 491.298L720.152 481.281L710.135 490.542L716.75 500.559L708.245 506.985L704.843 515.112L701.819 523.806L695.96 514.167L683.486 511.332L671.201 515.112L672.524 534.39L683.486 533.634L694.826 536.28L693.125 548.943L687.644 554.046L684.998 577.482L677.627 582.774L676.304 590.712L670.067 600.54L672.524 610.935L681.218 620.007L693.125 628.512L698.417 640.041H708.245L717.506 635.505L725.066 628.512L743.21 625.488L739.997 615.849L745.289 595.437L753.983 598.083L758.897 591.657V588.066L775.529 589.011L781.766 584.286L793.484 589.011L802.178 599.784L812.762 600.54L825.425 599.217L825.992 610.935L838.277 613.581L850.94 609.045L860.012 607.344L861.335 595.437L869.651 598.083L873.809 586.932V569.733L881.936 565.764L880.802 556.125L872.864 555.558L871.352 530.421L867.005 519.27L863.792 490.542H853.208L850.373 475.422L855.098 474.099L863.792 451.041V436.866L867.95 438.189L873.62 452.364L893.276 454.821H901.592L909.152 459.924L919.169 458.979L926.351 469.752L928.618 486.005L920.491 492.053L912.931 506.228L917.656 513.41L908.017 521.537L911.419 527.774L922.57 535.334L919.168 542.894L923.704 549.887L917.656 556.124L897.055 580.883L906.883 586.175V593.735L901.969 604.886V615.849L910.474 620.006L917.089 625.487L920.113 635.505L930.886 630.969L935.8 637.772L940.714 649.868L949.597 659.507L951.109 655.349L961.693 653.081L962.638 645.71L956.779 637.205L959.425 628.511L960.559 618.872L949.597 614.525L941.659 588.065L959.425 585.042L965.284 576.158L973.978 584.285L990.421 583.151L993.634 600.539L998.548 607.343L996.469 616.415L1009.7 615.849L1015.18 634.559L1019.72 656.483L1038.81 671.036L1042.4 688.235L1048.63 700.709L1056.38 703.355L1063.75 714.128L1068.29 704.678L1075.47 697.118L1084.35 691.07L1093.99 695.606L1096.64 682.376L1092.29 667.445L1084.35 662.153L1080.76 651.758L1069.8 654.026L1058.08 646.089L1054.87 629.267L1057.33 621.707L1056 613.202L1047.5 612.824L1045.23 604.319L1038.05 598.082L1036.35 590.144L1027.09 588.065L1028.79 579.938L1027.84 572.189L1020.66 565.763L1010.08 561.227L1011.97 553.856L1015.75 545.351L1032.76 553.856L1063.56 548.753L1065.83 540.815V527.018L1062.05 518.324L1052.79 514.733L1042.77 515.489L1037.1 508.685L1027.09 507.362L1019.34 497.534L1013.1 498.668L1007.24 493.376L1001.19 486.572L991.177 484.871L986.263 474.098L980.026 476.555L972.088 472.019L968.875 456.521L957.914 458.979L954.701 448.962L961.316 440.457L957.914 434.598L955.835 419.667L944.873 415.698L943.55 404.925L935.801 395.286L929.186 399.255L920.303 397.176L918.602 386.403L919.736 372.984V364.668L926.918 363.534L928.43 353.706L919.169 350.304L912.554 341.232L903.293 332.727L907.829 318.741L895.544 312.126L889.874 300.786L897.812 291.525L895.544 286.611L889.874 282.642L899.702 270.546L895.543 244.652L884.77 232.556L882.124 216.869L870.595 199.481L864.169 187.763L875.887 176.234L871.351 165.272V144.293L880.99 153.554L890.629 147.884L885.526 102.902H878.344L867.193 120.479L865.114 135.599L855.097 159.035L845.458 158.657L844.891 145.994L838.276 153.932L834.307 172.643L839.41 181.337L839.977 194.378L825.424 192.488L816.163 200.048L812.383 187.763L805.012 189.653L803.878 210.254L801.61 225.185L813.517 233.69V256.559Z" fill="black" fill-opacity="0.32"/>
<path d="M791.215 268.844L799.531 263.174L814.084 270.356L818.62 289.634L817.486 297.95L806.335 295.871L800.098 290.768L793.672 281.318L791.215 268.844Z" fill="black" fill-opacity="0.32"/>
<path d="M607.507 345.011L612.61 308.912L620.737 289.445L612.61 282.641V271.49L624.895 269.978L632.455 284.342L647.008 285.854L661.561 274.892L672.523 285.098L666.853 298.517L678.382 305.888L688.399 297.383L701.062 305.888L712.024 302.675L717.694 315.905L730.546 318.362L739.807 304.754L726.577 296.06V285.098L733.948 290.768L748.69 287.555L769.291 293.603L777.985 282.83L790.27 289.067L791.593 299.651L779.497 307.211L781.576 314.771L774.205 328.001L759.652 323.087L746.233 345.2L723.175 359.942L701.44 378.275L677.437 381.866L665.719 389.237L664.396 413.429L669.877 423.635L660.049 424.391L633.589 427.982L630.754 415.697L621.304 418.91V408.326L610.531 398.687L609.397 394.34L602.971 402.656L598.057 417.776L579.535 413.429L569.896 399.254L561.013 395.285L555.343 388.292L559.501 378.275L552.508 367.691L562.147 362.777L578.023 367.691V348.602L584.071 338.018L588.607 348.602L598.057 356.918V364.856L605.995 367.691L607.507 345.011Z" fill="black" fill-opacity="0.32"/>
<path d="M567.681 447.26L560.121 464.648L570.705 475.988L595.653 479.012L621.357 469.184L644.793 479.012L661.425 469.184L652.353 454.064L606.237 441.968L567.681 447.26Z" fill="black" fill-opacity="0.32"/>
<path d="M507.338 164.894L499.211 168.296L496.376 178.313L488.06 194.756L487.115 212.144L503.369 213.278L513.197 209.876L522.08 200.615L536.822 197.402L542.303 187.196L553.076 194.756L573.866 170.186L568.385 163.004V152.042L558.746 149.018L547.784 152.987V145.049L535.499 136.733L524.537 139.379L514.52 156.011L507.338 164.894Z" fill="black" fill-opacity="0.32"/>
<path d="M378.629 288.311L393.749 307.967L385.433 314.393L367.289 307.589L363.887 301.919L349.05 294.075L344.609 295.115L333.458 293.981L322.307 305.132L330.623 309.857L320.606 318.929L311.156 330.647L297.359 324.788L295.469 335.372L283.184 333.104L263.528 350.87L255.401 365.612L256.346 381.299L264.851 399.254L254.267 405.68V417.965L251.999 426.281L251.054 434.975L254.267 441.968L262.961 445.37L271.655 442.913L276.002 439.322L289.988 451.04L286.208 453.875L274.679 451.04L243.872 458.222L241.226 441.968L242.927 434.975L236.501 429.305L228.374 436.109L218.924 442.913H190.007L180.179 439.322L168.272 433.085L148.238 429.305L145.97 437.999L140.3 442.913L145.97 451.04L139.733 458.978L138.977 468.806L142.946 480.335L154.853 473.72L166.76 474.854L175.832 486.194L181.502 495.455V520.025L174.509 527.585L169.406 537.035L180.179 542.705L185.849 551.21L188.873 561.605L168.272 566.519L160.712 571.433L164.681 578.804L173.753 577.859L181.502 587.12L192.275 592.601L196.811 580.127L201.347 594.113L212.876 600.917L227.429 591.278L230.642 598.271H241.226L261.071 600.917V617.549L270.71 619.061L278.459 623.786L287.531 616.604L288.476 624.92L300.005 628.322L304.352 617.549L316.826 616.604L318.526 626.432L307.564 638.339V648.167L314.368 647.033L310.399 658.184L313.234 669.146L308.698 679.163L312.289 688.046V702.977L306.619 709.592L312.289 716.396L295.279 720.176L288.286 714.695L281.104 732.272L271.654 741.155L271.276 759.488L278.08 763.457L285.262 770.261L289.231 752.306H297.925L306.619 745.124H314.746L317.392 735.863L323.629 749.471L332.323 746.258L339.694 731.327L347.065 726.413L344.419 713.372L353.113 710.537L355.759 701.843L359.35 715.829L373.525 723.2L377.494 733.217L385.054 738.131L388.267 745.124L404.521 747.77L401.119 763.835L403.198 775.931L415.672 793.319L423.799 800.501L428.713 794.831L435.517 813.92H437.029L438.919 801.824L437.596 784.436L444.967 766.103L456.118 751.55L457.252 740.399L453.661 718.664L460.654 704.867L453.661 667.256L445.156 646.466L450.826 636.827L463.111 665.744L465.757 673.682L473.884 663.854L475.585 693.527L479.176 712.049L491.461 742.856L496.564 731.138L491.461 719.231L489.382 700.142L497.509 708.269H509.227L516.976 705.623L504.88 659.129L509.794 647.033L503.557 641.93L503.935 634.37L492.595 604.886L487.87 594.113L504.502 586.931L501.478 577.103L517.354 568.409L512.062 559.337L508.66 546.485L499.399 548.375L501.1 534.578L499.966 522.104H491.65L483.145 517.001L492.595 510.575L487.87 503.582L474.451 510.575L473.317 503.582L461.032 502.259L448.558 499.613L424.177 524.183L428.713 531.554L430.036 541.193L413.026 549.887L410.569 542.705H402.064L391.291 564.251L393.37 573.323L387.511 578.804L388.267 587.12L372.391 596.003L360.295 591.278L354.436 598.271L348.01 593.546L338.56 591.278L337.994 583.529L346.499 573.89L341.774 565.574L331.946 578.048L308.699 583.529L296.036 578.048L304.352 558.959L315.881 549.887L319.472 565.574L321.74 568.598L332.513 565.385L343.286 547.43L334.781 541.949L327.032 540.437L323.441 530.231L333.269 517.001L335.726 511.331L330.056 499.613L340.829 489.596L352.547 490.73L357.461 478.067L368.045 478.634L361.43 486.194L358.973 497.345L368.801 495.455L373.904 486.95L391.292 485.627L395.639 493.943L414.161 490.73L429.47 471.452L434.951 465.971L444.401 470.129L443.645 462.758L440.81 448.394H450.827L449.693 439.322L452.528 425.336L460.466 427.226L462.356 402.278L466.136 403.979L471.995 397.175L481.634 405.68L490.328 397.175L492.596 385.268L496.565 374.684L514.709 365.612L523.403 358.241L536.444 328.757L526.994 320.252L516.032 323.843L514.709 313.826L507.905 308.345L512.441 297.194L507.905 291.335L504.692 298.139L495.242 296.438L498.833 286.043L492.596 278.294L495.998 270.734L490.139 256.748L491.651 246.164L492.596 233.879L487.493 227.075L482.957 240.872L475.397 240.116L465.758 246.164L462.167 260.528L471.995 270.734L476.531 279.995L469.349 290.579L464.057 287.366L451.016 295.871L448.559 285.098H437.219L439.865 263.552L448.559 257.315L451.016 242.762L459.521 233.123L468.026 227.075L469.349 215.546L468.026 203.45L462.167 199.292L458.198 206.285L455.552 225.752L449.693 231.8H442.322L439.865 217.436L432.494 210.065L423.044 213.278L417.752 203.45L413.027 197.591L423.8 176.045L421.532 166.406L415.295 171.698L399.608 203.45L390.725 204.962L374.66 200.048L357.839 180.581H348.956L339.506 176.045L335.915 182.849L342.908 194.378L334.214 214.79L322.307 220.838L312.101 218.003L306.431 208.553L297.359 201.938L291.878 193.055L288.098 200.048L294.146 216.113L295.469 221.594L302.651 231.8L300.383 242.762L308.699 243.896L313.991 230.288L322.307 236.903L324.575 245.03L330.623 235.013L333.458 243.896V254.102L348.011 268.277L342.152 274.892L341.207 286.043L361.241 290.012L365.21 283.208L378.629 288.311Z" fill="black" fill-opacity="0.32"/>
<path d="M224.783 274.325L232.721 265.82L238.013 256.748L241.415 243.518L253.7 231.611L259.748 239.738L269.765 246.353L271.088 265.253L283.751 259.583L294.335 255.992H302.462L305.108 263.174L296.603 269.222L294.335 287.744L281.483 290.201L274.49 284.531L268.631 290.201L264.095 297.005L257.102 303.809L245.006 299.84L239.147 292.469L230.075 286.421L224.783 274.325Z" fill="black" fill-opacity="0.32"/>
<path d="M582.938 173.966L585.017 160.547L594.845 163.004L607.13 161.681L620.171 159.791L628.676 161.681L634.535 166.595L643.796 170.186L651.923 175.1L655.514 182.471L664.208 175.856H676.304L698.228 180.581L711.458 190.976L716.372 199.481L730.358 201.182L734.327 193.811L742.265 197.402L748.691 193.811H761.165L773.072 197.402L775.529 206.852L783.089 208.742L788.192 220.46L784.034 238.037L770.804 235.769L755.117 240.305L756.251 248.054L748.691 252.401L744.722 241.628H739.052L726.011 261.284L711.458 256.181L706.922 240.305L702.386 248.054L693.503 243.14L689.912 233.879L678.761 228.965L673.658 233.879L663.263 222.728L659.294 228.965L652.868 222.728L644.741 226.886L638.126 218.948L636.047 209.687L626.408 204.017L623.384 191.921L616.58 187.196L605.24 186.251L596.546 180.581L590.309 173.966H582.938Z" fill="black" fill-opacity="0.32"/>
<path d="M1014.8 370.148L1008.57 360.509L1013.67 352.76L1028.98 348.413L1038.99 338.396V330.269L1030.68 332.915L1022.93 330.269L1024.44 322.142L1035.4 309.668L1042.02 310.802L1036.73 300.596L1032 288.878L1025.2 280.751L1017.64 286.799L1011.4 279.428L1015.37 267.71L1025.2 269.978L1033.32 259.205L1046.55 266.198L1056 268.466L1047.5 253.913L1040.51 246.542L1030.68 249.944L1025.95 241.061L1022.93 231.422L1006.3 224.996L1012.16 215.357L1022.93 220.082L1033.32 232.367L1044.48 237.47H1057.52L1063.94 229.721L1069.61 223.673L1067.34 212.333L1054.87 199.859L1057.52 189.842L1068.48 182.471L1079.06 184.928L1087.19 190.787L1097.02 187.196L1102.12 178.502L1092.1 168.107L1112.52 146.372L1122.15 165.083L1115.16 172.454L1118.94 188.33L1122.15 223.673L1134.44 237.47V249.944L1143.13 261.473L1128.01 281.885L1119.7 273.569L1118.19 284.909L1106.85 288.878L1130.09 299.651L1133.31 290.39L1141.24 281.885L1146.35 295.682L1148.8 312.881L1126.69 324.599L1125.56 329.513L1117.43 339.908L1109.3 334.616L1099.1 341.042L1090.21 338.396L1086.24 331.403L1084.54 341.042L1077.36 352.76L1080.76 372.038L1087.95 384.89L1070.75 391.127L1051.28 395.285L1040.51 401.144L1037.48 394.529L1028.98 379.598L1025.58 369.581L1014.8 370.148Z" fill="black" fill-opacity="0.32"/>
<path d="M1142.38 325.544L1131.23 328.757L1128.96 341.798L1123.67 345.389L1126.12 357.485V370.904L1123.67 382.811L1136.14 402.467L1157.69 417.965L1175.26 420.044L1201.16 399.065L1192.08 388.67L1204.18 378.653L1196.43 370.904L1192.08 359.942L1194.35 349.547L1177.72 341.798L1170.35 328.757L1160.9 323.843L1159.2 335.939L1146.91 332.348L1142.38 325.544Z" fill="black" fill-opacity="0.32"/>
<path d="M935.422 361.076L936.745 349.925L943.738 349.547L954.322 361.076L968.119 364.289L975.49 355.784L989.287 362.777L1000.44 365.045L1008.57 371.849L1014.05 383.567L998.926 387.725L1000.44 404.924H989.287L976.813 408.515L972.277 399.443L969.253 390.182L957.157 397.553L952.243 390.182L954.322 377.141L944.872 367.502L935.422 361.076Z" fill="black" fill-opacity="0.32"/>
<path d="M1215.52 265.064L1216.65 275.837L1194.73 295.871L1197.38 311.936L1188.3 318.929V335.75L1207.02 334.805L1214.95 362.588L1222.7 371.093L1231.59 368.258L1239.15 376.952L1247.27 389.048L1298.3 387.347L1312.67 369.959L1310.78 356.54L1320.98 358.619L1333.08 359.942L1349.52 364.856L1369.37 368.258L1372.01 362.588L1366.34 355.217H1354.81L1332.7 341.231L1319.09 335.75V334.238L1333.83 334.805L1348.58 305.699L1340.26 299.651L1314.75 301.541L1306.81 294.548L1303.03 286.421L1301.89 278.105H1294.9L1290.36 269.222L1303.03 268.466L1301.33 260.528L1304.54 250.511L1311.72 247.676V239.36L1313.8 231.044L1321.36 229.721L1319.09 220.838L1301.33 210.443L1291.5 207.608L1288.66 220.838H1281.67L1273.92 228.398L1253.32 225.752L1248.6 190.031L1245 175.856L1248.6 167.162L1231.02 170.564L1216.65 169.619L1210.23 160.925L1206.64 176.423L1198.89 171.509L1195.11 156.389L1185.85 159.791L1189.25 182.66L1179.8 194L1183.39 205.34L1188.12 215.924L1196.81 223.106L1213.82 217.625L1221.38 256.37L1215.52 265.064Z" fill="black" fill-opacity="0.32"/>
<path d="M138.599 403.412L134.062 410.405L143.513 415.508L159.2 416.642L184.715 427.793L193.787 420.422L210.419 422.69L213.632 401.9L208.529 388.292L209.663 372.794L227.807 374.873L231.776 360.32L237.824 353.516L229.13 344.822L225.539 334.427L223.271 312.881L213.443 304.187L198.512 333.482L194.921 342.932L187.928 350.114L186.605 361.076H194.921L182.825 371.093L172.997 382.433L160.712 383.567L159.767 391.694L171.674 389.804L174.887 395.663L148.427 404.546L138.599 403.412Z" fill="black" fill-opacity="0.32"/>
<path d="M1318.9 372.417L1314.37 380.165L1322.31 393.207L1334.59 400.956L1353.87 399.444L1365.21 403.035L1392.43 396.419L1396.96 375.63H1386.94L1378.06 372.417L1369.93 378.654L1352.55 372.417L1331.57 369.771L1318.9 372.417Z" fill="black" fill-opacity="0.32"/>
<path d="M1307.75 514.355L1318.15 501.315L1325.14 494.889L1348.01 502.449L1360.3 490.919L1374.47 488.841L1384.3 494.889L1389.02 501.315V509.63L1395.07 521.538L1390.16 529.664L1391.48 538.737L1381.08 546.863L1382.22 554.423L1369.93 562.551L1357.46 559.905L1353.49 546.863L1343.1 538.737L1338.94 529.664L1325.14 524.751L1318.15 527.397L1307.75 514.355Z" fill="black" fill-opacity="0.32"/>
<path d="M1196.43 517.19L1189.25 518.324L1187.93 526.829L1198.7 533.823L1208.34 537.98L1229.32 527.964L1233.85 521.727L1248.6 516.624L1253.7 501.126L1247.84 494.699H1240.85L1229.32 492.242L1216.47 496.022L1201.91 505.85L1196.43 517.19Z" fill="black" fill-opacity="0.32"/>
<path d="M1298.3 387.347L1303.03 398.499L1314.75 405.492L1320.98 415.32L1317.96 426.66L1313.8 435.543L1294.9 444.237L1291.5 454.065L1278.46 461.246L1283.75 475.611L1261.64 473.154L1255.02 486.195L1247.27 481.091L1236.88 479.013L1218.36 482.604L1205.69 486.195L1197.38 498.479H1192.08L1186.6 500.936L1178.67 513.978L1166.76 510.576L1165.81 517.19L1156.55 524.561L1154.85 533.445L1139.92 544.974L1125.93 552.723L1111 544.974L1097.77 534.957L1079.06 517.19L1084.54 510.576L1091.73 511.521L1097.77 513.978L1094.37 487.139L1102.69 482.604L1111 488.462L1119.89 479.013L1130.66 474.477L1142.95 475.611L1153.15 465.971L1166.76 466.917L1181.5 457.845L1184.71 441.969L1181.5 424.581L1198.51 410.973L1237.82 403.224L1247.27 389.048L1298.3 387.347Z" fill="black" fill-opacity="0.32"/>
</svg>
