<svg width="1512" height="904" viewBox="0 0 1512 904" fill="none" xmlns="http://www.w3.org/2000/svg">
<mask id="path-1-inside-1_166_2141" fill="white">
<path fill-rule="evenodd" clip-rule="evenodd" d="M799.519 151.359L769.087 159.162L769.036 160.098L758.464 156.91H733.731L733.706 156.924L714.031 148.023L711.945 151.897L704.205 145.815L672.372 138.954H654.418L649.968 136.264L642.901 133.524L635.227 127.088L614.179 122.41L600.591 124.379L593.179 119.638H580.189L555.306 111.831L533.5 97.7284L498.144 106.263L482.716 131.878L481.606 133.251L467.111 139.319L461.255 160.007L445.312 148.692L443.474 151.93L432.401 104.87L383.978 145.957L377.591 158.883L364.453 143.679H348.661L319.299 129.585L303.542 159.442L283.025 126.192L252.583 182.51L250.235 179.355L207.289 220.98L202.819 238.363L201.327 240.921L182.201 261.413L186.215 270.588L163.868 314.433L161.912 319.58L152.18 329.575L150.094 346.859L126.547 349.032L124.629 365.522L116.397 364.572L84 414.518L101.338 423.881L93.046 431.067L102.987 445.315L101.407 465.85L119.07 517.156L142.051 504.389L121.403 542.626L127.378 545.771L114.005 554.464L140.636 603.922L153.833 602.547L155.267 604.261L201.777 627.924L202.17 626.845L206.661 629.496L218.786 621.465H223.89V636.397L253.027 640.967L270.384 651.551V661.222L268.383 659.654L248.628 708.001L234.74 721.056L233.738 769.684L252.805 780.806L296.009 821.736L305.521 778.707L346.835 763.439L353.013 750.924L354.25 751.728L360.512 765.356L365.065 766.097L367.622 780.977L386.101 806.735L401.088 819.979L407.195 837.114H455.614L462.012 796.165L460.957 782.289L464.182 774.266L466.192 771.643L483.108 814.062L521.174 726.651L545.945 718.193L529.336 654.352L538.841 630.956L526.407 620.783L519.64 603.19L534.01 596.985L530.271 584.834L551.732 573.081L532.935 540.859L525.514 512.823L523.316 504.517L521.993 504.115L520.274 485.202H509.214L490.626 457.691L476.889 464.85L475.861 456.624L480.634 457.76L482.508 433.027L510.947 405.206L514.008 389.136L515.26 388.51L535.064 412.935L538.969 414.68L517.574 463.888L549.081 497.646L592.297 502.884L613.709 494.697L633.59 503.035L637.471 559.58L642.816 559.212L640.534 572.904L630.779 588.276L638.031 618.96L654.334 635.971L662.019 641.46L672.014 663.234H708.075L727.544 653.699L731.738 649.819L775.702 642.492L766.526 614.963L768.59 612.264L772.201 612.469L779.869 621.97L789.675 622.67L789.961 628.594L790.289 628.664L832.377 637.729L838.289 636.084L851.691 631.283L866.38 628.529L884.184 637.233L893.865 669.301L910.493 662.3L953.83 709.325L966.532 674.392L981.659 671.15L983.454 657.147L985.434 666.715L1004.55 681.287L1006.65 691.335L1020.13 718.31L1030.09 721.71L1061.2 767.176L1083.63 720.441L1108.8 732.284L1120.42 674.193L1110.95 641.669L1102.32 635.915L1093.41 610.128L1080.29 612.842L1074.78 577.422L1060.09 576.769L1058.19 575.12L1057.56 572.169L1080.1 568.436L1082.6 559.7L1087.77 563.614L1119.27 579.963L1149.35 563.297L1168.98 548.133L1177.33 553.553L1201.84 564.123L1242.01 544.943L1245.47 540.179L1265.35 533.297L1270.44 517.845L1301.17 556.395L1312.87 551.968L1320.37 557.836L1326.74 578.764L1368.88 587.702L1407.64 562.059L1406.27 552.885L1416.6 544.809L1414.31 529.136L1422.28 515.952L1411.94 495.582V484.602L1397.9 465.514L1373.78 450.671L1339.47 455.703L1333.34 461.456L1318.21 456.453L1329.22 451.389L1339.17 430.126L1341.02 423.177L1343.25 423.003L1357.01 427.362L1410.64 414.326L1427.14 338.727H1389.71L1374.01 318.315H1365.26L1379.81 289.594L1341.89 262.017L1330.61 262.853L1334.64 261.265V249.8L1351.37 246.872L1337.97 194.388L1306.13 175.759L1271.69 165.826L1290.54 120.204L1224.83 132.922L1188.53 83.8132L1180.04 120.437L1145.39 133.166L1149.25 159.05L1112.61 87.931L1059.61 144.367L1055.42 143.394L1024.22 164.369L1019.55 182.063L993.007 170.422L954.832 233.226L974.834 240.955L969.625 242.758L980.665 248.593L970.359 279.019L989.402 301.524L989.279 301.664L985.179 323.702L985.146 323.752L961.015 311.522L955.073 318.378L949.147 311.923L931.971 312.852L937.01 297.313L924.973 290.831L926.041 289.585L920.319 277.187L924.368 272.203L916.687 224.368L905.828 212.176L903.56 198.727L894.957 185.753L904.26 176.599L899.96 166.207L915.553 157.034L905.225 66H854.689L839.045 90.6591L803.294 133.561L799.519 151.359ZM1173.51 254.458L1163.53 267.941L1164.18 269.712L1178.05 257.037L1177.36 250.483L1179.71 246.995L1157.35 228.526V233.03L1173.51 254.458ZM1141.03 174.473L1150.11 164.896L1150.41 166.912L1141.62 177.47L1141.54 176.611L1141.03 174.473ZM1143.04 193.117L1144.05 204.234L1147.94 208.609L1143.04 193.117ZM1056.92 480.016L1054.85 463.724L1097.58 440.418L1102.49 443.877L1118.8 437.01L1125.05 437.587L1129.74 433.156L1106.75 416.616L1098.48 403.591L1071.91 413.226L1054.68 416.907L1019.44 436.074L1015.8 428.118H987.962L988.604 431.216L994.639 428.839L1004.77 451.059L1009.5 451.862L1016.21 459.411L1024.61 457.884L1035.99 472.317L1045.54 473.578L1048.82 477.507L1050.18 477.404L1056.92 480.016ZM538.493 219.383L530.292 221.17L522.736 229.048L515.244 231.641L514.402 242.59L513.924 245.933L519.815 259.994L539.662 285.63L538.125 289.41L556.658 306.091L575.429 273.242V238.06L609.974 233.808L603.264 225.756L602.449 222.127L593.179 216.675L591.255 208.979L588.049 208.712L587.574 208.402L586.05 218.236L573.525 201.823L551.15 228.266L538.493 219.383ZM701.755 443.917L686.66 457.873L679.322 445.643L701.755 443.917ZM696.823 401.427L698.025 418.966L689.217 402.565L696.823 401.427ZM370.505 517.515L370.497 517.501L359.191 519.676L366.931 524.663L370.505 517.515Z"/>
</mask>
<path fill-rule="evenodd" clip-rule="evenodd" d="M799.519 151.359L769.087 159.162L769.036 160.098L758.464 156.91H733.731L733.706 156.924L714.031 148.023L711.945 151.897L704.205 145.815L672.372 138.954H654.418L649.968 136.264L642.901 133.524L635.227 127.088L614.179 122.41L600.591 124.379L593.179 119.638H580.189L555.306 111.831L533.5 97.7284L498.144 106.263L482.716 131.878L481.606 133.251L467.111 139.319L461.255 160.007L445.312 148.692L443.474 151.93L432.401 104.87L383.978 145.957L377.591 158.883L364.453 143.679H348.661L319.299 129.585L303.542 159.442L283.025 126.192L252.583 182.51L250.235 179.355L207.289 220.98L202.819 238.363L201.327 240.921L182.201 261.413L186.215 270.588L163.868 314.433L161.912 319.58L152.18 329.575L150.094 346.859L126.547 349.032L124.629 365.522L116.397 364.572L84 414.518L101.338 423.881L93.046 431.067L102.987 445.315L101.407 465.85L119.07 517.156L142.051 504.389L121.403 542.626L127.378 545.771L114.005 554.464L140.636 603.922L153.833 602.547L155.267 604.261L201.777 627.924L202.17 626.845L206.661 629.496L218.786 621.465H223.89V636.397L253.027 640.967L270.384 651.551V661.222L268.383 659.654L248.628 708.001L234.74 721.056L233.738 769.684L252.805 780.806L296.009 821.736L305.521 778.707L346.835 763.439L353.013 750.924L354.25 751.728L360.512 765.356L365.065 766.097L367.622 780.977L386.101 806.735L401.088 819.979L407.195 837.114H455.614L462.012 796.165L460.957 782.289L464.182 774.266L466.192 771.643L483.108 814.062L521.174 726.651L545.945 718.193L529.336 654.352L538.841 630.956L526.407 620.783L519.64 603.19L534.01 596.985L530.271 584.834L551.732 573.081L532.935 540.859L525.514 512.823L523.316 504.517L521.993 504.115L520.274 485.202H509.214L490.626 457.691L476.889 464.85L475.861 456.624L480.634 457.76L482.508 433.027L510.947 405.206L514.008 389.136L515.26 388.51L535.064 412.935L538.969 414.68L517.574 463.888L549.081 497.646L592.297 502.884L613.709 494.697L633.59 503.035L637.471 559.58L642.816 559.212L640.534 572.904L630.779 588.276L638.031 618.96L654.334 635.971L662.019 641.46L672.014 663.234H708.075L727.544 653.699L731.738 649.819L775.702 642.492L766.526 614.963L768.59 612.264L772.201 612.469L779.869 621.97L789.675 622.67L789.961 628.594L790.289 628.664L832.377 637.729L838.289 636.084L851.691 631.283L866.38 628.529L884.184 637.233L893.865 669.301L910.493 662.3L953.83 709.325L966.532 674.392L981.659 671.15L983.454 657.147L985.434 666.715L1004.55 681.287L1006.65 691.335L1020.13 718.31L1030.09 721.71L1061.2 767.176L1083.63 720.441L1108.8 732.284L1120.42 674.193L1110.95 641.669L1102.32 635.915L1093.41 610.128L1080.29 612.842L1074.78 577.422L1060.09 576.769L1058.19 575.12L1057.56 572.169L1080.1 568.436L1082.6 559.7L1087.77 563.614L1119.27 579.963L1149.35 563.297L1168.98 548.133L1177.33 553.553L1201.84 564.123L1242.01 544.943L1245.47 540.179L1265.35 533.297L1270.44 517.845L1301.17 556.395L1312.87 551.968L1320.37 557.836L1326.74 578.764L1368.88 587.702L1407.64 562.059L1406.27 552.885L1416.6 544.809L1414.31 529.136L1422.28 515.952L1411.94 495.582V484.602L1397.9 465.514L1373.78 450.671L1339.47 455.703L1333.34 461.456L1318.21 456.453L1329.22 451.389L1339.17 430.126L1341.02 423.177L1343.25 423.003L1357.01 427.362L1410.64 414.326L1427.14 338.727H1389.71L1374.01 318.315H1365.26L1379.81 289.594L1341.89 262.017L1330.61 262.853L1334.64 261.265V249.8L1351.37 246.872L1337.97 194.388L1306.13 175.759L1271.69 165.826L1290.54 120.204L1224.83 132.922L1188.53 83.8132L1180.04 120.437L1145.39 133.166L1149.25 159.05L1112.61 87.931L1059.61 144.367L1055.42 143.394L1024.22 164.369L1019.55 182.063L993.007 170.422L954.832 233.226L974.834 240.955L969.625 242.758L980.665 248.593L970.359 279.019L989.402 301.524L989.279 301.664L985.179 323.702L985.146 323.752L961.015 311.522L955.073 318.378L949.147 311.923L931.971 312.852L937.01 297.313L924.973 290.831L926.041 289.585L920.319 277.187L924.368 272.203L916.687 224.368L905.828 212.176L903.56 198.727L894.957 185.753L904.26 176.599L899.96 166.207L915.553 157.034L905.225 66H854.689L839.045 90.6591L803.294 133.561L799.519 151.359ZM1173.51 254.458L1163.53 267.941L1164.18 269.712L1178.05 257.037L1177.36 250.483L1179.71 246.995L1157.35 228.526V233.03L1173.51 254.458ZM1141.03 174.473L1150.11 164.896L1150.41 166.912L1141.62 177.47L1141.54 176.611L1141.03 174.473ZM1143.04 193.117L1144.05 204.234L1147.94 208.609L1143.04 193.117ZM1056.92 480.016L1054.85 463.724L1097.58 440.418L1102.49 443.877L1118.8 437.01L1125.05 437.587L1129.74 433.156L1106.75 416.616L1098.48 403.591L1071.91 413.226L1054.68 416.907L1019.44 436.074L1015.8 428.118H987.962L988.604 431.216L994.639 428.839L1004.77 451.059L1009.5 451.862L1016.21 459.411L1024.61 457.884L1035.99 472.317L1045.54 473.578L1048.82 477.507L1050.18 477.404L1056.92 480.016ZM538.493 219.383L530.292 221.17L522.736 229.048L515.244 231.641L514.402 242.59L513.924 245.933L519.815 259.994L539.662 285.63L538.125 289.41L556.658 306.091L575.429 273.242V238.06L609.974 233.808L603.264 225.756L602.449 222.127L593.179 216.675L591.255 208.979L588.049 208.712L587.574 208.402L586.05 218.236L573.525 201.823L551.15 228.266L538.493 219.383ZM701.755 443.917L686.66 457.873L679.322 445.643L701.755 443.917ZM696.823 401.427L698.025 418.966L689.217 402.565L696.823 401.427ZM370.505 517.515L370.497 517.501L359.191 519.676L366.931 524.663L370.505 517.515Z" fill="#7C7974" stroke="url(#paint0_linear_166_2141)" stroke-opacity="0.4" stroke-width="2" stroke-dasharray="24 8" mask="url(#path-1-inside-1_166_2141)"/>
<defs>
<linearGradient id="paint0_linear_166_2141" x1="376.5" y1="167" x2="1210" y2="731.5" gradientUnits="userSpaceOnUse">
<stop stop-color="#EBE1E1"/>
<stop offset="1" stop-color="#291E1E"/>
</linearGradient>
</defs>
</svg>
